<?xml version="1.0" encoding="UTF-8"?>
<svg version="1.1" xmlns="http://www.w3.org/2000/svg" width="1536" height="1024">
<path d="M0 0 C506.88 0 1013.76 0 1536 0 C1536 337.92 1536 675.84 1536 1024 C1029.12 1024 522.24 1024 0 1024 C0 686.08 0 348.16 0 0 Z " fill="#FAFAFA" transform="translate(0,0)"/>
<path d="M0 0 C2.51254185 1.61350254 4.67105934 3.55532916 6.875 5.5625 C7.49777832 6.11317139 8.12055664 6.66384277 8.76220703 7.23120117 C12.45280371 10.5188795 16.02519196 13.89890548 19.4609375 17.453125 C21.07732677 19.07771929 22.76217141 20.56870692 24.5 22.0625 C28.55934609 25.5611193 32.46651873 29.21013287 36.375 32.875 C41.36020273 37.54763358 46.3774084 42.17407527 51.4765625 46.72265625 C53.94781248 48.95290198 56.38262387 51.21750973 58.81396484 53.4909668 C63.30464342 57.67667458 67.82490295 61.83310191 72.5 65.8125 C73.2528125 66.45832031 74.005625 67.10414063 74.78125 67.76953125 C76.92088773 69.17648364 76.92088773 69.17648364 79.35546875 69.078125 C83.25041248 67.49023066 85.82913791 64.84769156 88.8125 61.9375 C89.7087207 61.08575195 89.7087207 61.08575195 90.62304688 60.21679688 C92.09037009 58.81990517 93.5463342 57.41109872 95 56 C93.1603458 51.62960457 90.08141883 49.18030415 86.58203125 46.09765625 C86.05996094 45.40542969 85.53789062 44.71320313 85 44 C85.40112305 41.36889648 85.40112305 41.36889648 86 39 C94.56080785 37.27298477 103.12665879 36.24314119 111.8125 35.375 C113.73739258 35.17390625 113.73739258 35.17390625 115.70117188 34.96875 C127.71025013 33.74473578 127.71025013 33.74473578 132 34 C134 36 134 36 134.2421875 39.53515625 C134.08500821 46.41933337 133.21176708 53.26340201 132.40087891 60.09545898 C132.12291947 62.45516238 131.85996247 64.81624569 131.59765625 67.17773438 C131.42277853 68.67979297 131.24702918 70.1817504 131.0703125 71.68359375 C130.99313995 72.38874619 130.91596741 73.09389862 130.8364563 73.82041931 C130.22908999 78.77091001 130.22908999 78.77091001 128 81 C124.35268865 80.70116567 122.37743352 78.84598073 119.75 76.4375 C119.04359375 75.79683594 118.3371875 75.15617187 117.609375 74.49609375 C116.81273437 73.75552734 116.81273437 73.75552734 116 73 C111.75778717 74.64212622 108.95489498 77.80982329 105.84375 80.99609375 C105.25960327 81.58544205 104.67545654 82.17479034 104.0736084 82.78199768 C102.21091457 84.66246803 100.35504812 86.54948928 98.5 88.4375 C96.64411022 90.32107166 94.78676036 92.20314237 92.9263916 94.08229065 C91.77050463 95.25036342 90.61730113 96.42109951 89.46716309 97.59483337 C83.91300885 103.21777282 83.91300885 103.21777282 81 105 C75.96136722 105.01165002 73.16775415 103.84244235 69.52612305 100.3581543 C68.80162964 99.62399292 68.80162964 99.62399292 68.0625 98.875 C67.00847135 97.85739005 65.95378484 96.84046105 64.8984375 95.82421875 C64.39666992 95.33228027 63.89490234 94.8403418 63.37792969 94.33349609 C61.70476547 92.71428579 59.96191057 91.19458671 58.1875 89.6875 C52.9490699 85.14462908 47.93086737 80.36044633 42.87109375 75.62109375 C39.38615223 72.35736349 35.88564006 69.11105287 32.375 65.875 C31.8476123 65.3888623 31.32022461 64.90272461 30.77685547 64.40185547 C29.71704872 63.42519629 28.65715328 62.44863335 27.59716797 61.47216797 C25.42182632 59.46707623 23.24900406 57.45926644 21.07666016 55.45092773 C19.99297048 54.4503629 18.90802924 53.45115174 17.82177734 52.45336914 C15.08636815 49.93946908 12.37291976 47.40733864 9.69140625 44.8359375 C9.15523682 44.32812744 8.61906738 43.82031738 8.06665039 43.29711914 C6.59057556 41.89833294 5.12311953 40.49046779 3.65625 39.08203125 C0.21739505 36.28232979 0.21739505 36.28232979 -4 36 C-6.69724231 37.81949157 -8.90442765 40.06874925 -11.1875 42.375 C-12.53450562 43.68556489 -13.88216157 44.99546169 -15.23046875 46.3046875 C-15.88063965 46.9450293 -16.53081055 47.58537109 -17.20068359 48.24511719 C-19.40865575 50.39856411 -21.68943896 52.45738638 -24 54.5 C-28.84318334 58.82829341 -33.58332374 63.26223702 -38.32543945 67.70043945 C-44.1788334 73.17595701 -50.08228682 78.59408904 -56 84 C-62.38549474 89.84277009 -68.76210782 95.69511882 -75.125 101.5625 C-75.96019165 102.33194946 -75.96019165 102.33194946 -76.81225586 103.11694336 C-81.03269823 106.40699212 -81.03269823 106.40699212 -83.24609566 110.85468483 C-83.24425207 111.61239866 -83.24240849 112.3701125 -83.24050903 113.15078735 C-83.24325836 114.02019455 -83.24600769 114.88960175 -83.24884033 115.78535461 C-83.24164978 116.74129013 -83.23445923 117.69722565 -83.22705078 118.68212891 C-83.22734283 119.68703873 -83.22763489 120.69194855 -83.22793579 121.72731018 C-83.22653856 125.06048107 -83.21095882 128.39343049 -83.1953125 131.7265625 C-83.19158377 134.03298826 -83.18873614 136.3394156 -83.18673706 138.64584351 C-83.17908959 144.72534536 -83.15943154 150.80475211 -83.1373291 156.88421631 C-83.11689463 163.08425612 -83.10774048 169.28431125 -83.09765625 175.484375 C-83.0761867 187.65629185 -83.04203735 199.82813803 -83 212 C-82.40916437 212.00423194 -81.81832874 212.00846388 -81.209589 212.01282406 C-66.84675087 212.11603725 -52.48396124 212.22466091 -38.1212101 212.33933926 C-31.17555052 212.39466529 -24.22988581 212.44814626 -17.28417969 212.49731445 C-10.58630793 212.54473338 -3.88849423 212.59725324 2.80931473 212.65294075 C5.36986615 212.67338516 7.93043201 212.69209472 10.49100876 212.70907402 C14.06616202 212.73307189 17.64121511 212.76313274 21.21630859 212.79467773 C22.28445297 212.8004332 23.35259735 212.80618866 24.45310974 212.81211853 C25.42348679 212.82190735 26.39386383 212.83169617 27.39364624 212.84178162 C28.2398522 212.84823417 29.08605816 212.85468672 29.95790672 212.8613348 C32 213 32 213 34 214 C33.5851887 218.45656238 30.4892713 220.88267022 27.4375 223.8125 C26.62647827 224.60708618 26.62647827 224.60708618 25.79907227 225.41772461 C22.18107471 228.93679044 18.47670693 232.33904124 14.62109375 235.59765625 C12.97235014 236.94863953 12.97235014 236.94863953 11.68961906 238.56341648 C9.4736435 240.44752991 8.22983013 240.37924885 5.34500122 240.38768005 C3.91083359 240.402537 3.91083359 240.402537 2.44769287 240.41769409 C0.87667816 240.41094162 0.87667816 240.41094162 -0.72607422 240.40405273 C-1.83038788 240.41091599 -2.93470154 240.41777924 -4.07247925 240.42485046 C-7.73334509 240.44319415 -11.39378543 240.43926968 -15.0546875 240.43359375 C-17.59433126 240.43815227 -20.13397379 240.44345685 -22.6736145 240.44947815 C-28.00170475 240.45842444 -33.3296392 240.45620222 -38.65771484 240.44604492 C-44.81252589 240.43457067 -50.96690084 240.44862545 -57.12165439 240.4754414 C-63.04569016 240.50028398 -68.96959058 240.50277377 -74.89368057 240.49632454 C-77.41269785 240.49617098 -79.93172339 240.50224342 -82.4507103 240.51461601 C-85.97251656 240.52947438 -89.49336079 240.51888518 -93.01513672 240.50170898 C-94.58007874 240.51621094 -94.58007874 240.51621094 -96.17663574 240.53100586 C-100.63987763 240.48536815 -103.25216926 240.45634046 -107.12405396 238.09364319 C-110.77690112 234.01689556 -110.16536727 230.01700645 -110.18945312 224.79272461 C-110.19774643 223.83818893 -110.20603973 222.88365326 -110.21458435 221.90019226 C-110.23200755 219.82344677 -110.24716812 217.74668138 -110.26036072 215.66990471 C-110.281337 212.38873451 -110.30836265 209.1076647 -110.33703613 205.82655334 C-110.4069743 197.67814083 -110.46634714 189.52965723 -110.52606201 181.38116455 C-110.57689806 174.49767886 -110.63169096 167.61424734 -110.69187927 160.73083687 C-110.71855573 157.48845632 -110.73930751 154.24607102 -110.7598877 151.00364685 C-110.77648258 149.02838905 -110.7933537 147.05313354 -110.81054688 145.07788086 C-110.81473129 144.16824585 -110.81891571 143.25861084 -110.82322693 142.32141113 C-110.46649293 138.34244594 -110.46649293 138.34244594 -112 135 C-115.54903222 134.61907306 -119.09473962 134.27789256 -122.65429688 134.01367188 C-126.36220248 133.65340246 -128.4586092 133.41179804 -131.48046875 131.11328125 C-134.3026925 127.18828627 -134.61852433 123.716248 -134 119 C-130.63368245 113.77604989 -125.77970929 109.91497656 -121.13183594 105.87792969 C-117.72099393 102.8733263 -114.42660044 99.74855114 -111.125 96.625 C-106.00956429 91.80607718 -100.85689534 87.04287635 -95.61328125 82.36328125 C-91.58778454 78.72288438 -87.63452646 75.00590069 -83.67211914 71.29711914 C-78.79566193 66.73523244 -73.88517547 62.2129516 -68.95703125 57.70703125 C-65.81666808 54.83509311 -62.68866531 51.94987721 -59.5625 49.0625 C-59.02439697 48.56564697 -58.48629395 48.06879395 -57.93188477 47.55688477 C-55.16665228 45.00306023 -52.40293686 42.44760822 -49.640625 39.890625 C-44.04057141 34.709818 -38.41386017 29.56569093 -32.7265625 24.48046875 C-29.94243016 21.94762629 -27.20281845 19.37254533 -24.46582031 16.7890625 C-5.45651866 -1.11537661 -5.45651866 -1.11537661 0 0 Z " fill="#23BE59" transform="translate(378,365)"/>
<path d="M0 0 C3.59983077 2.33048746 6.25703145 5.14874343 9.09375 8.35546875 C9.42375 5.05546875 9.75375 1.75546875 10.09375 -1.64453125 C17.35375 -1.64453125 24.61375 -1.64453125 32.09375 -1.64453125 C32.09375 24.75546875 32.09375 51.15546875 32.09375 78.35546875 C24.83375 78.35546875 17.57375 78.35546875 10.09375 78.35546875 C9.76375 75.05546875 9.43375 71.75546875 9.09375 68.35546875 C8.3925 69.09796875 7.69125 69.84046875 6.96875 70.60546875 C-1.21400806 78.43245472 -9.13015186 79.83543318 -20.17578125 79.671875 C-25.36204806 79.23199268 -29.37823149 77.86367645 -33.90625 75.35546875 C-34.53917969 75.01644531 -35.17210937 74.67742187 -35.82421875 74.328125 C-43.63893124 69.48058812 -48.65988734 60.72563375 -51.24609375 52.09375 C-53.75403395 37.89198215 -53.50744035 23.15597604 -45.09375 11.04296875 C-34.11055092 -2.35050843 -16.23336099 -7.69972773 0 0 Z " fill="#043E77" transform="translate(1198.90625,457.64453125)"/>
<path d="M0 0 C8.82348641 6.35232877 15.54279512 15.61011484 17.55859375 26.45703125 C18.35402539 40.17822707 17.1213948 52.13016576 8.55859375 63.45703125 C0.97333347 71.65476596 -8.55315363 76.20714136 -19.73828125 76.79296875 C-32.54385244 77.05186832 -43.71669937 75.55162754 -53.44140625 66.45703125 C-62.17343155 57.97602927 -66.30825599 47.77396867 -66.75390625 35.64453125 C-66.44040305 23.74985083 -62.24016267 13.53912072 -54.31640625 4.70703125 C-40.50632588 -8.33067326 -15.80522147 -9.98889997 0 0 Z " fill="#053F78" transform="translate(953.44140625,460.54296875)"/>
<path d="M0 0 C13.055625 -0.12375 13.055625 -0.12375 26.375 -0.25 C30.46720947 -0.30462402 30.46720947 -0.30462402 34.64208984 -0.36035156 C36.83169775 -0.37204633 39.02131443 -0.38223628 41.2109375 -0.390625 C42.88313354 -0.4213208 42.88313354 -0.4213208 44.58911133 -0.45263672 C54.6774833 -0.45708976 62.7785322 1.93830548 70.2421875 8.93359375 C77.5435492 17.51675006 78.8513956 27.10460416 78 38 C76.3161692 46.18320319 72.44626982 52.66737148 66 58 C58.52939729 62.37354612 51.78673848 64.1356244 43.16796875 64.09765625 C42.00289795 64.09515869 40.83782715 64.09266113 39.63745117 64.09008789 C37.43472534 64.07643188 37.43472534 64.07643188 35.1875 64.0625 C30.505625 64.041875 25.82375 64.02125 21 64 C21 76.21 21 88.42 21 101 C14.07 101 7.14 101 0 101 C0 67.67 0 34.34 0 0 Z " fill="#043E77" transform="translate(696,435)"/>
<path d="M0 0 C8.58366543 5.98449945 13.74743602 13.55480805 17.02734375 23.39453125 C17.77734375 27.64453125 17.77734375 27.64453125 17.77734375 39.64453125 C-2.02265625 39.64453125 -21.82265625 39.64453125 -42.22265625 39.64453125 C-40.05890813 49.9899216 -40.05890813 49.9899216 -33.16015625 57.01953125 C-27.85091859 59.74836523 -21.81283743 59.44455321 -16.1015625 58.171875 C-13.9962305 57.48520167 -13.9962305 57.48520167 -11.22265625 55.64453125 C-10.74183594 54.62359375 -10.26101563 53.60265625 -9.765625 52.55078125 C-7.22265625 49.64453125 -7.22265625 49.64453125 -4.74829102 49.15673828 C-1.63731406 49.05315071 1.41819611 49.12255336 4.52734375 49.26953125 C6.14576172 49.31013672 6.14576172 49.31013672 7.796875 49.3515625 C10.4590544 49.42223983 13.11718611 49.52084724 15.77734375 49.64453125 C15.31551879 50.91516377 14.84993968 52.18443217 14.3828125 53.453125 C14.12395264 54.16009521 13.86509277 54.86706543 13.59838867 55.59545898 C10.21163437 64.04774232 3.01530013 69.87982509 -4.97265625 73.8203125 C-16.22974186 77.94400185 -29.6706122 78.75862464 -40.8046875 73.890625 C-42.00158203 73.27380859 -42.00158203 73.27380859 -43.22265625 72.64453125 C-44.01027344 72.24363281 -44.79789063 71.84273437 -45.609375 71.4296875 C-55.12843072 65.8540097 -60.80313034 56.67239205 -63.59765625 46.16796875 C-65.68899982 34.37801938 -65.13052653 22.50441262 -58.64453125 12.1171875 C-56.94882744 9.82187671 -55.17006943 7.72896924 -53.22265625 5.64453125 C-52.71089844 5.07992188 -52.19914063 4.5153125 -51.671875 3.93359375 C-38.64286902 -8.80444188 -14.96988677 -9.12926311 0 0 Z " fill="#053E77" transform="translate(610.22265625,460.35546875)"/>
<path d="M0 0 C1.4540625 0.0309375 1.4540625 0.0309375 2.9375 0.0625 C3.03092163 16.16097025 3.1014684 32.25935264 3.14474869 48.35802841 C3.16537821 55.83285328 3.19350601 63.30750977 3.23925781 70.78222656 C3.27911394 77.2968387 3.30492999 83.81132891 3.31385398 90.32605958 C3.3190709 93.77595504 3.33133994 97.22550164 3.36042023 100.67528534 C3.39261264 104.52545229 3.39346019 108.37527726 3.39160156 112.22558594 C3.40598267 113.37069641 3.42036377 114.51580688 3.43518066 115.69561768 C3.42968201 116.74447144 3.42418335 117.7933252 3.41851807 118.8739624 C3.42220524 119.78469387 3.42589241 120.69542534 3.42969131 121.63375473 C2.78214034 124.82913085 1.41017987 126.01086122 -1.0625 128.0625 C-3.98332455 129.52291228 -6.54551369 129.18178796 -9.80712891 129.17602539 C-10.84632225 129.17624443 -10.84632225 129.17624443 -11.9065094 129.1764679 C-14.20072541 129.17577018 -16.49486064 129.16798442 -18.7890625 129.16015625 C-20.37804113 129.15829157 -21.96702034 129.1568679 -23.55599976 129.15586853 C-27.74159325 129.15204731 -31.92715213 129.14222039 -36.11273193 129.13116455 C-40.38244153 129.12094194 -44.6521567 129.11636909 -48.921875 129.11132812 C-57.30209923 129.10059778 -65.68229531 129.08352608 -74.0625 129.0625 C-74.7225 127.7425 -75.3825 126.4225 -76.0625 125.0625 C-71.95158449 120.83596499 -67.78072886 116.72889229 -63.234375 112.96875 C-60.97916036 111.07286606 -60.97916036 111.07286606 -58.953125 108.65625 C-52.30811746 101.79408535 -46.81980783 101.29357888 -37.5 101.125 C-34.43729263 101.13455958 -31.37966104 101.15292691 -28.31811523 101.23852539 C-25.85915942 101.29245872 -25.85915942 101.29245872 -24.0625 99.0625 C-23.87128282 96.50446819 -23.80332803 94.05373291 -23.82299805 91.49511719 C-23.82098389 90.71442368 -23.81896973 89.93373016 -23.81689453 89.12937927 C-23.81334404 87.43077702 -23.81412224 85.73216158 -23.81867027 84.03356171 C-23.8242523 81.34320305 -23.81512235 78.65327737 -23.8014679 75.96295166 C-23.76429833 68.31268469 -23.74578661 60.66256169 -23.75708008 53.01220703 C-23.7629388 48.33477129 -23.74462956 43.65794124 -23.71119118 38.98062897 C-23.70324458 37.19930972 -23.70450415 35.41792433 -23.71521568 33.63661957 C-23.72957966 31.13956714 -23.71323435 28.6444094 -23.69018555 26.14746094 C-23.70783714 25.04841682 -23.70783714 25.04841682 -23.72584534 23.9271698 C-23.62279199 18.2171686 -21.92302811 15.95870745 -18.0625 12.0625 C-16.22558594 10.38745117 -16.22558594 10.38745117 -14.546875 9.10546875 C-13.93585938 8.63302734 -13.32484375 8.16058594 -12.6953125 7.67382812 C-12.07398438 7.20396484 -11.45265625 6.73410156 -10.8125 6.25 C-9.55701657 5.28551425 -8.30179421 4.32068852 -7.046875 3.35546875 C-6.06203125 2.59878906 -5.0771875 1.84210938 -4.0625 1.0625 C-3.0625 0.0625 -3.0625 0.0625 0 0 Z " fill="#07437E" transform="translate(478.0625,475.9375)"/>
<path d="M0 0 C0.92627197 0.00684814 1.85254395 0.01369629 2.80688477 0.02075195 C11.40600226 0.22245312 17.77473626 1.97390801 25.0625 6.5625 C30.37558165 12.38158943 32.6875 17.54710472 32.6875 25.4375 C26.0875 25.4375 19.4875 25.4375 12.6875 25.4375 C11.6975 23.1275 10.7075 20.8175 9.6875 18.4375 C5.0340516 15.66332884 1.06561561 14.74033687 -4.3125 15.4375 C-7.36163936 16.826589 -7.36163936 16.826589 -9.3125 19.4375 C-9.98318867 23.94452269 -9.98318867 23.94452269 -8.24609375 28 C-5.40474414 30.11235688 -2.23258948 30.91317216 1.125 31.875 C2.57306216 32.3120182 4.02097769 32.74952254 5.46875 33.1875 C8.00893212 33.94268928 10.55099066 34.69100185 13.09375 35.4375 C20.66467068 37.77902186 27.75895225 40.59378108 32.6875 47.0625 C35.74431789 54.32244248 35.30524465 61.1070501 32.58984375 68.40234375 C29.98638161 74.27422157 25.40004707 77.77724524 19.6875 80.4375 C13.96334339 82.17282327 8.77748956 82.79409517 2.8125 82.75 C1.62841553 82.74262817 1.62841553 82.74262817 0.42041016 82.73510742 C-8.79980487 82.55017202 -17.10729572 80.47012286 -24.3125 74.4375 C-29.76077804 68.37198785 -31.3125 64.88671704 -31.3125 56.4375 C-24.3825 56.4375 -17.4525 56.4375 -10.3125 56.4375 C-9.3225 58.7475 -8.3325 61.0575 -7.3125 63.4375 C-3.54672763 66.97504374 0.37071352 66.76099824 5.28515625 66.73828125 C7.85558633 66.41645504 9.50284266 65.81446665 11.6875 64.4375 C13.23336876 61.34576248 12.98109521 58.84320448 12.6875 55.4375 C9.89910492 51.904909 7.46235846 50.76967547 3.14453125 49.7265625 C2.07009766 49.45070313 0.99566406 49.17484375 -0.11132812 48.890625 C-2.35021237 48.34348556 -4.58978674 47.7991615 -6.83007812 47.2578125 C-15.88668369 44.92480498 -24.03292796 41.57684023 -29.3125 33.4375 C-31.18038518 27.83384447 -31.31576397 20.97767988 -29.69921875 15.2734375 C-26.18039501 8.48381283 -19.68861239 3.51868494 -12.58740234 1.02197266 C-8.41577212 -0.04981128 -4.28595231 -0.04845293 0 0 Z " fill="#053E77" transform="translate(1278.3125,454.5625)"/>
<path d="M0 0 C3.84853023 2.37724655 6.43347699 4.99437831 7.6796875 9.40625 C7.95721904 13.00305882 7.76366313 15.86680932 5.71247864 18.91053772 C5.15743149 19.5086174 4.60238434 20.10669708 4.03051758 20.72290039 C3.39570465 21.41126984 2.76089172 22.09963928 2.10684204 22.80886841 C-1.67770451 26.74482533 -5.49754026 30.6397518 -9.36328125 34.49609375 C-10.23647507 35.37024429 -11.10966888 36.24439484 -12.00932312 37.14503479 C-13.84100616 38.97739427 -15.67393635 40.80850784 -17.50805664 42.63842773 C-19.3884643 44.51523402 -21.26746483 46.39330548 -23.14379883 48.27416992 C-25.86013205 50.99665351 -28.57987311 53.71568323 -31.30078125 56.43359375 C-32.14345047 57.2782872 -32.98611969 58.12298065 -33.85432434 58.99327087 C-35.0214521 60.15567039 -35.0214521 60.15567039 -36.2121582 61.34155273 C-37.23971977 62.36792091 -37.23971977 62.36792091 -38.28804016 63.4150238 C-41.21416261 66.12410279 -43.84608536 66.54509813 -47.83032227 66.4440918 C-56.23027208 64.72478171 -64.99571318 52.15375073 -70.9387207 46.19165039 C-72.95344771 44.17150943 -74.97353385 42.15683617 -76.99414062 40.14257812 C-78.2763629 38.85969599 -79.55827545 37.57650419 -80.83984375 36.29296875 C-81.44392563 35.6909111 -82.04800751 35.08885345 -82.6703949 34.46855164 C-87.85064298 29.25886632 -87.85064298 29.25886632 -88.4375 24.3125 C-88.39683919 19.84794337 -86.65212087 17.64750499 -83.703125 14.4453125 C-80.49189673 11.72018759 -78.51257028 11.00854284 -74.25 10.9375 C-67.31141541 12.10663879 -63.18430765 17.76642566 -58.5234375 22.61328125 C-57.90291504 23.25112549 -57.28239258 23.88896973 -56.64306641 24.54614258 C-55.39004961 25.83939683 -54.149823 27.14517824 -52.92333984 28.46362305 C-52.34535645 29.06343994 -51.76737305 29.66325684 -51.171875 30.28125 C-50.6572168 30.82845703 -50.14255859 31.37566406 -49.61230469 31.93945312 C-48.04151615 33.20741271 -48.04151615 33.20741271 -46 32.85205078 C-43.73942569 31.88898873 -42.52506576 30.85566501 -40.828125 29.0859375 C-40.25030273 28.49329102 -39.67248047 27.90064453 -39.07714844 27.29003906 C-38.47418945 26.65807617 -37.87123047 26.02611328 -37.25 25.375 C-35.99147586 24.08408975 -34.73107593 22.7950054 -33.46875 21.5078125 C-32.86675781 20.89325195 -32.26476562 20.27869141 -31.64453125 19.64550781 C-29.19298749 17.19250827 -26.58737761 14.95563501 -23.9375 12.72265625 C-20.54726569 9.70835518 -17.44010922 6.40508172 -14.296875 3.13671875 C-9.83452306 -1.0144828 -5.89146445 -2.01118638 0 0 Z " fill="#07427E" transform="translate(418,469)"/>
<path d="M0 0 C7.26 0 14.52 0 22 0 C22 6.27 22 12.54 22 19 C27.94 19 33.88 19 40 19 C40 24.61 40 30.22 40 36 C34.06 36 28.12 36 22 36 C22.11992076 41.62351839 22.24258353 47.24683633 22.37231445 52.87011719 C22.41560857 54.78284146 22.45728756 56.695603 22.49731445 58.60839844 C22.5551508 61.35883818 22.61880676 64.10909128 22.68359375 66.859375 C22.70030624 67.71368103 22.71701874 68.56798706 22.73423767 69.44818115 C22.7641555 70.64897308 22.7641555 70.64897308 22.79467773 71.87402344 C22.81799416 72.92659332 22.81799416 72.92659332 22.84178162 74.00042725 C22.97312421 76.36072082 22.97312421 76.36072082 24 80 C29.28 80.66 34.56 81.32 40 82 C40 87.61 40 93.22 40 99 C36.51997565 99.10884524 33.04341937 99.18772157 29.5625 99.25 C28.58861328 99.28351563 27.61472656 99.31703125 26.61132812 99.3515625 C18.81229916 99.45589734 12.79967495 98.07653147 6.66015625 93.10546875 C6.13292969 92.47253906 5.60570312 91.83960938 5.0625 91.1875 C4.51722656 90.56230469 3.97195313 89.93710937 3.41015625 89.29296875 C-0.38305464 83.12506074 -0.27350454 76.70813121 -0.1953125 69.69140625 C-0.1924826 68.72468491 -0.18965271 67.75796356 -0.18673706 66.76194763 C-0.17560407 63.69533548 -0.15051224 60.62902285 -0.125 57.5625 C-0.11496131 55.47461361 -0.10583701 53.38672262 -0.09765625 51.29882812 C-0.07568727 46.19910456 -0.04120507 41.09960295 0 36 C-3.3 36 -6.6 36 -10 36 C-10 30.39 -10 24.78 -10 19 C-6.7 19 -3.4 19 0 19 C0 12.73 0 6.46 0 0 Z " fill="#043E77" transform="translate(1096,437)"/>
<path d="M0 0 C0 6.93 0 13.86 0 21 C-2.97 21.12375 -2.97 21.12375 -6 21.25 C-11.71944289 21.70431919 -16.40997936 22.40486068 -21 26 C-24.51354681 30.41445625 -26.09795832 33.96496932 -26.20532227 39.56323242 C-26.22526749 40.48396042 -26.24521271 41.40468842 -26.26576233 42.35331726 C-26.29083107 43.83938225 -26.29083107 43.83938225 -26.31640625 45.35546875 C-26.33718735 46.37224197 -26.35796844 47.3890152 -26.37937927 48.43659973 C-26.44480048 51.68683063 -26.50372537 54.93714277 -26.5625 58.1875 C-26.60569227 60.38998238 -26.64930679 62.59245653 -26.69335938 64.79492188 C-26.80126943 70.19653249 -26.90039843 75.59820417 -27 81 C-34.26 81 -41.52 81 -49 81 C-49 54.6 -49 28.2 -49 1 C-41.74 1 -34.48 1 -27 1 C-26.67 4.63 -26.34 8.26 -26 12 C-25.360625 11.113125 -24.72125 10.22625 -24.0625 9.3125 C-17.59797324 1.51812774 -9.64655476 0 0 0 Z " fill="#054078" transform="translate(1035,455)"/>
<path d="M0 0 C0 6.93 0 13.86 0 21 C-2.97 21.12375 -2.97 21.12375 -6 21.25 C-12.77944266 21.77433598 -17.99102785 22.99102785 -22.875 27.875 C-26.11423274 33.99355074 -26.33204129 39.66025566 -26.4140625 46.4296875 C-26.43342865 47.42001984 -26.4527948 48.41035217 -26.4727478 49.43069458 C-26.53229553 52.5787101 -26.5788297 55.72676268 -26.625 58.875 C-26.6632026 61.01564052 -26.70225565 63.15626604 -26.7421875 65.296875 C-26.83956973 70.53116982 -26.91933574 75.76531425 -27 81 C-33.93 81 -40.86 81 -48 81 C-48 54.6 -48 28.2 -48 1 C-41.07 1 -34.14 1 -27 1 C-26.67 4.96 -26.34 8.92 -26 13 C-25.443125 12.0925 -24.88625 11.185 -24.3125 10.25 C-17.97244123 1.33964713 -10.49323047 0 0 0 Z " fill="#043D76" transform="translate(836,455)"/>
<path d="M0 0 C7.26 0 14.52 0 22 0 C22 26.4 22 52.8 22 80 C14.74 80 7.48 80 0 80 C0 53.6 0 27.2 0 0 Z " fill="#084079" transform="translate(1050,456)"/>
<path d="M0 0 C7.26 0 14.52 0 22 0 C22 26.4 22 52.8 22 80 C14.74 80 7.48 80 0 80 C0 53.6 0 27.2 0 0 Z " fill="#04427A" transform="translate(851,456)"/>
<path d="M0 0 C4.96566818 2.97940091 8.15609561 7.65211395 9.85546875 13.11328125 C10.59928267 21.32118141 11.37062833 30.38955275 5.85546875 37.11328125 C1.24412384 42.12617586 -3.80873034 44.13144621 -10.51953125 44.48828125 C-16.59777534 44.3345314 -21.08271699 42.06364609 -25.45703125 37.92578125 C-29.96813036 30.40728273 -31.17593072 22.81643857 -30.14453125 14.11328125 C-28.43366815 7.70479404 -25.60914243 3.7935296 -20.14453125 0.11328125 C-13.99451627 -3.37726779 -6.35636382 -2.67703147 0 0 Z " fill="#F8F9F9" transform="translate(939.14453125,474.88671875)"/>
<path d="M0 0 C6.01743162 2.21067229 10.32168267 6.49189267 13.08203125 12.26171875 C15.18086154 18.52248485 14.90995833 26.24337714 12.8125 32.5 C9.75311105 38.40778557 5.40413147 42.38515179 -0.875 44.6875 C-7.09759642 45.60258771 -12.54808939 45.20700624 -18 42 C-23.76995369 36.9767462 -26.51052264 32.10454959 -27.24609375 24.43359375 C-27.54729732 17.87100688 -26.69850689 12.52095957 -23 7 C-16.0624937 -0.33923272 -9.99071241 -0.97497084 0 0 Z " fill="#F8F8F9" transform="translate(1195,474)"/>
<path d="M0 0 C3.485625 -0.04125 6.97125 -0.0825 10.5625 -0.125 C11.64732666 -0.14320801 12.73215332 -0.16141602 13.84985352 -0.18017578 C20.06380823 -0.2156155 25.59876536 -0.16321186 30.99609375 3.26953125 C34.63043222 7.15994777 35.4486084 10.2342572 35.625 15.5625 C35.36182209 21.02030865 34.75468401 24.03672243 31 28 C26.8339431 31.77548907 23.06599954 32.12814444 17.578125 32.09765625 C16.65418945 32.09515869 15.73025391 32.09266113 14.77832031 32.09008789 C13.61397461 32.08098389 12.44962891 32.07187988 11.25 32.0625 C7.5375 32.041875 3.825 32.02125 0 32 C0 21.44 0 10.88 0 0 Z " fill="#F8F9F9" transform="translate(717,451)"/>
<path d="M0 0 C11.55 0 23.1 0 35 0 C35 5.94 35 11.88 35 18 C23.45 18 11.9 18 0 18 C0 12.06 0 6.12 0 0 Z " fill="#033A74" transform="translate(643,483)"/>
<path d="M0 0 C3.54997685 3.02125689 6.18016441 6.15120179 7.9375 10.5 C7.9375 12.15 7.9375 13.8 7.9375 15.5 C-4.6025 15.5 -17.1425 15.5 -30.0625 15.5 C-28.98250118 7.94000823 -27.97141263 4.90301478 -22.1875 0.125 C-15.93695563 -3.0949774 -6.3068053 -3.10488876 0 0 Z " fill="#F6F7F8" transform="translate(598.0625,473.5)"/>
<path d="M0 0 C1.13050781 -0.03738281 2.26101563 -0.07476562 3.42578125 -0.11328125 C7.33099079 0.39650059 8.89315824 1.60390519 11.6875 4.3125 C13.97603994 7.58184278 14.15912218 10.3823152 13.6875 14.3125 C11.21665968 19.15914831 8.82512955 21.49921898 3.6875 23.3125 C-1.54798855 23.8734452 -4.86851027 23.14049347 -9.3125 20.3125 C-12.75304169 16.54506599 -12.81405681 13.66081667 -12.67578125 8.7265625 C-12.16676028 5.34403604 -10.80961098 3.58927766 -8.3125 1.3125 C-5.51518195 -0.08615903 -3.11965441 0.06712733 0 0 Z " fill="#063E77" transform="translate(861.3125,421.6875)"/>
<path d="M0 0 C3.23307772 1.61956043 5.36183145 3.7236629 7 7 C7.26928623 11.10661505 7.39058642 13.96609478 5.9375 17.8125 C2.44877701 21.7513808 -1.49727382 22.84454557 -6.625 23.375 C-11.50786275 22.83245969 -14.86614754 20.76062295 -18 17 C-19.21762731 13.34711807 -19.39075851 10.84245864 -19 7 C-14.38077983 -0.73891737 -8.39412592 -1.00685735 0 0 Z " fill="#053D77" transform="translate(1066,422)"/>
<path d="M0 0 C3.21050532 1.69611602 5.35706565 3.07752898 7.4375 6.0625 C8 8 8 8 7 11 C7.66 11 8.32 11 9 11 C9 11.99 9 12.98 9 14 C8.34 14 7.68 14 7 14 C7 15.32 7 16.64 7 18 C6.73230027 20.94469703 6.25694616 21.77517211 4 23.75 C-0.58387112 25.6599463 -5.44391358 25.98131289 -10.13671875 24.1796875 C-13.22122803 22.2268116 -14.68986292 19.3020802 -16 16 C-16.60736763 11.67250563 -16.3304379 9.63639891 -14.3125 5.75 C-10.05820349 0.69083658 -6.64730633 -0.81633587 0 0 Z " fill="#F3F9F5" transform="translate(985,581)"/>
<path d="M0 0 C13.24198895 -0.49502762 13.24198895 -0.49502762 16.87109375 1.875 C19.29626884 4.29572523 20.24029794 5.65731093 21 9 C20.89677712 15.5030415 19.64698958 18.46365303 15 23 C12 24 12 24 0 24 C0 16.08 0 8.16 0 0 Z " fill="#13BD3A" transform="translate(1215,582)"/>
<path d="M0 0 C3.8125 0.5 3.8125 0.5 5.8125 2.5 C6.1425 1.84 6.4725 1.18 6.8125 0.5 C8.1325 0.5 9.4525 0.5 10.8125 0.5 C10.89991124 4.06234428 10.95302896 7.62441108 11 11.1875 C11.02513672 12.19490234 11.05027344 13.20230469 11.07617188 14.24023438 C11.1682863 23.54379115 11.1682863 23.54379115 7.8125 27.5 C5.22105385 29.61154871 3.03861429 29.6350172 -0.1875 29.4375 C-3.55419351 28.92872729 -4.13066694 28.55683306 -6.6875 26 C-8.1875 23.5 -8.1875 23.5 -8.1875 22.5 C-6.5375 22.5 -4.8875 22.5 -3.1875 22.5 C-3.1875 23.16 -3.1875 23.82 -3.1875 24.5 C0.22892759 24.75015873 0.22892759 24.75015873 3.8125 24.5 C6.18230013 21.54622502 6.18230013 21.54622502 5.8125 17.5 C5.1525 18.16 4.4925 18.82 3.8125 19.5 C-3.05978916 20.16506024 -3.05978916 20.16506024 -6.625 18.0625 C-8.91704818 14.30354098 -9.61194645 10.88847315 -9.1875 6.5 C-7.42700385 2.17798196 -4.65493376 0.14440488 0 0 Z " fill="#18BF42" transform="translate(855.1875,586.5)"/>
<path d="M0 0 C1.32 0 2.64 0 4 0 C4.33 2.64 4.66 5.28 5 8 C5.33 7.67 5.66 7.34 6 7 C13.22962963 6.40740741 13.22962963 6.40740741 16.4375 8.875 C19.25370672 12.70504113 19.32273441 15.23966746 19 20 C16.8 24.6 16.8 24.6 14 26 C12.125 26.16796875 12.125 26.16796875 10 26.1875 C8.948125 26.20876953 8.948125 26.20876953 7.875 26.23046875 C6 26 6 26 4 24 C3.67 24.66 3.34 25.32 3 26 C2.01 26 1.02 26 0 26 C0 17.42 0 8.84 0 0 Z " fill="#19C041" transform="translate(779,580)"/>
<path d="M0 0 C0.99 0 1.98 0 3 0 C3 8.25 3 16.5 3 25 C1.35 24.67 -0.3 24.34 -2 24 C-2.66 24.33 -3.32 24.66 -4 25 C-10.26519337 25.5801105 -10.26519337 25.5801105 -13.375 23.125 C-16.28296416 19.32227763 -16.32430084 16.78343732 -16 12 C-13.8 7.4 -13.8 7.4 -11 6 C-4.46666667 5.76666667 -4.46666667 5.76666667 -2 7 C-2 7.66 -2 8.32 -2 9 C-1.34 9 -0.68 9 0 9 C0 6.03 0 3.06 0 0 Z " fill="#0FBB34" transform="translate(1046,581)"/>
<path d="M0 0 C0.70125 0.00515625 1.4025 0.0103125 2.125 0.015625 C2.82625 0.01046875 3.5275 0.0053125 4.25 0 C6.125 0.265625 6.125 0.265625 8.125 2.265625 C8.455 1.605625 8.785 0.945625 9.125 0.265625 C10.445 0.265625 11.765 0.265625 13.125 0.265625 C13.125 6.535625 13.125 12.805625 13.125 19.265625 C11.805 19.265625 10.485 19.265625 9.125 19.265625 C8.795 18.605625 8.465 17.945625 8.125 17.265625 C7.465 17.925625 6.805 18.585625 6.125 19.265625 C-0.78789199 19.93461455 -0.78789199 19.93461455 -4.3125 17.765625 C-6.45266626 14.34135898 -7.09933741 11.29568641 -6.875 7.265625 C-5.42129548 4.08131985 -3.74549331 0.53061155 0 0 Z " fill="#20C045" transform="translate(1059.875,586.734375)"/>
<path d="M0 0 C0.66 0.66 1.32 1.32 2 2 C2.33 1.34 2.66 0.68 3 0 C4.32 0 5.64 0 7 0 C7 6.27 7 12.54 7 19 C5.35 18.67 3.7 18.34 2 18 C1.34 18.33 0.68 18.66 0 19 C-4.2535161 19.48153012 -6.3220363 19.44716755 -9.9375 17.0625 C-12.34599732 13.48624641 -12.74203371 11.39468093 -12.48046875 7.16015625 C-10.9883622 0.45174224 -6.15498602 -0.81292268 0 0 Z " fill="#15C040" transform="translate(1290,587)"/>
<path d="M0 0 C0.66 0.66 1.32 1.32 2 2 C2.33 1.34 2.66 0.68 3 0 C4.32 0 5.64 0 7 0 C7 6.27 7 12.54 7 19 C5.68 19 4.36 19 3 19 C2.67 18.34 2.34 17.68 2 17 C1.34 17.66 0.68 18.32 0 19 C-4.26372358 19.5631333 -6.31310142 19.45306076 -9.9375 17.0625 C-12.34599732 13.48624641 -12.74203371 11.39468093 -12.48046875 7.16015625 C-10.9883622 0.45174224 -6.15498602 -0.81292268 0 0 Z " fill="#10C03C" transform="translate(813,587)"/>
<path d="M0 0 C0.66 0.66 1.32 1.32 2 2 C2.33 1.34 2.66 0.68 3 0 C4.32 0 5.64 0 7 0 C7 6.27 7 12.54 7 19 C5.68 19 4.36 19 3 19 C2.67 18.34 2.34 17.68 2 17 C1.34 17.66 0.68 18.32 0 19 C-4.26372358 19.5631333 -6.31310142 19.45306076 -9.9375 17.0625 C-12.34599732 13.48624641 -12.74203371 11.39468093 -12.48046875 7.16015625 C-10.9883622 0.45174224 -6.15498602 -0.81292268 0 0 Z " fill="#10BD39" transform="translate(661,587)"/>
<path d="M0 0 C0.66 0.66 1.32 1.32 2 2 C2.33 1.34 2.66 0.68 3 0 C4.32 0 5.64 0 7 0 C7 6.27 7 12.54 7 19 C5.68 19 4.36 19 3 19 C2.67 18.34 2.34 17.68 2 17 C1.34 17.66 0.68 18.32 0 19 C-4.26372358 19.5631333 -6.31310142 19.45306076 -9.9375 17.0625 C-12.34599732 13.48624641 -12.74203371 11.39468093 -12.48046875 7.16015625 C-10.9883622 0.45174224 -6.15498602 -0.81292268 0 0 Z " fill="#11BE3C" transform="translate(927,587)"/>
<path d="M0 0 C2.16015625 0.546875 2.16015625 0.546875 5.22265625 3.109375 C7.48754211 7.12772087 7.96984456 9.01262044 7.16015625 13.546875 C5.22265625 16.984375 5.22265625 16.984375 2.16015625 19.546875 C-1.01627894 20.35103581 -3.65608521 20.29531733 -6.83984375 19.546875 C-9.90234375 17.609375 -9.90234375 17.609375 -11.83984375 14.546875 C-12.87930229 9.79629177 -12.50956075 6.60545993 -9.90234375 2.484375 C-6.34979141 0.23684189 -4.14803015 -0.2492973 0 0 Z " fill="#1CC148" transform="translate(602.83984375,586.453125)"/>
<path d="M0 0 C7.26 0 14.52 0 22 0 C22 26.4 22 52.8 22 80 C14.74 80 7.48 80 0 80 C0 53.6 0 27.2 0 0 Z M1 2 C1 27.41 1 52.82 1 79 C7.27 79 13.54 79 20 79 C20 53.59 20 28.18 20 2 C13.73 2 7.46 2 1 2 Z " fill="#072764" transform="translate(851,456)"/>
<path d="M0 0 C12 0 12 0 15.25 1.5 C17.36961045 4.52801493 17.73223019 6.44661137 17.48046875 10.09375 C17 12 17 12 14.9375 14.5 C11.3957736 16.30854114 8.92556076 16.30788712 5 16 C5 18.97 5 21.94 5 25 C3.35 25 1.7 25 0 25 C0 16.75 0 8.5 0 0 Z " fill="#18C246" transform="translate(548,581)"/>
<path d="M0 0 C2.475 0.495 2.475 0.495 5 1 C5.33 0.67 5.66 0.34 6 0 C10.23314767 -0.23961213 13.36736489 -0.32488647 17 2 C17.99 1.34 18.98 0.68 20 0 C23.4375 -0.4375 23.4375 -0.4375 27 0 C30.01119309 2.82465901 30.93548745 4.41358092 31.390625 8.55078125 C31.32101562 10.41283203 31.32101562 10.41283203 31.25 12.3125 C31.21390625 13.56675781 31.1778125 14.82101562 31.140625 16.11328125 C31.07101562 17.54220703 31.07101562 17.54220703 31 19 C29.68 19 28.36 19 27 19 C26.95101562 18.08476563 26.90203125 17.16953125 26.8515625 16.2265625 C26.77679687 15.03804687 26.70203125 13.84953125 26.625 12.625 C26.55539062 11.44164062 26.48578125 10.25828125 26.4140625 9.0390625 C26.29782654 5.89437681 26.29782654 5.89437681 24 4 C20.69316534 4.28983269 20.69316534 4.28983269 18 6 C17.76518307 8.18292774 17.58636677 10.37203174 17.4375 12.5625 C17.35371094 13.76003906 17.26992188 14.95757813 17.18359375 16.19140625 C17.09271484 17.58166016 17.09271484 17.58166016 17 19 C15.68 19 14.36 19 13 19 C12.67 14.38 12.34 9.76 12 5 C7.39467611 3.54685336 7.39467611 3.54685336 5 5 C4.52998967 8.27555608 4.52998967 8.27555608 4.375 12.0625 C4.30023437 13.35285156 4.22546875 14.64320313 4.1484375 15.97265625 C4.09945312 16.97167969 4.05046875 17.97070312 4 19 C2.68 19 1.36 19 0 19 C0 12.73 0 6.46 0 0 Z " fill="#19BF40" transform="translate(743,587)"/>
<path d="M0 0 C9.765625 -0.48828125 9.765625 -0.48828125 13 0 C15.89374723 2.78622512 16.97976871 4.0086668 17.0625 8.0625 C15.70651989 11.81138619 14.46460151 13.04174697 11 15 C7.1875 15.25 7.1875 15.25 4 15 C4 17.97 4 20.94 4 24 C2.68 24 1.36 24 0 24 C0 16.08 0 8.16 0 0 Z " fill="#11BD38" transform="translate(701,582)"/>
<path d="M0 0 C4.04224862 0.34385858 6.32851887 1.46779502 9 4.625 C9.33 6.935 9.66 9.245 10 11.625 C5.05 11.625 0.1 11.625 -5 11.625 C-4.01 12.945 -3.02 14.265 -2 15.625 C0.58462162 16.04217279 0.58462162 16.04217279 3 15.625 C3.33 15.295 3.66 14.965 4 14.625 C5.66617115 14.58436168 7.33388095 14.582279 9 14.625 C7.25 18.5 7.25 18.5 5 19.625 C1.9173662 20.10344415 -0.92434762 20.17649629 -4 19.625 C-7.5994734 16.61319573 -8.80084148 14.74028769 -9.625 10.125 C-8.61134075 4.44850822 -6.06474005 0.33310125 0 0 Z " fill="#25C654" transform="translate(1004,586.375)"/>
<path d="M0 0 C3.23072851 0.75057329 4.80286562 1.9310855 6.93359375 4.44921875 C7.26359375 6.75921875 7.59359375 9.06921875 7.93359375 11.44921875 C2.98359375 11.44921875 -1.96640625 11.44921875 -7.06640625 11.44921875 C-6.07640625 12.76921875 -5.08640625 14.08921875 -4.06640625 15.44921875 C-1.48178463 15.86639154 -1.48178463 15.86639154 0.93359375 15.44921875 C1.26359375 15.11921875 1.59359375 14.78921875 1.93359375 14.44921875 C3.5997649 14.40858043 5.2674747 14.40649775 6.93359375 14.44921875 C5.18359375 18.32421875 5.18359375 18.32421875 2.93359375 19.44921875 C-1.26381871 19.94350863 -4.84801636 20.14979294 -8.56640625 18.01171875 C-10.77621568 14.23662764 -11.48847763 10.81313535 -11.06640625 6.44921875 C-8.96788058 1.29733823 -5.33320687 -0.45367544 0 0 Z " fill="#21C44F" transform="translate(731.06640625,586.55078125)"/>
<path d="M0 0 C2.4375 1.5625 2.4375 1.5625 4 4 C4.75 7.75 4.75 7.75 5 11 C0.38 11 -4.24 11 -9 11 C-8.34 12.32 -7.68 13.64 -7 15 C-1.555 14.505 -1.555 14.505 4 14 C2 18 2 18 0 19 C-4.40478623 19.36104805 -6.97779342 19.46851135 -11 17.625 C-13.64139509 14.15816894 -13.71689021 11.69959672 -13.4765625 7.41796875 C-13 5 -13 5 -11 1.875 C-6.83594076 -0.72753703 -4.86097528 -0.69442504 0 0 Z " fill="#17C141" transform="translate(1252,587)"/>
<path d="M0 0 C5.68421053 3.05263158 5.68421053 3.05263158 7 7 C5.35 7 3.7 7 2 7 C2 6.34 2 5.68 2 5 C-1.05290263 4.70645167 -3.95457539 4.58590612 -7 5 C-10.10507227 7.57493798 -10.86956835 9.08697847 -11.4375 13.0625 C-10.83272186 17.16278247 -10.83272186 17.16278247 -8 20 C-4.95557888 20.44606903 -2.03930135 20.49597707 1 20 C1.66 19.34 2.32 18.68 3 18 C4.32 18 5.64 18 7 18 C6.70488433 20.85278483 6.18767059 21.83578823 4 23.75 C-0.58387112 25.6599463 -5.44391358 25.98131289 -10.13671875 24.1796875 C-13.22122803 22.2268116 -14.68986292 19.3020802 -16 16 C-16.60736763 11.67250563 -16.3304379 9.63639891 -14.3125 5.75 C-10.05820349 0.69083658 -6.64730633 -0.81633587 0 0 Z " fill="#10BD38" transform="translate(985,581)"/>
<path d="M0 0 C1.32 0 2.64 0 4 0 C4.33 4.62 4.66 9.24 5 14 C6.3303125 12.2675 6.3303125 12.2675 7.6875 10.5 C10.6008348 7.06074253 10.6008348 7.06074253 13.875 6.5625 C14.57625 6.706875 15.2775 6.85125 16 7 C13.32876712 11.70645793 13.32876712 11.70645793 11.25 13.5625 C10.8375 14.036875 10.425 14.51125 10 15 C10.42206288 18.39796388 11.80186581 20.24887281 14.0625 22.75 C14.61035156 23.36359375 15.15820312 23.9771875 15.72265625 24.609375 C16.14417969 25.06828125 16.56570313 25.5271875 17 26 C14.3125 26.375 14.3125 26.375 11 26 C8.83295905 24.18573316 7.61874997 22.38051466 6 20 C6 19.34 6 18.68 6 18 C5.34 18 4.68 18 4 18 C4 20.64 4 23.28 4 26 C2.68 26 1.36 26 0 26 C0 17.42 0 8.84 0 0 Z " fill="#18C043" transform="translate(1185,580)"/>
<path d="M0 0 C8 0 8 0 10.4375 1.5625 C12.51858903 4.80899889 12.93249957 7.15247539 13 11 C11.86349056 13.37633793 10.85558971 15.14441029 9 17 C5.99668982 17.14193337 3.00782866 17.04236378 0 17 C0 11.39 0 5.78 0 0 Z " fill="#F4FAF7" transform="translate(1219,585)"/>
<path d="M0 0 C1.65 0 3.3 0 5 0 C5.33 4.62 5.66 9.24 6 14 C10.60532389 15.45314664 10.60532389 15.45314664 13 14 C13.47001033 10.72444392 13.47001033 10.72444392 13.625 6.9375 C13.69976563 5.64714844 13.77453125 4.35679687 13.8515625 3.02734375 C13.90054688 2.02832031 13.94953125 1.02929688 14 0 C15.32 0 16.64 0 18 0 C18 6.27 18 12.54 18 19 C16.35 18.67 14.7 18.34 13 18 C12.67 18.33 12.34 18.66 12 19 C4.69565217 19.47124825 4.69565217 19.47124825 2.0625 17.6875 C-0.28701311 13.95592036 -0.10492895 10.59782357 -0.0625 6.3125 C-0.05347656 5.13300781 -0.04445313 3.95351563 -0.03515625 2.73828125 C-0.02355469 1.83464844 -0.01195312 0.93101562 0 0 Z " fill="#13BE3C" transform="translate(870,587)"/>
<path d="M0 0 C2.475 0.495 2.475 0.495 5 1 C5.66 0.67 6.32 0.34 7 0 C10.375 -0.375 10.375 -0.375 14 0 C17.01734467 2.82009776 17.93545447 4.41328112 18.390625 8.55078125 C18.32101562 10.41283203 18.32101562 10.41283203 18.25 12.3125 C18.21390625 13.56675781 18.1778125 14.82101562 18.140625 16.11328125 C18.07101562 17.54220703 18.07101562 17.54220703 18 19 C16.68 19 15.36 19 14 19 C13.95101563 18.08476563 13.90203125 17.16953125 13.8515625 16.2265625 C13.73941406 14.44378906 13.73941406 14.44378906 13.625 12.625 C13.55539062 11.44164062 13.48578125 10.25828125 13.4140625 9.0390625 C13.29782654 5.89437681 13.29782654 5.89437681 11 4 C7.69316534 4.28983269 7.69316534 4.28983269 5 6 C4.76518307 8.18292774 4.58636677 10.37203174 4.4375 12.5625 C4.31181641 14.35880859 4.31181641 14.35880859 4.18359375 16.19140625 C4.12300781 17.11824219 4.06242187 18.04507813 4 19 C2.68 19 1.36 19 0 19 C0 12.73 0 6.46 0 0 Z " fill="#13BE39" transform="translate(1127,587)"/>
<path d="M0 0 C2.475 0.495 2.475 0.495 5 1 C5.66 0.67 6.32 0.34 7 0 C10.375 -0.375 10.375 -0.375 14 0 C17.01734467 2.82009776 17.93545447 4.41328112 18.390625 8.55078125 C18.32101562 10.41283203 18.32101562 10.41283203 18.25 12.3125 C18.21390625 13.56675781 18.1778125 14.82101562 18.140625 16.11328125 C18.07101562 17.54220703 18.07101562 17.54220703 18 19 C16.68 19 15.36 19 14 19 C13.95101562 18.08476563 13.90203125 17.16953125 13.8515625 16.2265625 C13.73941406 14.44378906 13.73941406 14.44378906 13.625 12.625 C13.55539062 11.44164062 13.48578125 10.25828125 13.4140625 9.0390625 C13.29782654 5.89437681 13.29782654 5.89437681 11 4 C8.41645782 3.83312552 8.41645782 3.83312552 6 4 C4.58365167 6.83269666 4.6536995 9.47466438 4.4375 12.625 C4.35371094 13.81351563 4.26992188 15.00203125 4.18359375 16.2265625 C4.12300781 17.14179687 4.06242188 18.05703125 4 19 C2.68 19 1.36 19 0 19 C0 12.73 0 6.46 0 0 Z " fill="#07BA31" transform="translate(825,587)"/>
<path d="M0 0 C1.32 0 2.64 0 4 0 C4.33 0.66 4.66 1.32 5 2 C5.66 1.34 6.32 0.68 7 0 C10.375 -0.4375 10.375 -0.4375 14 0 C17.01489002 2.82313023 17.93536181 4.41243886 18.390625 8.55078125 C18.32101562 10.41283203 18.32101562 10.41283203 18.25 12.3125 C18.21390625 13.56675781 18.1778125 14.82101562 18.140625 16.11328125 C18.07101562 17.54220703 18.07101562 17.54220703 18 19 C16.68 19 15.36 19 14 19 C13.67 14.05 13.34 9.1 13 4 C11.02 4 9.04 4 7 4 C4.22957891 6.77042109 4.60203894 8.76533805 4.375 12.625 C4.30023437 13.81351563 4.22546875 15.00203125 4.1484375 16.2265625 C4.09945312 17.14179687 4.05046875 18.05703125 4 19 C2.68 19 1.36 19 0 19 C0 12.73 0 6.46 0 0 Z " fill="#10BD39" transform="translate(893,587)"/>
<path d="M0 0 C2.475 0.495 2.475 0.495 5 1 C5.33 0.67 5.66 0.34 6 0 C11.79588336 -0.46740995 11.79588336 -0.46740995 14 0 C16.79012193 2.45306022 16.99504543 3.93790277 17.29296875 7.671875 C17.27316751 9.03156035 17.23759202 10.3910934 17.1875 11.75 C17.16719727 12.79607422 17.16719727 12.79607422 17.14648438 13.86328125 C17.1112945 15.57585541 17.05749155 17.28802941 17 19 C15.68 19 14.36 19 13 19 C12.93941406 18.00097656 12.87882813 17.00195312 12.81640625 15.97265625 C12.69072266 14.03712891 12.69072266 14.03712891 12.5625 12.0625 C12.48128906 10.77472656 12.40007813 9.48695313 12.31640625 8.16015625 C12.35080812 5.13976043 12.35080812 5.13976043 11 4 C8.5 3.83333333 8.5 3.83333333 6 4 C4.05909174 5.94090826 4.60080565 9.47293902 4.4375 12.0625 C4.35371094 13.35285156 4.26992188 14.64320313 4.18359375 15.97265625 C4.12300781 16.97167969 4.06242188 17.97070312 4 19 C2.68 19 1.36 19 0 19 C0 12.73 0 6.46 0 0 Z " fill="#1BC041" transform="translate(939,587)"/>
<path d="M0 0 C1.32 0 2.64 0 4 0 C4.06058594 0.99902344 4.12117188 1.99804688 4.18359375 3.02734375 C4.26738281 4.31769531 4.35117188 5.60804688 4.4375 6.9375 C4.51871094 8.22527344 4.59992188 9.51304687 4.68359375 10.83984375 C4.64919188 13.86023957 4.64919188 13.86023957 6 15 C8.5 15.16666667 8.5 15.16666667 11 15 C12.94090826 13.05909174 12.39919435 9.52706098 12.5625 6.9375 C12.64628906 5.64714844 12.73007813 4.35679687 12.81640625 3.02734375 C12.87699219 2.02832031 12.93757813 1.02929688 13 0 C14.32 0 15.64 0 17 0 C17 6.27 17 12.54 17 19 C15.35 18.67 13.7 18.34 12 18 C11.67 18.33 11.34 18.66 11 19 C4.83861562 19.58126268 4.83861562 19.58126268 1.78515625 17.46484375 C-0.63924812 14.11736201 -0.4446852 11.21109507 -0.25 7.25 C-0.23195313 6.55261719 -0.21390625 5.85523438 -0.1953125 5.13671875 C-0.14838554 3.42388461 -0.07664605 1.71176176 0 0 Z " fill="#16BD3A" transform="translate(1105,587)"/>
<path d="M0 0 C1.32 0 2.64 0 4 0 C4.06058594 0.99902344 4.12117188 1.99804688 4.18359375 3.02734375 C4.26738281 4.31769531 4.35117188 5.60804688 4.4375 6.9375 C4.51871094 8.22527344 4.59992188 9.51304687 4.68359375 10.83984375 C4.64919188 13.86023957 4.64919188 13.86023957 6 15 C8.5 15.16666667 8.5 15.16666667 11 15 C12.94090826 13.05909174 12.39919435 9.52706098 12.5625 6.9375 C12.64628906 5.64714844 12.73007813 4.35679687 12.81640625 3.02734375 C12.87699219 2.02832031 12.93757813 1.02929688 13 0 C14.32 0 15.64 0 17 0 C17 6.27 17 12.54 17 19 C16.01 19 15.02 19 14 19 C13.67 18.34 13.34 17.68 13 17 C12.34 17.66 11.68 18.32 11 19 C7.25355696 19.41627145 4.94222875 19.65589775 1.7890625 17.4609375 C-0.64211829 14.11673685 -0.44470781 11.21155497 -0.25 7.25 C-0.23195313 6.55261719 -0.21390625 5.85523438 -0.1953125 5.13671875 C-0.14838554 3.42388461 -0.07664605 1.71176176 0 0 Z " fill="#14BF3F" transform="translate(1163,587)"/>
<path d="M0 0 C2.5 1.3125 2.5 1.3125 4 3 C4 3.99 4 4.98 4 6 C2.68 6 1.36 6 0 6 C-0.33 5.34 -0.66 4.68 -1 4 C-2.65 4 -4.3 4 -6 4 C-6.33 4.99 -6.66 5.98 -7 7 C-6.37351562 7.12117187 -5.74703125 7.24234375 -5.1015625 7.3671875 C-4.28429687 7.53476562 -3.46703125 7.70234375 -2.625 7.875 C-1.81289063 8.03742187 -1.00078125 8.19984375 -0.1640625 8.3671875 C2 9 2 9 4 11 C4.35954817 13.80447574 4.49804138 15.34170556 2.76171875 17.63671875 C0.53910346 19.3566583 -0.71478049 19.4028522 -3.5 19.375 C-4.2734375 19.38273438 -5.046875 19.39046875 -5.84375 19.3984375 C-8.50414788 18.90684224 -9.41331254 18.16643864 -11 16 C-11 15.01 -11 14.02 -11 13 C-9.68 13 -8.36 13 -7 13 C-6.67 13.66 -6.34 14.32 -6 15 C-4.35 15 -2.7 15 -1 15 C-0.67 14.01 -0.34 13.02 0 12 C-0.62648438 11.87882813 -1.25296875 11.75765625 -1.8984375 11.6328125 C-3.12433594 11.38144531 -3.12433594 11.38144531 -4.375 11.125 C-5.18710937 10.96257813 -5.99921875 10.80015625 -6.8359375 10.6328125 C-9 10 -9 10 -11 8 C-11.35131571 5.25973747 -11.34419875 3.62386024 -10 1.1875 C-6.81663505 -0.70262294 -3.55441854 -0.53638107 0 0 Z " fill="#13C03E" transform="translate(683,587)"/>
<path d="M0 0 C2.5 1.875 2.5 1.875 4 4 C4 4.66 4 5.32 4 6 C2.68 6 1.36 6 0 6 C-0.33 5.34 -0.66 4.68 -1 4 C-2.65 4 -4.3 4 -6 4 C-6.33 4.99 -6.66 5.98 -7 7 C-3.7 7.99 -0.4 8.98 3 10 C3.6875 12.8125 3.6875 12.8125 4 16 C2.43358384 18.18890076 1.50663009 18.90638357 -1.15625 19.3984375 C-1.9296875 19.39070312 -2.703125 19.38296875 -3.5 19.375 C-4.2734375 19.38273438 -5.046875 19.39046875 -5.84375 19.3984375 C-8.50414788 18.90684224 -9.41331254 18.16643864 -11 16 C-11 15.01 -11 14.02 -11 13 C-9.68 13 -8.36 13 -7 13 C-6.67 13.66 -6.34 14.32 -6 15 C-4.35 15 -2.7 15 -1 15 C-1 14.34 -1 13.68 -1 13 C-1.63808594 12.72285156 -2.27617188 12.44570313 -2.93359375 12.16015625 C-3.75988281 11.79792969 -4.58617187 11.43570313 -5.4375 11.0625 C-6.26121094 10.70285156 -7.08492187 10.34320312 -7.93359375 9.97265625 C-10 9 -10 9 -11 8 C-11.28417861 5.30030316 -11.32477191 3.58864909 -10 1.1875 C-6.81114432 -0.70588306 -3.55130741 -0.66453036 0 0 Z " fill="#17C041" transform="translate(1088,587)"/>
<path d="M0 0 C2.5 1.875 2.5 1.875 4 4 C4 4.66 4 5.32 4 6 C2.68 6 1.36 6 0 6 C-0.33 5.34 -0.66 4.68 -1 4 C-2.65 4 -4.3 4 -6 4 C-6.33 4.99 -6.66 5.98 -7 7 C-3.7 7.99 -0.4 8.98 3 10 C3.6875 12.8125 3.6875 12.8125 4 16 C2.43358384 18.18890076 1.50663009 18.90638357 -1.15625 19.3984375 C-1.9296875 19.39070312 -2.703125 19.38296875 -3.5 19.375 C-4.2734375 19.38273438 -5.046875 19.39046875 -5.84375 19.3984375 C-8.50414788 18.90684224 -9.41331254 18.16643864 -11 16 C-11 15.01 -11 14.02 -11 13 C-9.68 13 -8.36 13 -7 13 C-6.67 13.66 -6.34 14.32 -6 15 C-4.35 15 -2.7 15 -1 15 C-1.33 14.01 -1.66 13.02 -2 12 C-3.84609289 11.20234326 -3.84609289 11.20234326 -6 10.6875 C-8.17578125 9.94921875 -8.17578125 9.94921875 -10 9 C-11.1875 6 -11.1875 6 -11 3 C-8.89732722 -1.20534556 -4.12000597 -0.77094679 0 0 Z " fill="#11BF3A" transform="translate(1271,587)"/>
<path d="M0 0 C0.99 0 1.98 0 3 0 C3 1.65 3 3.3 3 5 C4.65 5 6.3 5 8 5 C8 6.32 8 7.64 8 9 C6.68 9 5.36 9 4 9 C4 12.63 4 16.26 4 20 C5.32 20 6.64 20 8 20 C8 21.32 8 22.64 8 24 C4.625 23.6875 4.625 23.6875 1 23 C-1.28062828 19.57905758 -1.21925007 18.31812778 -1.125 14.3125 C-1.10695313 13.31863281 -1.08890625 12.32476563 -1.0703125 11.30078125 C-1.04710937 10.54152344 -1.02390625 9.78226563 -1 9 C-1.66 9 -2.32 9 -3 9 C-3 7.68 -3 6.36 -3 5 C-2.01 5 -1.02 5 0 5 C0 3.35 0 1.7 0 0 Z " fill="#5AD480" transform="translate(638,582)"/>
<path d="M0 0 C3.01734467 2.82009776 3.93545447 4.41328112 4.390625 8.55078125 C4.32101562 10.41283203 4.32101562 10.41283203 4.25 12.3125 C4.21390625 13.56675781 4.1778125 14.82101562 4.140625 16.11328125 C4.07101562 17.54220703 4.07101562 17.54220703 4 19 C2.68 19 1.36 19 0 19 C-0.04898438 18.08476563 -0.09796875 17.16953125 -0.1484375 16.2265625 C-0.26058594 14.44378906 -0.26058594 14.44378906 -0.375 12.625 C-0.44460938 11.44164062 -0.51421875 10.25828125 -0.5859375 9.0390625 C-0.70217346 5.89437681 -0.70217346 5.89437681 -3 4 C-6.30683466 4.28983269 -6.30683466 4.28983269 -9 6 C-9.23481693 8.18292774 -9.41363323 10.37203174 -9.5625 12.5625 C-9.68818359 14.35880859 -9.68818359 14.35880859 -9.81640625 16.19140625 C-9.87699219 17.11824219 -9.93757812 18.04507813 -10 19 C-10.99 19 -11.98 19 -13 19 C-13.05389087 17.04196493 -13.09274217 15.08351091 -13.125 13.125 C-13.14820313 12.03445313 -13.17140625 10.94390625 -13.1953125 9.8203125 C-13 7 -13 7 -11 5 C-10.505 3.9790625 -10.505 3.9790625 -10 2.9375 C-7.90263801 -1.12613886 -4.09774877 -0.42390505 0 0 Z " fill="#09BA2C" transform="translate(770,587)"/>
<path d="M0 0 C1.32 0 2.64 0 4 0 C4 1.65 4 3.3 4 5 C5.32 5 6.64 5 8 5 C8 6.32 8 7.64 8 9 C6.68 9 5.36 9 4 9 C4.33 12.63 4.66 16.26 5 20 C5.99 20.33 6.98 20.66 8 21 C8 21.99 8 22.98 8 24 C1.125 23.125 1.125 23.125 0 22 C-0.07271741 19.64686445 -0.08370868 17.29166332 -0.0625 14.9375 C-0.05347656 13.64714844 -0.04445313 12.35679687 -0.03515625 11.02734375 C-0.02355469 10.02832031 -0.01195312 9.02929688 0 8 C-0.99 8 -1.98 8 -3 8 C-3 7.01 -3 6.02 -3 5 C-2.01 5 -1.02 5 0 5 C0 3.35 0 1.7 0 0 Z " fill="#27C44E" transform="translate(1151,582)"/>
<path d="M0 0 C2 2 2 2 2.3125 5.4375 C2 9 2 9 0.8125 10.9375 C-1.66049093 12.38718434 -3.17884512 12.42317323 -6 12 C-7.8125 10.9375 -7.8125 10.9375 -9 9 C-9.4375 5.5 -9.4375 5.5 -9 2 C-6.17266771 -1.35091234 -4.03066587 -1.37891201 0 0 Z " fill="#EFF8F2" transform="translate(1291,591)"/>
<path d="M0 0 C2.31361802 3.47042703 2.51020728 4.91834173 2 9 C0.3125 10.9375 0.3125 10.9375 -2 12 C-5.37036311 11.75925978 -6.58798021 11.41201979 -9 9 C-9.54782609 2.97391304 -9.54782609 2.97391304 -7.875 0 C-4.98192987 -1.54297074 -3.06359725 -0.91256088 0 0 Z " fill="#F0F9F3" transform="translate(814,591)"/>
<path d="M0 0 C5.75 0.75 5.75 0.75 8 3 C8.375 6.4375 8.375 6.4375 8 10 C6.3125 12 6.3125 12 4 13 C0.62963689 12.75925978 -0.58798021 12.41201979 -3 10 C-3.38080215 6.49662019 -3.40245078 4.63721374 -1.5 1.625 C-1.005 1.08875 -0.51 0.5525 0 0 Z " fill="#F0F9F3" transform="translate(656,590)"/>
<path d="M0 0 C2 2 2 2 2.375 5.4375 C2 9 2 9 0.3125 11 C-2.60879364 12.26326211 -4.01798647 12.02016252 -7 11 C-9 9 -9 9 -9.375 5.5625 C-9 2 -9 2 -7.3125 0 C-4.39120636 -1.26326211 -2.98201353 -1.02016252 0 0 Z " fill="#F0F9F3" transform="translate(928,591)"/>
<path d="M0 0 C2 3 2 3 1.8125 6.5625 C1 10 1 10 -2 12 C-5.32240324 11.6758631 -6.60776303 11.39223697 -9 9 C-9.54782609 2.97391304 -9.54782609 2.97391304 -7.875 0 C-4.98192987 -1.54297074 -3.06359725 -0.91256088 0 0 Z " fill="#F1F9F3" transform="translate(792,591)"/>
<path d="M0 0 C2 3 2 3 1.8125 6.5625 C1 10 1 10 -2 12 C-5.32240324 11.6758631 -6.60776303 11.39223697 -9 9 C-9.54782609 2.97391304 -9.54782609 2.97391304 -7.875 0 C-4.98192987 -1.54297074 -3.06359725 -0.91256088 0 0 Z " fill="#EEF8F1" transform="translate(1067,591)"/>
<path d="M0 0 C2.4375 0.75 2.4375 0.75 4.4375 2.75 C4.98532609 8.77608696 4.98532609 8.77608696 3.3125 11.75 C0.41942987 13.29297074 -1.49890275 12.66256088 -4.5625 11.75 C-6.5625 8.75 -6.5625 8.75 -6.375 5.1875 C-5.4068221 1.09136272 -4.38870004 -0.42816586 0 0 Z " fill="#F1F9F3" transform="translate(1040.5625,590.25)"/>
<path d="M0 0 C2 3 2 3 1.8125 6.5625 C1 10 1 10 -2 12 C-5.32240324 11.6758631 -6.60776303 11.39223697 -9 9 C-9.54782609 2.97391304 -9.54782609 2.97391304 -7.875 0 C-4.98192987 -1.54297074 -3.06359725 -0.91256088 0 0 Z " fill="#EFF9F3" transform="translate(860,591)"/>
<path d="M0 0 C1.7325 0.1546875 1.7325 0.1546875 3.5 0.3125 C5.5 3.3125 5.5 3.3125 5.3125 6.875 C4.5 10.3125 4.5 10.3125 1.5 12.3125 C-1.82240324 11.9883631 -3.10776303 11.70473697 -5.5 9.3125 C-5.75 5.8125 -5.75 5.8125 -5.5 2.3125 C-3.5 0.3125 -3.5 0.3125 0 0 Z " fill="#F1F9F5" transform="translate(600.5,590.6875)"/>
<path d="M0 0 C1.32 0 2.64 0 4 0 C4.33 0.66 4.66 1.32 5 2 C5.66 1.34 6.32 0.68 7 0 C8.32 0 9.64 0 11 0 C11 1.32 11 2.64 11 4 C9.7934375 4.4640625 9.7934375 4.4640625 8.5625 4.9375 C6.10919595 5.76335345 6.10919595 5.76335345 5 7 C4.76572222 9.01594582 4.58663876 11.038474 4.4375 13.0625 C4.35371094 14.16722656 4.26992188 15.27195312 4.18359375 16.41015625 C4.12300781 17.26480469 4.06242188 18.11945312 4 19 C2.68 19 1.36 19 0 19 C0 12.73 0 6.46 0 0 Z " fill="#1CC045" transform="translate(1017,587)"/>
<path d="M0 0 C1.32 0 2.64 0 4 0 C4.33 0.66 4.66 1.32 5 2 C5.66 1.34 6.32 0.68 7 0 C7.99 0 8.98 0 10 0 C10 1.32 10 2.64 10 4 C9.19175781 4.44988281 8.38351562 4.89976562 7.55078125 5.36328125 C4.69779356 6.77932041 4.69779356 6.77932041 4.29296875 9.91796875 C4.25816406 10.99691406 4.22335937 12.07585938 4.1875 13.1875 C4.13980469 14.27417969 4.09210937 15.36085938 4.04296875 16.48046875 C4.02878906 17.31191406 4.01460937 18.14335938 4 19 C2.68 19 1.36 19 0 19 C0 12.73 0 6.46 0 0 Z " fill="#13BB3A" transform="translate(569,587)"/>
<path d="M0 0 C2.63409871 2.16131176 3.85103073 3.67881352 4.23828125 7.11328125 C4.24874565 9.07709981 4.1328372 11.04065135 4 13 C3.67 13 3.34 13 3 13 C2.34 10.36 1.68 7.72 1 5 C-1.90073181 4.32198966 -1.90073181 4.32198966 -5 4 C-7.36401384 5.92872076 -7.36401384 5.92872076 -7.25 9.375 C-6.99928749 13.53895845 -6.99928749 13.53895845 -5 17 C-2.94999129 17.80528889 -2.94999129 17.80528889 -1 18 C-7.37759336 17.5186722 -7.37759336 17.5186722 -9.875 15.4375 C-11.47305969 11.97503735 -12.36447033 8.83453164 -12 5 C-8.73005561 0.09508342 -5.78115215 -1.05111857 0 0 Z " fill="#15BF42" transform="translate(813,587)"/>
<path d="M0 0 C2.475 0.495 2.475 0.495 5 1 C7.72502965 0.62277985 7.72502965 0.62277985 10 0 C10 1.32 10 2.64 10 4 C8.35 4.66 6.7 5.32 5 6 C4.67 10.29 4.34 14.58 4 19 C2.68 19 1.36 19 0 19 C0 12.73 0 6.46 0 0 Z " fill="#18BF3F" transform="translate(614,587)"/>
<path d="M0 0 C4.29 0 8.58 0 13 0 C12.67 0.66 12.34 1.32 12 2 C7.545 2.495 7.545 2.495 3 3 C2.67 12.24 2.34 21.48 2 31 C6.62 31 11.24 31 16 31 C16 31.33 16 31.66 16 32 C10.72 32 5.44 32 0 32 C0 21.44 0 10.88 0 0 Z " fill="#D9E2EA" transform="translate(717,451)"/>
<path d="M0 0 C0.66 0 1.32 0 2 0 C2.33 0.99 2.66 1.98 3 3 C7.29 3.33 11.58 3.66 16 4 C16 4.33 16 4.66 16 5 C11.71 5 7.42 5 3 5 C3.66 6.32 4.32 7.64 5 9 C10.445 8.505 10.445 8.505 16 8 C14 12 14 12 12 13 C7.53045709 13.36635598 5.00521872 13.47183736 0.9375 11.5625 C-1.32578702 8.56912039 -1.19762991 7.84643372 -0.8125 4.25 C-0.56720908 2.82868811 -0.3042656 1.40986438 0 0 Z " fill="#1FC44D" transform="translate(1240,593)"/>
<path d="M0 0 C1.65 0 3.3 0 5 0 C5.33 5.61 5.66 11.22 6 17 C4.68 17 3.36 17 2 17 C-0.25998595 13.40537669 -0.20868087 10.43404325 -0.125 6.25 C-0.09792969 4.49429688 -0.09792969 4.49429688 -0.0703125 2.703125 C-0.04710937 1.81109375 -0.02390625 0.9190625 0 0 Z " fill="#33C656" transform="translate(870,587)"/>
<path d="M0 0 C3.96 0 7.92 0 12 0 C12.33 0.66 12.66 1.32 13 2 C9.37 2 5.74 2 2 2 C2.33 6.29 2.66 10.58 3 15 C3.33 15 3.66 15 4 15 C4 18.3 4 21.6 4 25 C2.68 25 1.36 25 0 25 C0 16.75 0 8.5 0 0 Z " fill="#31C251" transform="translate(548,581)"/>
<path d="M0 0 C-0.99 0.33 -1.98 0.66 -3 1 C-3 1.66 -3 2.32 -3 3 C-3.99 3.66 -4.98 4.32 -6 5 C-6.37847861 9.08756901 -6.58265332 12.64255069 -4 16 C-1.96071773 16.61932526 -1.96071773 16.61932526 0 17 C-1.45945288 16.91291331 -2.91765868 16.80473093 -4.375 16.6875 C-5.18710938 16.62949219 -5.99921875 16.57148437 -6.8359375 16.51171875 C-9 16 -9 16 -11 13 C-11.23046875 10.80859375 -11.23046875 10.80859375 -11.1875 8.4375 C-11.18105469 7.65246094 -11.17460938 6.86742187 -11.16796875 6.05859375 C-11 4 -11 4 -10 2 C-6.54670274 0.27335137 -3.84169158 -0.21952523 0 0 Z " fill="#18C145" transform="translate(1289,588)"/>
<path d="M0 0 C0.33 0 0.66 0 1 0 C1 5.61 1 11.22 1 17 C7.28486601 16.83412496 7.28486601 16.83412496 12.5625 13.9375 C13.036875 13.298125 13.51125 12.65875 14 12 C14.99 12.66 15.98 13.32 17 14 C12.57634961 19.77532134 12.57634961 19.77532134 10.15625 20.71875 C7.58610414 21.05398642 5.32237216 20.86712302 2.75 20.5625 C1.85796875 20.46066406 0.9659375 20.35882812 0.046875 20.25390625 C-0.62859375 20.17011719 -1.3040625 20.08632813 -2 20 C-1.67 19.34 -1.34 18.68 -1 18 C-0.84995027 16.6265365 -0.75161994 15.2471474 -0.68359375 13.8671875 C-0.64169922 13.06152344 -0.59980469 12.25585938 -0.55664062 11.42578125 C-0.51732422 10.58402344 -0.47800781 9.74226562 -0.4375 8.875 C-0.39431641 8.02550781 -0.35113281 7.17601562 -0.30664062 6.30078125 C-0.20045764 4.20071777 -0.09971503 2.10038052 0 0 Z " fill="#3CCA67" transform="translate(1218,585)"/>
<path d="M0 0 C1.32 0 2.64 0 4 0 C4 6.27 4 12.54 4 19 C2.68 19 1.36 19 0 19 C0 12.73 0 6.46 0 0 Z " fill="#20C046" transform="translate(627,587)"/>
<path d="M0 0 C1.32 0 2.64 0 4 0 C4 6.27 4 12.54 4 19 C2.68 19 1.36 19 0 19 C0 12.73 0 6.46 0 0 Z " fill="#1EBE40" transform="translate(583,587)"/>
<path d="M0 0 C1.32 0 2.64 0 4 0 C4 6.27 4 12.54 4 19 C3.01 19 2.02 19 1 19 C-1.16205669 14.68413875 -1.06986614 11.44756775 -0.625 6.6875 C-0.51414062 5.43324219 -0.40328125 4.17898438 -0.2890625 2.88671875 C-0.14597656 1.45779297 -0.14597656 1.45779297 0 0 Z " fill="#21C146" transform="translate(1176,587)"/>
<path d="M0 0 C0.66 0 1.32 0 2 0 C2 6.93 2 13.86 2 21 C-2.78515625 21.34179688 -2.78515625 21.34179688 -7.5703125 21.68359375 C-10.7540478 21.97730965 -13.85510907 22.43124313 -17 23 C-14.22782812 20.22782812 -11.81104194 19.86055786 -8 19 C-5.36 19 -2.72 19 0 19 C0 12.73 0 6.46 0 0 Z " fill="#21427A" transform="translate(834,455)"/>
<path d="M0 0 C0.66 0.33 1.32 0.66 2 1 C1.90460937 1.67546875 1.80921875 2.3509375 1.7109375 3.046875 C1.60007812 3.93890625 1.48921875 4.8309375 1.375 5.75 C1.25898437 6.63171875 1.14296875 7.5134375 1.0234375 8.421875 C0.9976219 11.26159061 1.42519511 12.65907381 3 15 C5.05000871 15.80528889 5.05000871 15.80528889 7 16 C-0.33115611 16.48073155 -0.33115611 16.48073155 -3 14.5625 C-4.49985103 10.71913173 -4.73125911 7.06426117 -4 3 C-2 0.9375 -2 0.9375 0 0 Z " fill="#16BF42" transform="translate(653,589)"/>
<path d="M0 0 C1.32 0 2.64 0 4 0 C4 6.93 4 13.86 4 21 C-0.62 21 -5.24 21 -10 21 C-5.7975546 18.19836974 -2.99895065 18.85510288 2 19 C2 13.39 2 7.78 2 2 C1.01 1.67 0.02 1.34 -1 1 C-0.67 0.67 -0.34 0.34 0 0 Z " fill="#1F4379" transform="translate(1031,455)"/>
<path d="M0 0 C0.66 0.33 1.32 0.66 2 1 C1.34 2.32 0.68 3.64 0 5 C-0.99 5 -1.98 5 -3 5 C-5.54348465 5.34721912 -8.08531834 5.70006922 -10.625 6.07421875 C-13 6 -13 6 -14.8125 4.64453125 C-16 3 -16 3 -16 1 C-14.92878906 1.01160156 -13.85757813 1.02320313 -12.75390625 1.03515625 C-11.35677257 1.04453299 -9.95963701 1.05363331 -8.5625 1.0625 C-7.85544922 1.07087891 -7.14839844 1.07925781 -6.41992188 1.08789062 C-4.61306441 1.09653588 -2.80612397 1.05220011 -1 1 C-0.67 0.67 -0.34 0.34 0 0 Z " fill="#ECF8F2" transform="translate(1015,597)"/>
<path d="M0 0 C1.32 0 2.64 0 4 0 C4.1953125 2.01822917 4.390625 4.03645833 4.5859375 6.0546875 C4.86374749 8.22668245 4.86374749 8.22668245 7 10 C7.680625 10.33 8.36125 10.66 9.0625 11 C11 12 11 12 12 14 C7.79034186 14.41271158 5.64412341 14.42484735 2.0625 12.0625 C-0.70477383 7.95351764 -0.47138774 4.80815498 0 0 Z " fill="#0EBB36" transform="translate(591,592)"/>
<path d="M0 0 C3.375 -0.125 3.375 -0.125 7 0 C7.66 0.66 8.32 1.32 9 2 C8.44444444 6.55555556 8.44444444 6.55555556 7 8 C4.66702567 8.04092937 2.33294775 8.04241723 0 8 C0 5.36 0 2.72 0 0 Z " fill="#F0F9F4" transform="translate(705,585)"/>
<path d="M0 0 C0.33 0 0.66 0 1 0 C1 2.31 1 4.62 1 7 C4.12296038 8.85064319 6.37940768 9.29356154 10 9 C10.33 8.67 10.66 8.34 11 8 C12.66617115 7.95936168 14.33388095 7.957279 16 8 C14.25 11.875 14.25 11.875 12 13 C8.94066123 13.41342416 6.0549986 13.46583312 3 13 C0.375 11 0.375 11 -1 8 C-1.01045944 5.17072056 -0.56980866 2.80155927 0 0 Z " fill="#1DC349" transform="translate(722,593)"/>
<path d="M0 0 C2.33294775 -0.04241723 4.66702567 -0.04092937 7 0 C8 1 8 1 8.125 4 C8 7 8 7 7 8 C4.66702567 8.04092937 2.33294775 8.04241723 0 8 C0 5.36 0 2.72 0 0 Z " fill="#F7FAF9" transform="translate(553,585)"/>
<path d="M0 0 C3.5625 0.5 3.5625 0.5 6 2.4375 C8.07288445 6.50035352 8.25267733 10.01384735 7.5625 14.5 C6.03595133 18.26327434 6.03595133 18.26327434 3.5625 19.5 C-2.97083333 19.73333333 -2.97083333 19.73333333 -5.4375 18.5 C-5.1075 17.84 -4.7775 17.18 -4.4375 16.5 C-3.4475 16.5 -2.4575 16.5 -1.4375 16.5 C2.36458934 15.56150767 2.36458934 15.56150767 5.5625 13.5 C5.81253964 10.04178598 5.81253964 10.04178598 5.5625 6.5 C3.04550155 3.98300155 0.98695854 3.39035922 -2.4375 2.5 C-4.7250976 2.77640014 -4.7250976 2.77640014 -6.4375 3.5 C-4.4802047 0.73675957 -3.43360113 0.49943289 0 0 Z " fill="#0AB930" transform="translate(1286.4375,586.5)"/>
<path d="M0 0 C4.875 1.875 4.875 1.875 6 3 C8.5 3.16666667 8.5 3.16666667 11 3 C11.33 2.67 11.66 2.34 12 2 C13.66617115 1.95936168 15.33388095 1.957279 17 2 C15.25 5.875 15.25 5.875 13 7 C8.5899576 7.51932932 5.13897373 7.80561556 1.4375 5.1875 C0 3 0 3 0 0 Z " fill="#11BD34" transform="translate(996,599)"/>
<path d="M0 0 C0.33 1.32 0.66 2.64 1 4 C0.071875 3.9175 -0.85625 3.835 -1.8125 3.75 C-5.03441199 3.65544813 -5.03441199 3.65544813 -6.75 5.75 C-7.89480451 7.81064812 -9.0072367 9.86174058 -10 12 C-10.9274295 9.21771151 -11.70284262 6.88352721 -12 4 C-9.19931797 -1.09214915 -5.1924996 -0.34616664 0 0 Z " fill="#25C752" transform="translate(1066,587)"/>
<path d="M0 0 C4.62 0 9.24 0 14 0 C13.67 1.32 13.34 2.64 13 4 C11.20991533 4.22151549 9.41781838 4.42682213 7.625 4.625 C6.62726563 4.74101563 5.62953125 4.85703125 4.6015625 4.9765625 C3.74304687 4.98429688 2.88453125 4.99203125 2 5 C1.34 4.34 0.68 3.68 0 3 C0 2.01 0 1.02 0 0 Z " fill="#E5F8ED" transform="translate(1243,598)"/>
<path d="M0 0 C3.69212837 -0.3434538 5.60790131 -0.221621 8.875 1.625 C11 4 11 4 11 10 C6.38 10 1.76 10 -3 10 C-3 9.67 -3 9.34 -3 9 C0.63 9 4.26 9 8 9 C6.84434349 6.46115547 6.84434349 6.46115547 5 4 C2.40877257 3.11341534 2.40877257 3.11341534 0 3 C0 2.01 0 1.02 0 0 Z " fill="#0BBC30" transform="translate(1002,587)"/>
<path d="M0 0 C3.69212837 -0.3434538 5.60790131 -0.221621 8.875 1.625 C11 4 11 4 11 10 C6.38 10 1.76 10 -3 10 C-3 9.67 -3 9.34 -3 9 C0.63 9 4.26 9 8 9 C6.84434349 6.46115547 6.84434349 6.46115547 5 4 C2.40877257 3.11341534 2.40877257 3.11341534 0 3 C0 2.01 0 1.02 0 0 Z " fill="#0BBC30" transform="translate(727,587)"/>
<path d="M0 0 C1.875 0.5 1.875 0.5 4 2 C4.98494554 4.65177645 5.45912382 7.20547307 6 10 C7.65 10.33 9.3 10.66 11 11 C11 11.33 11 11.66 11 12 C4.73607748 13.44552058 4.73607748 13.44552058 1.625 11.5625 C-0.65545526 7.96639748 -0.7911988 5.24562432 -1 1 C-0.67 0.67 -0.34 0.34 0 0 Z " fill="#2AC454" transform="translate(1054,593)"/>
<path d="M0 0 C1.65 0 3.3 0 5 0 C5.33 0.99 5.66 1.98 6 3 C6.66 3.165 7.32 3.33 8 3.5 C8.66 3.665 9.32 3.83 10 4 C10.33 4.99 10.66 5.98 11 7 C10.34 7.66 9.68 8.32 9 9 C9 8.34 9 7.68 9 7 C5.7 6.01 2.4 5.02 -1 4 C-0.67 2.68 -0.34 1.36 0 0 Z " fill="#EFF9F3" transform="translate(1265,590)"/>
<path d="M0 0 C0.99 0 1.98 0 3 0 C3 1.65 3 3.3 3 5 C4.65 5 6.3 5 8 5 C8 5.99 8 6.98 8 8 C6.35 8 4.7 8 3 8 C3 11.96 3 15.92 3 20 C2.67 20 2.34 20 2 20 C1.67 15.38 1.34 10.76 1 6 C-0.98 6.99 -0.98 6.99 -3 8 C-3 7.01 -3 6.02 -3 5 C-2.01 5 -1.02 5 0 5 C0 3.35 0 1.7 0 0 Z " fill="#06B828" transform="translate(638,582)"/>
<path d="M0 0 C4.875 1.875 4.875 1.875 6 3 C6.07271741 5.35313555 6.08370868 7.70833668 6.0625 10.0625 C6.05347656 11.35285156 6.04445313 12.64320313 6.03515625 13.97265625 C6.02355469 14.97167969 6.01195312 15.97070312 6 17 C5.01 16.67 4.02 16.34 3 16 C2.92652344 14.64455078 2.92652344 14.64455078 2.8515625 13.26171875 C2.77679687 12.08222656 2.70203125 10.90273438 2.625 9.6875 C2.55539062 8.51574219 2.48578125 7.34398437 2.4140625 6.13671875 C2.21386253 2.84300113 2.21386253 2.84300113 0 0 Z " fill="#20C44E" transform="translate(837,589)"/>
<path d="M0 0 C3.3125 -0.25 3.3125 -0.25 7 0 C8.9375 2 8.9375 2 10 4 C9.01 4 8.02 4 7 4 C7.33 4.33 7.66 4.66 8 5 C8.07258946 7.18639453 8.08373783 9.37500389 8.0625 11.5625 C8.05347656 12.76003906 8.04445313 13.95757813 8.03515625 15.19140625 C8.02355469 16.11824219 8.01195312 17.04507813 8 18 C8.66 18.33 9.32 18.66 10 19 C9.01 19 8.02 19 7 19 C6.95101562 18.08476563 6.90203125 17.16953125 6.8515625 16.2265625 C6.77679687 15.03804687 6.70203125 13.84953125 6.625 12.625 C6.55539062 11.44164062 6.48578125 10.25828125 6.4140625 9.0390625 C6.29782654 5.89437681 6.29782654 5.89437681 4 4 C1.42938689 3.35232207 1.42938689 3.35232207 -1 3 C-0.67 2.01 -0.34 1.02 0 0 Z " fill="#0BBA2B" transform="translate(832,587)"/>
<path d="M0 0 C0.99 0 1.98 0 3 0 C3 1.32 3 2.64 3 4 C-1.07142857 7 -1.07142857 7 -4 7 C-4 10.63 -4 14.26 -4 18 C-4.33 18 -4.66 18 -5 18 C-5 12.39 -5 6.78 -5 1 C-4.01 1.33 -3.02 1.66 -2 2 C-1.34 1.34 -0.68 0.68 0 0 Z " fill="#25C453" transform="translate(576,587)"/>
<path d="M0 0 C1.32 0 2.64 0 4 0 C3.69542509 2.94422416 3.16507321 3.85920226 0.875 5.8125 C-2.79439779 7.32812083 -5.17481546 6.8250398 -9 6 C-9 5.01 -9 4.02 -9 3 C-7.88625 2.87625 -6.7725 2.7525 -5.625 2.625 C-1.96896323 2.3534187 -1.96896323 2.3534187 0 0 Z " fill="#24C34E" transform="translate(988,599)"/>
<path d="M0 0 C2 1 4 2 6 3 C6 7.29 6 11.58 6 16 C5.01 16 4.02 16 3 16 C2.92652344 14.64455078 2.92652344 14.64455078 2.8515625 13.26171875 C2.77679687 12.08222656 2.70203125 10.90273438 2.625 9.6875 C2.55539062 8.51574219 2.48578125 7.34398437 2.4140625 6.13671875 C2.21386253 2.84300113 2.21386253 2.84300113 0 0 Z " fill="#19C34C" transform="translate(768,589)"/>
<path d="M0 0 C0 0.99 0 1.98 0 3 C-2.16947934 3.72315978 -4.36076468 4.38196903 -6.5625 5 C-9.82416864 5.83726246 -9.82416864 5.83726246 -12 7 C-12.33 5.68 -12.66 4.36 -13 3 C-9.21656826 -0.94792877 -5.07874402 -0.29300446 0 0 Z " fill="#26C44F" transform="translate(605,587)"/>
<path d="M0 0 C0.33 0 0.66 0 1 0 C0.25 6.75 0.25 6.75 -2 9 C-4.625 9.125 -4.625 9.125 -7 9 C-6.814375 8.38125 -6.62875 7.7625 -6.4375 7.125 C-5.76313824 4.95839822 -5.76313824 4.95839822 -7 3 C-5.5459375 2.5359375 -5.5459375 2.5359375 -4.0625 2.0625 C-1.15934208 1.30476658 -1.15934208 1.30476658 0 0 Z " fill="#ECF9F1" transform="translate(861,603)"/>
<path d="M0 0 C0.86625 0.12375 1.7325 0.2475 2.625 0.375 C4.4375 2.875 4.4375 2.875 5.625 5.375 C1.995 5.375 -1.635 5.375 -5.375 5.375 C-2.91785714 0.46071429 -2.91785714 0.46071429 0 0 Z " fill="#EAF8F0" transform="translate(1004.375,589.625)"/>
<path d="M0 0 C0.86625 0.12375 1.7325 0.2475 2.625 0.375 C4.4375 2.875 4.4375 2.875 5.625 5.375 C1.995 5.375 -1.635 5.375 -5.375 5.375 C-2.91785714 0.46071429 -2.91785714 0.46071429 0 0 Z " fill="#EEF9F2" transform="translate(729.375,589.625)"/>
<path d="M0 0 C2.625 0.25 2.625 0.25 4.4375 1.625 C5.625 3.25 5.625 3.25 5.625 5.25 C2.325 5.25 -0.975 5.25 -4.375 5.25 C-3.14527027 0.33108108 -3.14527027 0.33108108 0 0 Z " fill="#F1FAF4" transform="translate(1247.375,589.75)"/>
<path d="M0 0 C0.33 0 0.66 0 1 0 C1.09796875 0.62648438 1.1959375 1.25296875 1.296875 1.8984375 C1.44640625 2.71570313 1.5959375 3.53296875 1.75 4.375 C1.88921875 5.18710937 2.0284375 5.99921875 2.171875 6.8359375 C2.82220073 9.15031108 2.82220073 9.15031108 4.953125 10.3359375 C7.00281066 11.23578979 7.00281066 11.23578979 9 10.25 C9.99 9.63125 9.99 9.63125 11 9 C12.33333333 8.33333333 13.66666667 7.66666667 15 7 C14.42655063 9.86724686 14.1385485 10.8614515 12 13 C7.697683 13.56823055 5.6868294 13.46762853 2.0625 11 C-0.70834355 6.96968211 -0.40691598 4.80160858 0 0 Z " fill="#0AB82D" transform="translate(801,593)"/>
<path d="M0 0 C3.21043882 1.38188453 5.04936365 2.92421903 7.25 5.625 C8.03117187 6.57246094 8.03117187 6.57246094 8.828125 7.5390625 C9.40820312 8.26222656 9.40820312 8.26222656 10 9 C7.25 9.3125 7.25 9.3125 4 9 C1.625 6.75 1.625 6.75 0 4 C0 2.68 0 1.36 0 0 Z " fill="#13BD3C" transform="translate(1192,597)"/>
<path d="M0 0 C1.921875 0.6796875 1.921875 0.6796875 4 2 C4.828125 4.3828125 4.828125 4.3828125 5.25 7.125 C5.39953125 8.03507813 5.5490625 8.94515625 5.703125 9.8828125 C5.80109375 10.58148437 5.8990625 11.28015625 6 12 C5.34 12 4.68 12 4 12 C3.67 11.34 3.34 10.68 3 10 C2.01 10 1.02 10 0 10 C-0.19412181 8.52168779 -0.38012131 7.04230684 -0.5625 5.5625 C-0.66691406 4.73878906 -0.77132812 3.91507813 -0.87890625 3.06640625 C-0.91886719 2.38449219 -0.95882812 1.70257812 -1 1 C-0.67 0.67 -0.34 0.34 0 0 Z " fill="#34C759" transform="translate(847,592)"/>
<path d="M0 0 C6.39559286 0.60335782 6.39559286 0.60335782 9 2.3125 C10 4 10 4 9.6875 6.1875 C9.3471875 7.0846875 9.3471875 7.0846875 9 8 C8.34 8 7.68 8 7 8 C6.34 7.01 5.68 6.02 5 5 C1.94570927 3.78715124 1.94570927 3.78715124 -1 3 C-0.67 2.01 -0.34 1.02 0 0 Z " fill="#1DC249" transform="translate(1082,595)"/>
<path d="M0 0 C1.65 0 3.3 0 5 0 C5.33 0.99 5.66 1.98 6 3 C6.66 3 7.32 3 8 3 C8.33 3.99 8.66 4.98 9 6 C1.25 5.125 1.25 5.125 -1 4 C-0.67 2.68 -0.34 1.36 0 0 Z " fill="#EDF9F2" transform="translate(1082,590)"/>
<path d="M0 0 C-0.33 0.99 -0.66 1.98 -1 3 C-2.98248715 3.71706982 -4.98415349 4.38290413 -7 5 C-7.66 5.66 -8.32 6.32 -9 7 C-9.66 6.67 -10.32 6.34 -11 6 C-11 8.31 -11 10.62 -11 13 C-11.33 13 -11.66 13 -12 13 C-12.60356653 5.87791495 -12.60356653 5.87791495 -9.9375 2 C-6.35342568 -0.44022082 -4.25018379 -0.41668469 0 0 Z " fill="#09BB2F" transform="translate(1251,587)"/>
<path d="M0 0 C1.125 1.6875 1.125 1.6875 2 4 C1.125 6.75 1.125 6.75 0 9 C-2.97 9 -5.94 9 -9 9 C-8.67 8.01 -8.34 7.02 -8 6 C-4.4375 4.8125 -4.4375 4.8125 -1 4 C-0.67 2.68 -0.34 1.36 0 0 Z " fill="#0DBE3C" transform="translate(714,587)"/>
<path d="M0 0 C0.99 0 1.98 0 3 0 C3.33 1.32 3.66 2.64 4 4 C6.97 4.495 6.97 4.495 10 5 C9.01 5.99 8.02 6.98 7 8 C1.125 6.125 1.125 6.125 0 5 C-0.04063832 3.33382885 -0.042721 1.66611905 0 0 Z " fill="#1CC249" transform="translate(672,590)"/>
<path d="M0 0 C0.66 0.66 1.32 1.32 2 2 C1.84228656 5.54855238 1.12553748 7.77789523 -0.625 10.875 C-3 13 -3 13 -6.75 13.3125 C-7.8225 13.209375 -8.895 13.10625 -10 13 C-10.33 12.34 -10.66 11.68 -11 11 C-8.79985796 10.26661932 -6.58994018 9.56239523 -4.375 8.875 C-3.26125 8.25625 -2.1475 7.6375 -1 7 C0.0615942 3.41136476 0.0615942 3.41136476 0 0 Z " fill="#0ABA31" transform="translate(664,593)"/>
<path d="M0 0 C0.33 0 0.66 0 1 0 C1.47990402 7.07858428 1.47990402 7.07858428 -0.5625 11 C-3 13 -3 13 -6.5625 13.4375 C-10 13 -10 13 -13 11 C-12.67 10.34 -12.34 9.68 -12 9 C-11.4225 9.37125 -10.845 9.7425 -10.25 10.125 C-8.03723278 11.27007587 -8.03723278 11.27007587 -5.9375 10.25 C-4.28180031 9.18180665 -2.63945127 8.09296752 -1 7 C-0.26393501 3.43230448 -0.26393501 3.43230448 0 0 Z " fill="#09B92E" transform="translate(930,593)"/>
<path d="M0 0 C1.32 0 2.64 0 4 0 C4.66 1.65 5.32 3.3 6 5 C10.07964281 3.69844994 10.07964281 3.69844994 14 2 C13.34 3.32 12.68 4.64 12 6 C10.56344146 6.08131463 9.1255517 6.13933559 7.6875 6.1875 C6.48673828 6.23970703 6.48673828 6.23970703 5.26171875 6.29296875 C3 6 3 6 1.20703125 4.67578125 C0 3 0 3 0 0 Z " fill="#12BD38" transform="translate(672,600)"/>
<path d="M0 0 C0.33 0 0.66 0 1 0 C1 2.97 1 5.94 1 9 C2.32 9.33 3.64 9.66 5 10 C5.99 10.66 6.98 11.32 8 12 C5.69 12 3.38 12 1 12 C1 14.97 1 17.94 1 21 C0.67 21 0.34 21 0 21 C-0.71148265 13.81949816 -1.25818438 7.12971149 0 0 Z " fill="#60D385" transform="translate(552,585)"/>
<path d="M0 0 C1.98 0.66 3.96 1.32 6 2 C6.33 3.98 6.66 5.96 7 8 C6.01 8 5.02 8 4 8 C3.34 7.01 2.68 6.02 2 5 C-0.55183404 3.79549696 -0.55183404 3.79549696 -3 3 C-2.01 2.01 -1.02 1.02 0 0 Z " fill="#1BC347" transform="translate(1268,595)"/>
<path d="M0 0 C0.33 0 0.66 0 1 0 C1.19491452 1.45736087 1.38069358 2.91594593 1.5625 4.375 C1.66691406 5.18710937 1.77132812 5.99921875 1.87890625 6.8359375 C2 9 2 9 1 11 C3.31 11 5.62 11 8 11 C8 11.33 8 11.66 8 12 C5.69 12 3.38 12 1 12 C1 14.97 1 17.94 1 21 C0.67 21 0.34 21 0 21 C-0.71148265 13.81949816 -1.25818438 7.12971149 0 0 Z " fill="#63D487" transform="translate(704,585)"/>
<path d="M0 0 C2.75 -0.375 2.75 -0.375 6 0 C8.86018057 3.16125221 9.93388802 5.10748829 10.25 9.375 C10.1675 10.24125 10.085 11.1075 10 12 C9.67 12 9.34 12 9 12 C8.34 9.69 7.68 7.38 7 5 C6.05125 4.855625 5.1025 4.71125 4.125 4.5625 C1 4 1 4 -1 3 C-0.67 2.01 -0.34 1.02 0 0 Z " fill="#09BB2F" transform="translate(853,587)"/>
<path d="M0 0 C0.33 0 0.66 0 1 0 C0.67 6.27 0.34 12.54 0 19 C-0.33 19 -0.66 19 -1 19 C-1 15.04 -1 11.08 -1 7 C-1.99 7 -2.98 7 -4 7 C-4 6.01 -4 5.02 -4 4 C-2.68 4 -1.36 4 0 4 C0 2.68 0 1.36 0 0 Z " fill="#10BB36" transform="translate(1152,583)"/>
<path d="M0 0 C1.5778125 0.1546875 1.5778125 0.1546875 3.1875 0.3125 C2.5625 2.1875 2.5625 2.1875 1.1875 4.3125 C-1.8125 5.5 -1.8125 5.5 -4.8125 6.3125 C-5.8025 6.8075 -5.8025 6.8075 -6.8125 7.3125 C-7.4725 6.6525 -8.1325 5.9925 -8.8125 5.3125 C-5.88314862 1.76177106 -4.6956049 0.38488565 0 0 Z " fill="#1FC24E" transform="translate(981.8125,580.6875)"/>
<path d="M0 0 C-1.75 3.875 -1.75 3.875 -4 5 C-6.3329866 5.04022391 -8.66706666 5.04320247 -11 5 C-11 4.01 -11 3.02 -11 2 C-7.17679443 0.57741188 -4.08718695 -0.24042276 0 0 Z " fill="#0FBD33" transform="translate(738,601)"/>
<path d="M0 0 C0.515625 0.495 1.03125 0.99 1.5625 1.5 C4.80680017 3.49649241 7.26217334 3.21564385 11 3 C10.67 3.99 10.34 4.98 10 6 C8.741875 6.04125 7.48375 6.0825 6.1875 6.125 C5.47980469 6.14820313 4.77210937 6.17140625 4.04296875 6.1953125 C2 6 2 6 -1 4 C-0.67 2.68 -0.34 1.36 0 0 Z " fill="#19BF45" transform="translate(1034,599)"/>
<path d="M0 0 C1.32 1.32 2.64 2.64 4 4 C3.35546875 4.20367188 2.7109375 4.40734375 2.046875 4.6171875 C-0.31153872 5.8667935 -0.31153872 5.8667935 -0.609375 8.8203125 C-0.65578125 9.91085937 -0.7021875 11.00140625 -0.75 12.125 C-0.80671875 13.22070312 -0.8634375 14.31640625 -0.921875 15.4453125 C-0.94765625 16.28835938 -0.9734375 17.13140625 -1 18 C-1.33 18 -1.66 18 -2 18 C-2 12.39 -2 6.78 -2 1 C-1.34 0.67 -0.68 0.34 0 0 Z " fill="#2BCA5A" transform="translate(746,587)"/>
<path d="M0 0 C1.65 0 3.3 0 5 0 C5.66 1.32 6.32 2.64 7 4 C1.25 5.125 1.25 5.125 -1 4 C-0.67 2.68 -0.34 1.36 0 0 Z " fill="#EDF9F3" transform="translate(677,590)"/>
<path d="M0 0 C0.33 0 0.66 0 1 0 C1.33 3.96 1.66 7.92 2 12 C3.98 12 5.96 12 8 12 C8 12.99 8 13.98 8 15 C1.125 14.125 1.125 14.125 0 13 C-0.07258946 10.81360547 -0.08373783 8.62499611 -0.0625 6.4375 C-0.05347656 5.23996094 -0.04445313 4.04242187 -0.03515625 2.80859375 C-0.02355469 1.88175781 -0.01195312 0.95492187 0 0 Z " fill="#08B628" transform="translate(638,591)"/>
<path d="M0 0 C1.32 0 2.64 0 4 0 C4.33 0.99 4.66 1.98 5 3 C4.01 3.66 3.02 4.32 2 5 C1.41518879 7.88595946 1.41518879 7.88595946 1.3125 11.125 C1.24675781 12.22070312 1.18101563 13.31640625 1.11328125 14.4453125 C1.07589844 15.28835938 1.03851562 16.13140625 1 17 C0.67 17 0.34 17 0 17 C0 11.39 0 5.78 0 0 Z " fill="#23C653" transform="translate(1129,588)"/>
<path d="M0 0 C0.99 0 1.98 0 3 0 C3.08082094 1.95766281 3.13910778 3.91626728 3.1875 5.875 C3.23970703 7.51082031 3.23970703 7.51082031 3.29296875 9.1796875 C3.19628906 10.11039063 3.09960938 11.04109375 3 12 C2.01 12.66 1.02 13.32 0 14 C0 9.38 0 4.76 0 0 Z " fill="#E5F7EB" transform="translate(1189,581)"/>
<path d="M0 0 C0.99 0.33 1.98 0.66 3 1 C4.1875 4.5625 4.1875 4.5625 5 8 C4.34 8.66 3.68 9.32 3 10 C2.34 9.67 1.68 9.34 1 9 C0.67 9.66 0.34 10.32 0 11 C0 7.37 0 3.74 0 0 Z " fill="#2BC658" transform="translate(780,594)"/>
<path d="M0 0 C0.33 0 0.66 0 1 0 C1 4.29 1 8.58 1 13 C0.01 13 -0.98 13 -2 13 C-3.55544021 8.33367936 -1.51147153 4.53441459 0 0 Z " fill="#1CC54D" transform="translate(932,592)"/>
<path d="M0 0 C1.67830848 3.35661695 0.6353188 6.36135594 0 10 C-0.99 10.495 -0.99 10.495 -2 11 C-3.52150158 7.95699684 -3.23899393 5.345915 -3 2 C-2.01 1.34 -1.02 0.68 0 0 Z " fill="#24C450" transform="translate(972,588)"/>
<path d="M0 0 C2.475 0.99 2.475 0.99 5 2 C4.01 3.485 4.01 3.485 3 5 C2.34 5 1.68 5 1 5 C1 8.96 1 12.92 1 17 C0.67 17 0.34 17 0 17 C0 11.39 0 5.78 0 0 Z " fill="#1FC650" transform="translate(895,588)"/>
<path d="M0 0 C1.9375 0.75 1.9375 0.75 4 2 C4.75 4.125 4.75 4.125 5 6 C4.34 5.67 3.68 5.34 3 5 C3 6.65 3 8.3 3 10 C2.5978125 9.1028125 2.5978125 9.1028125 2.1875 8.1875 C0.16385338 4.45972991 -2.15900412 2.72182574 -6 1 C-4.02 1 -2.04 1 0 1 C0 0.67 0 0.34 0 0 Z " fill="#0ABA2E" transform="translate(604,588)"/>
<path d="M0 0 C4.875 1.75 4.875 1.75 6 4 C8.52733235 4.65555119 8.52733235 4.65555119 11 5 C11 5.33 11 5.66 11 6 C7.75 6.75 7.75 6.75 4 7 C1.5625 5.25 1.5625 5.25 0 3 C0 2.01 0 1.02 0 0 Z " fill="#17C142" transform="translate(996,599)"/>
<path d="M0 0 C0.33 0 0.66 0 1 0 C1 5.61 1 11.22 1 17 C0.01 17.33 -0.98 17.66 -2 18 C-2.33 17.01 -2.66 16.02 -3 15 C-2.34 14.01 -1.68 13.02 -1 12 C-0.54084493 9.03157342 -0.54084493 9.03157342 -0.375 5.8125 C-0.30023437 4.72582031 -0.22546875 3.63914062 -0.1484375 2.51953125 C-0.09945313 1.68808594 -0.05046875 0.85664062 0 0 Z " fill="#25CA5A" transform="translate(1120,588)"/>
<path d="M0 0 C4 0 4 0 5.75 1.375 C7 3 7 3 7 5 C5.1875 5.6875 5.1875 5.6875 3 6 C1.25 4.75 1.25 4.75 0 3 C0 2.01 0 1.02 0 0 Z " fill="#1BC147" transform="translate(1260,600)"/>
<path d="M0 0 C0.99 0 1.98 0 3 0 C3 0.66 3 1.32 3 2 C4.32 1.67 5.64 1.34 7 1 C7.33 2.32 7.66 3.64 8 5 C3.48279689 5.36625971 3.48279689 5.36625971 1.1875 3.625 C0 2 0 2 0 0 Z " fill="#EFFAF3" transform="translate(724,598)"/>
<path d="M0 0 C2.99825672 4.08096054 2.66966061 6.11050484 2.25 11.0625 C1.92 11.0625 1.59 11.0625 1.25 11.0625 C1.12882813 10.49660156 1.00765625 9.93070313 0.8828125 9.34765625 C0.71523438 8.61417969 0.54765625 7.88070312 0.375 7.125 C0.13136719 6.02865234 0.13136719 6.02865234 -0.1171875 4.91015625 C-0.57961523 2.85549706 -0.57961523 2.85549706 -2.75 2.0625 C-2.75 1.4025 -2.75 0.7425 -2.75 0.0625 C-4.07 -0.2675 -5.39 -0.5975 -6.75 -0.9375 C-3.59099786 -2.45850103 -2.93371323 -2.06693432 0 0 Z " fill="#13C03D" transform="translate(814.75,588.9375)"/>
<path d="M0 0 C1.32 0 2.64 0 4 0 C4 0.66 4 1.32 4 2 C3.34 2 2.68 2 2 2 C1.67 6.62 1.34 11.24 1 16 C0.67 16 0.34 16 0 16 C-0.19389096 13.5211787 -0.38040123 11.04219069 -0.5625 8.5625 C-0.61857422 7.85544922 -0.67464844 7.14839844 -0.73242188 6.41992188 C-0.86190993 4.61572163 -0.93521608 2.80768048 -1 1 C-0.67 0.67 -0.34 0.34 0 0 Z " fill="#20C452" transform="translate(827,588)"/>
<path d="M0 0 C0.66 0.33 1.32 0.66 2 1 C2 1.99 2 2.98 2 4 C0.906875 3.835 -0.18625 3.67 -1.3125 3.5 C-5.80793634 2.76040363 -5.80793634 2.76040363 -10 4 C-9.67 3.01 -9.34 2.02 -9 1 C-6.01405576 -0.49297212 -3.29146376 -0.11755228 0 0 Z " fill="#0BB82F" transform="translate(1042,587)"/>
<path d="M0 0 C0.33 0.66 0.66 1.32 1 2 C-0.125 4 -0.125 4 -2 6 C-5.1875 6.25 -5.1875 6.25 -8 6 C-8.33 4.68 -8.66 3.36 -9 2 C-7.6078125 2.061875 -7.6078125 2.061875 -6.1875 2.125 C-2.84190281 2.27136339 -2.84190281 2.27136339 0 0 Z " fill="#0CB933" transform="translate(1068,600)"/>
<path d="M0 0 C3 0 3 0 4.9375 1.875 C5.618125 2.57625 6.29875 3.2775 7 4 C9.13309192 5.23512079 9.13309192 5.23512079 11 6 C5.67988107 6.34886026 5.67988107 6.34886026 3 6 C1 4.125 1 4.125 0 2 C0 1.34 0 0.68 0 0 Z " fill="#22C350" transform="translate(649,599)"/>
<path d="M0 0 C1.98 0 3.96 0 6 0 C5.67 0.99 5.34 1.98 5 3 C5.66 3.66 6.32 4.32 7 5 C4.625 5.125 4.625 5.125 2 5 C1.34 4.34 0.68 3.68 0 3 C0 2.01 0 1.02 0 0 Z " fill="#F0F9F5" transform="translate(1243,598)"/>
<path d="M0 0 C0.33 0 0.66 0 1 0 C1 3.3 1 6.6 1 10 C0.01 10.33 -0.98 10.66 -2 11 C-2.66 9.35 -3.32 7.7 -4 6 C-3.01 5.34 -2.02 4.68 -1 4 C-0.27617533 1.94074861 -0.27617533 1.94074861 0 0 Z " fill="#2DC85C" transform="translate(1047,595)"/>
<path d="M0 0 C0.33 1.32 0.66 2.64 1 4 C1.99 3.67 2.98 3.34 4 3 C4 4.32 4 5.64 4 7 C1.69 7.66 -0.62 8.32 -3 9 C-2.34 8.01 -1.68 7.02 -1 6 C-0.60986284 4.0103005 -0.26797351 2.00980131 0 0 Z " fill="#D9F3E3" transform="translate(565,587)"/>
<path d="M0 0 C0.99 0 1.98 0 3 0 C3.33 1.65 3.66 3.3 4 5 C3.01 5.33 2.02 5.66 1 6 C0.67 6.66 0.34 7.32 0 8 C-0.38063221 5.6739143 -0.71269945 3.33944736 -1 1 C-0.67 0.67 -0.34 0.34 0 0 Z " fill="#F0F9F4" transform="translate(1257,590)"/>
<path d="M0 0 C-1.1446875 0.8971875 -1.1446875 0.8971875 -2.3125 1.8125 C-4.3483575 3.46959332 -6.1978279 5.10297674 -8 7 C-8.33 5.68 -8.66 4.36 -9 3 C-5.92807025 0.26939578 -4.09590633 -0.34132553 0 0 Z " fill="#20C651" transform="translate(1041,588)"/>
<path d="M0 0 C0.99 0.99 1.98 1.98 3 3 C2.34 4.32 1.68 5.64 1 7 C-1.31 7 -3.62 7 -6 7 C-5.38125 6.95875 -4.7625 6.9175 -4.125 6.875 C-3.42375 6.58625 -2.7225 6.2975 -2 6 C-0.6954344 3.00384054 -0.6954344 3.00384054 0 0 Z " fill="#0CBD33" transform="translate(1088,599)"/>
<path d="M0 0 C1.32 0.66 2.64 1.32 4 2 C2.71937515 3.7074998 1.38232443 5.37373596 0 7 C-0.66 7 -1.32 7 -2 7 C-2.33 6.01 -2.66 5.02 -3 4 C-1.5625 1.8125 -1.5625 1.8125 0 0 Z " fill="#0BBD32" transform="translate(1231,597)"/>
<path d="M0 0 C0.66 0 1.32 0 2 0 C4.29612756 9.41002278 4.29612756 9.41002278 4 14 C2.5 13 2.5 13 1 11 C0.82056651 8.94933159 0.8754686 6.99175258 0.9921875 4.9375 C1.10424122 2.77930615 1.10424122 2.77930615 0 0 Z " fill="#14BF40" transform="translate(1067,591)"/>
<path d="M0 0 C0.66 0.33 1.32 0.66 2 1 C1.67 1.99 1.34 2.98 1 4 C0.64456573 6.33006911 0.3086247 8.66327016 0 11 C-0.33 11 -0.66 11 -1 11 C-2.67357513 5.62694301 -2.67357513 5.62694301 -3 3 C-1.625 1 -1.625 1 0 0 Z " fill="#0EBC39" transform="translate(1057,588)"/>
<path d="M0 0 C1.32 0 2.64 0 4 0 C2.25 3.875 2.25 3.875 0 5 C-2.3329866 5.04022391 -4.66706666 5.04320247 -7 5 C-7 4.67 -7 4.34 -7 4 C-5.02 3.67 -3.04 3.34 -1 3 C-0.67 2.01 -0.34 1.02 0 0 Z " fill="#0DBB2C" transform="translate(1252,601)"/>
<path d="M0 0 C1.98 0.495 1.98 0.495 4 1 C3.67 2.32 3.34 3.64 3 5 C1.68 4.67 0.36 4.34 -1 4 C-0.67 2.68 -0.34 1.36 0 0 Z " fill="#11BE38" transform="translate(628,579)"/>
<path d="M0 0 C1.98 0.495 1.98 0.495 4 1 C3.67 2.32 3.34 3.64 3 5 C1.68 4.67 0.36 4.34 -1 4 C-0.67 2.68 -0.34 1.36 0 0 Z " fill="#16BF3A" transform="translate(583,579)"/>
<path d="M0 0 C0.99 0 1.98 0 3 0 C1.25 3.875 1.25 3.875 -1 5 C-1.33 5.99 -1.66 6.98 -2 8 C-2.66 8 -3.32 8 -4 8 C-2.25 2.25 -2.25 2.25 0 0 Z " fill="#0B326E" transform="translate(1154,469)"/>
<path d="M0 0 C0.66 0.33 1.32 0.66 2 1 C0.71520959 2.50589388 -0.57804082 4.00457375 -1.875 5.5 C-2.95394531 6.75296875 -2.95394531 6.75296875 -4.0546875 8.03125 C-4.69664062 8.6809375 -5.33859375 9.330625 -6 10 C-6.66 10 -7.32 10 -8 10 C-6.34908222 5.70761377 -3.26245434 3.1206085 0 0 Z " fill="#0EB63E" transform="translate(312,420)"/>
<path d="M0 0 C2.97 0.495 2.97 0.495 6 1 C6 1.99 6 2.98 6 4 C3.69 4 1.38 4 -1 4 C-0.67 2.68 -0.34 1.36 0 0 Z " fill="#12BD3A" transform="translate(875,602)"/>
<path d="M0 0 C-0.66 1.32 -1.32 2.64 -2 4 C-4.31 4 -6.62 4 -9 4 C-9.33 3.34 -9.66 2.68 -10 2 C-6.69339874 0.89779958 -3.50201629 0 0 0 Z " fill="#08B729" transform="translate(1176,602)"/>
<path d="M0 0 C2.475 0.99 2.475 0.99 5 2 C5 2.99 5 3.98 5 5 C2.69 4.67 0.38 4.34 -2 4 C-1.33333333 2.66666667 -0.66666667 1.33333333 0 0 Z " fill="#0CBB34" transform="translate(1154,601)"/>
<path d="M0 0 C3.71888239 0.50712033 6.73454239 1.11608215 10 3 C9 4 9 4 7.15234375 4.09765625 C5.1015625 4.06510417 3.05078125 4.03255208 1 4 C0.67 2.68 0.34 1.36 0 0 Z " fill="#0BB82E" transform="translate(784,602)"/>
<path d="M0 0 C0.66 0 1.32 0 2 0 C3.625 2.5 3.625 2.5 5 5 C4.01 5.33 3.02 5.66 2 6 C1.34 6.66 0.68 7.32 0 8 C0 5.36 0 2.72 0 0 Z " fill="#E8F7ED" transform="translate(1189,598)"/>
<path d="M0 0 C-2.97 0.66 -5.94 1.32 -9 2 C-9.33 1.01 -9.66 0.02 -10 -1 C-3.375 -2.25 -3.375 -2.25 0 0 Z " fill="#17C444" transform="translate(1253,604)"/>
<path d="M0 0 C1.0326802 2.78823655 1.04509293 3.8677274 0.0625 6.75 C-0.288125 7.4925 -0.63875 8.235 -1 9 C-1.99 9 -2.98 9 -4 9 C-2.80100302 5.9168649 -1.52299523 2.93720508 0 0 Z " fill="#E1F6EA" transform="translate(800,595)"/>
<path d="M0 0 C1.11058786 2.07309734 1.97398494 3.88618411 2.5 6.1875 C2.665 6.785625 2.83 7.38375 3 8 C3.66 8.33 4.32 8.66 5 9 C4.67 9.66 4.34 10.32 4 11 C1.4375 8.875 1.4375 8.875 -1 6 C-0.8125 2.6875 -0.8125 2.6875 0 0 Z " fill="#1EC149" transform="translate(592,595)"/>
<path d="M0 0 C0.33 0 0.66 0 1 0 C1 4.62 1 9.24 1 14 C0.67 14 0.34 14 0 14 C-0.06058594 13.38511719 -0.12117187 12.77023437 -0.18359375 12.13671875 C-0.26738281 11.32847656 -0.35117187 10.52023437 -0.4375 9.6875 C-0.51871094 8.88699219 -0.59992187 8.08648438 -0.68359375 7.26171875 C-0.95265693 4.83912821 -0.95265693 4.83912821 -2 2 C-1.34 1.34 -0.68 0.68 0 0 Z " fill="#20C553" transform="translate(863,588)"/>
<path d="M0 0 C0 3.96 0 7.92 0 12 C-0.33 12 -0.66 12 -1 12 C-1.33 9.03 -1.66 6.06 -2 3 C-2.66 3 -3.32 3 -4 3 C-3.00748537 1.01497074 -2.38353202 0 0 0 Z " fill="#25C656" transform="translate(1071,588)"/>
<path d="M0 0 C0.99 0 1.98 0 3 0 C3 1.32 3 2.64 3 4 C1.35 4.33 -0.3 4.66 -2 5 C-1.125 1.125 -1.125 1.125 0 0 Z " fill="#0CBE33" transform="translate(576,587)"/>
<path d="M0 0 C1.65 0.33 3.3 0.66 5 1 C4.67 1.99 4.34 2.98 4 4 C2.35 4 0.7 4 -1 4 C-0.67 2.68 -0.34 1.36 0 0 Z " fill="#F9FBFA" transform="translate(678,599)"/>
<path d="M0 0 C1.9375 0.3125 1.9375 0.3125 4 1 C4.33 1.99 4.66 2.98 5 4 C4.34 4.66 3.68 5.32 3 6 C3 5.34 3 4.68 3 4 C1.35 3.67 -0.3 3.34 -2 3 C-1.34 2.01 -0.68 1.02 0 0 Z " fill="#E3F7EB" transform="translate(1271,593)"/>
<path d="M0 0 C0.99 0 1.98 0 3 0 C3 1.32 3 2.64 3 4 C1.35 4 -0.3 4 -2 4 C-1.34 2.68 -0.68 1.36 0 0 Z " fill="#F5F9F8" transform="translate(1001,591)"/>
<path d="M0 0 C1.98 0 3.96 0 6 0 C6.33 1.32 6.66 2.64 7 4 C4.03 3.505 4.03 3.505 1 3 C0.67 2.01 0.34 1.02 0 0 Z " fill="#0CB92F" transform="translate(1060,587)"/>
</svg>
