<?xml version="1.0" encoding="UTF-8"?>
<svg version="1.1" xmlns="http://www.w3.org/2000/svg" width="1024" height="1024">
<path d="M0 0 C2.60491173 2.0418298 4.87590395 4.30511395 7.15625 6.69921875 C8.98144892 8.56453194 10.88869549 10.25668672 12.87109375 11.953125 C16.52906829 15.0976996 19.91351255 18.45107906 23.26953125 21.9140625 C24.85782108 23.60191224 24.85782108 23.60191224 26.93359375 24.515625 C26.93359375 25.175625 26.93359375 25.835625 26.93359375 26.515625 C27.59359375 26.515625 28.25359375 26.515625 28.93359375 26.515625 C28.93359375 27.175625 28.93359375 27.835625 28.93359375 28.515625 C29.5265625 28.77988281 30.11953125 29.04414063 30.73046875 29.31640625 C33.01388429 30.55932925 34.40786098 31.81964146 36.18359375 33.703125 C38.56443535 36.21950957 41.06182718 38.52401326 43.67578125 40.79296875 C47.81966528 44.39067434 51.82268644 48.11964407 55.80859375 51.890625 C60.88788161 56.67579968 66.00285434 61.40606251 71.21484375 66.046875 C75.73161847 70.14831411 80.1547397 74.35092119 84.578125 78.55273438 C85.57392578 79.49342773 85.57392578 79.49342773 86.58984375 80.453125 C87.18603516 81.01902344 87.78222656 81.58492188 88.39648438 82.16796875 C89.90908371 83.60894433 89.90908371 83.60894433 91.93359375 84.515625 C91.93359375 85.175625 91.93359375 85.835625 91.93359375 86.515625 C92.51625 86.76957031 93.09890625 87.02351563 93.69921875 87.28515625 C96.17547408 88.64882833 97.73880001 90.15787703 99.68359375 92.203125 C102.36382415 94.95794437 105.07940942 97.57487359 107.99609375 100.078125 C110.58313113 102.30206941 113.04306208 104.58172768 115.43359375 107.015625 C118.41438583 110.04351763 121.52801646 112.84993761 124.7578125 115.609375 C126.35620767 117.0097643 127.91631661 118.45416342 129.453125 119.921875 C130.31292969 120.7365625 131.17273438 121.55125 132.05859375 122.390625 C132.84492187 123.15117187 133.63125 123.91171875 134.44140625 124.6953125 C137.54141712 126.95958376 139.07698973 127.52624609 142.93359375 127.515625 C145.6421165 125.79123045 147.71658696 123.52212082 149.90625 121.19140625 C150.55178329 120.53359665 151.19731659 119.87578705 151.8624115 119.19804382 C153.92405677 117.0906088 155.96032973 114.96054393 157.99609375 112.828125 C160.04034404 110.71885556 162.08949462 108.61447645 164.14048767 106.51176453 C165.41440868 105.20223595 166.6835086 103.88799486 167.94703674 102.56843567 C171.1130011 99.2789164 174.30125957 96.3016452 177.93359375 93.515625 C180.34047793 91.10874082 180.88636734 89.77585881 181.5 86.39453125 C180.65533245 80.61001488 177.24842765 78.10451555 173.05859375 74.265625 C171.58026515 72.86644698 170.10362828 71.4654788 168.62890625 70.0625 C167.63914795 69.14742676 167.63914795 69.14742676 166.62939453 68.21386719 C164.17385082 65.75478829 163.00229399 64.05377691 162.55859375 60.578125 C162.93359375 57.515625 162.93359375 57.515625 164.46826172 55.39453125 C167.75038335 52.89312423 170.76780794 52.68267211 174.75390625 52.390625 C175.5454007 52.31816559 176.33689514 52.24570618 177.15237427 52.17105103 C179.78655812 51.93469672 182.42211441 51.72469414 185.05859375 51.515625 C186.90733692 51.35723999 188.75596838 51.19754619 190.60449219 51.03662109 C194.580226 50.69421279 198.55675842 50.36418751 202.53417969 50.04199219 C208.08141543 49.59057025 213.6251833 49.10515829 219.16879272 48.61138916 C223.72598728 48.20744313 228.28417877 47.81576076 232.8427124 47.42724609 C235.06391754 47.23668433 237.28483115 47.04269227 239.50543213 46.84521484 C242.63163374 46.56942362 245.7587836 46.30996086 248.88671875 46.0546875 C249.81622345 45.96957916 250.74572815 45.88447083 251.70339966 45.79678345 C257.33147653 45.35845033 261.91190744 45.43170341 266.74609375 48.765625 C269.77501225 53.22929436 268.87572742 58.59312421 268.17675781 63.65991211 C268.08418701 64.34870453 267.99161621 65.03749695 267.89624023 65.74716187 C267.58928752 68.01372098 267.26952322 70.27826104 266.94921875 72.54296875 C266.73012488 74.13504774 266.51169133 75.72721772 266.29388428 77.31947327 C265.83525616 80.6581954 265.37063082 83.99600837 264.90136719 87.33325195 C264.30612995 91.56775515 263.72260485 95.80376204 263.14331436 100.04047298 C262.69227774 103.33310735 262.23638985 106.6250559 261.77898407 109.91681099 C261.56264818 111.47564137 261.34738624 113.03462126 261.13330841 114.59376335 C260.44689471 119.57538935 259.72148509 124.54899529 258.93359375 129.515625 C258.82234665 130.22058735 258.71109955 130.9255497 258.59648132 131.65187454 C258.25991932 133.71935279 257.89802918 135.78061311 257.52636719 137.84204102 C257.31703552 139.0324147 257.10770386 140.22278839 256.89202881 141.44923401 C255.82442372 144.8649006 254.76923142 146.36495734 251.93359375 148.515625 C247.16564751 148.49049748 244.754023 146.98970366 241.37109375 143.765625 C240.52675781 142.96769531 239.68242188 142.16976562 238.8125 141.34765625 C237.85047651 140.40607959 236.89104042 139.46185524 235.93359375 138.515625 C235.36495605 137.95536621 234.79631836 137.39510742 234.21044922 136.81787109 C230.42452344 133.07683368 226.67067142 129.30542007 222.93359375 125.515625 C216.3828538 126.81434992 212.83729232 131.10107629 208.359375 135.69921875 C207.55372604 136.5105275 206.74807709 137.32183624 205.91801453 138.1577301 C203.35114652 140.74693831 200.79853778 143.34970423 198.24609375 145.953125 C196.51720223 147.70208792 194.78739432 149.45014547 193.05664062 151.19726562 C189.2487828 155.04440425 185.4498661 158.90012412 181.65864563 162.76365662 C181.08937851 163.34180618 180.52011139 163.91995575 179.93359375 164.515625 C179.40473068 165.08704727 178.87586761 165.65846954 178.33097839 166.24720764 C176.93359375 167.515625 176.93359375 167.515625 174.93359375 167.515625 C174.60359375 168.505625 174.27359375 169.495625 173.93359375 170.515625 C172.40893555 172.01464844 172.40893555 172.01464844 170.4453125 173.625 C164.73782547 178.46586526 159.59722798 183.83679678 154.38085938 189.1953125 C153.62095703 189.96617187 152.86105469 190.73703125 152.078125 191.53125 C151.40112549 192.22508789 150.72412598 192.91892578 150.02661133 193.63378906 C146.80232218 196.53275334 144.34435917 198.54310744 139.92578125 198.45703125 C136.4329296 197.35810534 134.69716777 195.97490968 132.05859375 193.453125 C131.1975 192.63972656 130.33640625 191.82632813 129.44921875 190.98828125 C126.56279551 188.15116027 123.69839366 185.29469024 120.859375 182.41015625 C118.3497033 179.94120944 115.69070495 177.67389824 113.01953125 175.3828125 C109.84301804 172.53941678 106.88531117 169.48898397 103.9140625 166.43359375 C101.88424098 164.35245433 101.88424098 164.35245433 98.93359375 162.515625 C98.93359375 161.855625 98.93359375 161.195625 98.93359375 160.515625 C98.37542969 160.28617188 97.81726563 160.05671875 97.2421875 159.8203125 C94.30763767 158.16186979 92.33219022 156.06670978 89.99609375 153.640625 C87.45200723 151.00609955 85.00791254 148.57355449 82.1171875 146.3203125 C81.39660156 145.72476563 80.67601562 145.12921875 79.93359375 144.515625 C79.93359375 143.855625 79.93359375 143.195625 79.93359375 142.515625 C79.381875 142.29261719 78.83015625 142.06960938 78.26171875 141.83984375 C75.20302615 140.10008403 73.12621255 137.85798018 70.68359375 135.328125 C66.27809826 130.82358839 61.73704122 126.59068085 56.93359375 122.515625 C52.44211942 118.64424227 48.12758394 114.70961519 43.93359375 110.515625 C41.28098412 108.16640503 38.62039394 105.82751714 35.9453125 103.50390625 C35.28144531 102.84777344 34.61757813 102.19164062 33.93359375 101.515625 C33.93359375 100.855625 33.93359375 100.195625 33.93359375 99.515625 C33.27359375 99.515625 32.61359375 99.515625 31.93359375 99.515625 C31.93359375 98.855625 31.93359375 98.195625 31.93359375 97.515625 C31.34747314 97.25168945 30.76135254 96.98775391 30.1574707 96.71582031 C27.84300704 95.46673662 26.24677831 94.12801167 24.3515625 92.3125 C23.33497559 91.34618652 23.33497559 91.34618652 22.29785156 90.36035156 C21.22035645 89.32346191 21.22035645 89.32346191 20.12109375 88.265625 C18.59921498 86.81743858 17.07707417 85.36952749 15.5546875 83.921875 C14.78624512 83.18839844 14.01780273 82.45492187 13.22607422 81.69921875 C9.72971884 78.36893095 6.20967943 75.06437852 2.68359375 71.765625 C2.07668701 71.19424805 1.46978027 70.62287109 0.84448242 70.03417969 C-4.67860674 64.31123796 -4.67860674 64.31123796 -11.56640625 61.015625 C-17.62567693 62.22747914 -21.9638288 68.33592599 -26.08984375 72.61328125 C-26.80398438 73.34417969 -27.518125 74.07507813 -28.25390625 74.828125 C-28.92808594 75.52550781 -29.60226562 76.22289062 -30.296875 76.94140625 C-32.06640625 78.515625 -32.06640625 78.515625 -34.06640625 78.515625 C-34.06640625 79.175625 -34.06640625 79.835625 -34.06640625 80.515625 C-34.72640625 80.515625 -35.38640625 80.515625 -36.06640625 80.515625 C-36.06640625 81.175625 -36.06640625 81.835625 -36.06640625 82.515625 C-37.60546875 84.06640625 -37.60546875 84.06640625 -39.69140625 85.828125 C-40.78775391 86.76205078 -40.78775391 86.76205078 -41.90625 87.71484375 C-43.68366234 89.19655639 -45.46672074 90.67074658 -47.25390625 92.140625 C-50.87671674 95.19988719 -54.13433455 98.56986872 -57.4609375 101.9453125 C-58.25886719 102.75226563 -59.05679688 103.55921875 -59.87890625 104.390625 C-60.66910156 105.19242187 -61.45929688 105.99421875 -62.2734375 106.8203125 C-65.0894508 109.5378638 -68.00312401 112.09577881 -70.95825195 114.65917969 C-74.47207017 117.75345574 -77.85799546 120.98066445 -81.25390625 124.203125 C-87.11713199 129.7468201 -93.0049847 135.26009071 -98.95581055 140.7097168 C-101.13083367 142.70604 -103.25379501 144.71121817 -105.296875 146.84375 C-107.06640625 148.515625 -107.06640625 148.515625 -109.06640625 148.515625 C-109.43765625 149.69125 -109.43765625 149.69125 -109.81640625 150.890625 C-111.06640625 153.515625 -111.06640625 153.515625 -112.84765625 154.38671875 C-115.75145909 155.86418182 -117.56098943 157.85792247 -119.81640625 160.203125 C-123.48125765 163.9487 -127.22415403 167.46624284 -131.203125 170.87109375 C-133.67582439 173.0534972 -135.95976902 175.39785681 -138.26953125 177.75 C-140.83220496 180.26810547 -143.54097056 182.60185205 -146.26953125 184.9375 C-146.8625 185.45828125 -147.45546875 185.9790625 -148.06640625 186.515625 C-148.618125 186.97453125 -149.16984375 187.4334375 -149.73828125 187.90625 C-152.83463753 191.65830526 -152.19403445 197.07053189 -152.20011902 201.68896484 C-152.20351735 202.75588845 -152.20351735 202.75588845 -152.20698434 203.84436607 C-152.21330185 206.22178151 -152.21249643 208.59913961 -152.21166992 210.9765625 C-152.21466275 212.68345208 -152.21806557 214.39034099 -152.22184753 216.097229 C-152.23067753 220.72935594 -152.23302518 225.3614644 -152.23366332 229.99359894 C-152.23461327 233.86055127 -152.23829243 237.72749932 -152.24183542 241.59445 C-152.24997561 250.71596367 -152.25241999 259.83746748 -152.25170898 268.95898438 C-152.25110778 278.37082202 -152.26166905 287.78260243 -152.27745265 297.19442558 C-152.29052158 305.2752198 -152.29589318 313.35599529 -152.29525357 321.4368 C-152.29499847 326.26312396 -152.297857 331.08939701 -152.30843163 335.91571045 C-152.31810211 340.45307315 -152.31819901 344.99033615 -152.31091499 349.52770233 C-152.30986796 351.1929921 -152.31223909 352.85828804 -152.31827545 354.5235672 C-152.32598136 356.79659089 -152.32136006 359.06926902 -152.31364441 361.34228516 C-152.31418918 362.61431793 -152.31473394 363.88635071 -152.31529522 365.19692993 C-152.07119359 368.45179042 -151.64566168 370.66692799 -150.06640625 373.515625 C-147.34606632 374.42240498 -145.80445403 374.63781982 -143.01361084 374.62915039 C-142.18876253 374.6290758 -141.36391422 374.62900122 -140.51407051 374.62892437 C-139.61062841 374.62376214 -138.70718632 374.61859991 -137.77636719 374.61328125 C-136.34134511 374.61114608 -136.34134511 374.61114608 -134.87733269 374.60896778 C-131.68512124 374.60323055 -128.49297304 374.59056268 -125.30078125 374.578125 C-123.05333569 374.57315879 -120.80588885 374.56874897 -118.55844116 374.56486511 C-113.78523017 374.5561884 -109.01203275 374.54516622 -104.23883057 374.53256226 C-91.9652291 374.50212257 -79.69160136 374.50315328 -67.41796875 374.50390625 C-65.61476229 374.50399405 -65.61476229 374.50399405 -63.77512741 374.50408363 C-55.8722174 374.50493023 -47.96931316 374.50853671 -40.06640625 374.515625 C-39.13908188 374.51644829 -38.21175751 374.51727158 -37.2563324 374.51811981 C-28.03032221 374.52795371 -18.80566075 374.56074414 -9.5802002 374.66821289 C-7.33474959 374.69134602 -5.08919119 374.70577755 -2.84362793 374.71118164 C0.1636815 374.72010778 3.16890317 374.75935953 6.17578125 374.80859375 C7.0133194 374.8046611 7.85085754 374.80072845 8.71377563 374.79667664 C12.77282176 374.90166357 14.70846468 375.33972012 17.94726562 377.87036133 C19.93359375 380.515625 19.93359375 380.515625 20.47265625 383.546875 C19.82244692 387.127738 18.82776076 388.41401252 16.30859375 391.015625 C15.50035156 391.85867188 14.69210937 392.70171875 13.859375 393.5703125 C12.88411825 394.55208697 11.90885747 395.53385745 10.93359375 396.515625 C9.71815464 397.76765148 8.50334556 399.02028979 7.2890625 400.2734375 C6.02619261 401.56392353 4.76187368 402.85299316 3.49609375 404.140625 C2.8810498 404.76904297 2.26600586 405.39746094 1.63232422 406.04492188 C1.05240723 406.62564453 0.47249023 407.20636719 -0.125 407.8046875 C-0.90315063 408.58900146 -0.90315063 408.58900146 -1.69702148 409.38916016 C-3.06640625 410.515625 -3.06640625 410.515625 -5.06640625 410.515625 C-5.29972656 411.08152344 -5.53304687 411.64742187 -5.7734375 412.23046875 C-9.56053326 418.92367425 -16.78431765 424.27498235 -24.06640625 426.515625 C-28.31953832 427.35981682 -32.34844279 427.64475439 -36.68096924 427.65606689 C-37.99578781 427.66177704 -39.31060638 427.66748718 -40.66526794 427.67337036 C-42.11050406 427.67461551 -43.55574027 427.67574065 -45.00097656 427.67675781 C-46.53241596 427.68139032 -48.06385421 427.68641556 -49.59529114 427.69180298 C-53.74630092 427.70488702 -57.89729456 427.71136407 -62.04832172 427.71581364 C-64.64516985 427.71875072 -67.24201363 427.72285671 -69.83885956 427.72731781 C-77.97390797 427.74098199 -86.10894636 427.75065402 -94.24400544 427.7545197 C-103.61607277 427.75899844 -112.98799411 427.77654233 -122.36001706 427.8055203 C-129.6171375 427.82717574 -136.87421697 427.83722603 -144.13136935 427.83856082 C-148.45988256 427.83960605 -152.78825834 427.84545359 -157.11673737 427.86338043 C-161.19125195 427.87992818 -165.26552676 427.88198433 -169.3400631 427.87324142 C-170.8291024 427.87247463 -172.31815496 427.87676617 -173.80716133 427.88669968 C-192.82621 428.0060629 -192.82621 428.0060629 -200.44140625 422.265625 C-210.01268092 412.23857534 -208.20906352 399.74289385 -208.14819336 386.7121582 C-208.14463094 385.13585507 -208.14154669 383.55955079 -208.13890076 381.98324585 C-208.13238497 378.60739588 -208.12284907 375.23157311 -208.11100578 371.85573769 C-208.09261538 366.51403519 -208.08308889 361.17233903 -208.0750885 355.83061218 C-208.0510081 340.64738117 -208.01501343 325.46419006 -207.97045898 310.28100586 C-207.94588846 301.88129132 -207.92854174 293.48159212 -207.9188996 285.08184689 C-207.91237133 279.7749683 -207.89684481 274.46821706 -207.87458217 269.16138232 C-207.86282985 265.85927681 -207.85948353 262.55720199 -207.85848427 259.25507736 C-207.85634209 257.72768324 -207.85076869 256.20028935 -207.84145355 254.67292213 C-207.82920101 252.58260715 -207.82943122 250.49263845 -207.83262634 248.40229797 C-207.82948394 247.23446935 -207.82634153 246.06664072 -207.8231039 244.86342335 C-208.09172302 241.16727057 -208.84890982 238.01188481 -210.06640625 234.515625 C-212.82740461 232.37382654 -215.34342743 232.26746988 -218.76953125 232.2421875 C-219.66800781 232.2215625 -220.56648438 232.2009375 -221.4921875 232.1796875 C-223.3592854 232.15386319 -225.22650307 232.13550491 -227.09375 232.125 C-234.521595 231.93427074 -240.21447604 230.5176568 -245.44140625 225.015625 C-245.97765625 224.190625 -246.51390625 223.365625 -247.06640625 222.515625 C-247.68515625 221.5875 -247.68515625 221.5875 -248.31640625 220.640625 C-249.92069737 216.09513348 -249.52897628 211.99603667 -247.62890625 207.640625 C-243.52647216 200.14607226 -236.36109544 194.68142561 -229.96484375 189.1953125 C-227.50917711 187.02260334 -225.23480121 184.69685828 -222.93945312 182.35742188 C-221.1394145 180.58741517 -219.28565969 178.93370764 -217.37109375 177.2890625 C-213.03458353 173.51879086 -208.85755157 169.59720088 -204.69140625 165.640625 C-199.33224866 160.57343752 -193.94604083 155.55016395 -188.44140625 150.640625 C-183.60584043 146.31406611 -178.84154558 141.90863377 -174.06640625 137.515625 C-173.30287842 136.81397217 -173.30287842 136.81397217 -172.52392578 136.09814453 C-167.25564785 131.25545169 -161.99949729 126.40133289 -156.79296875 121.4921875 C-156.07012695 120.81124023 -155.34728516 120.13029297 -154.60253906 119.42871094 C-153.18596454 118.0927909 -151.77118348 116.75496599 -150.35839844 115.41503906 C-149.71290039 114.8062793 -149.06740234 114.19751953 -148.40234375 113.5703125 C-147.8304834 113.02874512 -147.25862305 112.48717773 -146.66943359 111.92919922 C-145.06640625 110.515625 -145.06640625 110.515625 -142.06640625 108.515625 C-141.57140625 107.030625 -141.57140625 107.030625 -141.06640625 105.515625 C-140.38578125 105.12375 -139.70515625 104.731875 -139.00390625 104.328125 C-135.36327504 102.08177809 -132.75781294 99.260808 -129.8359375 96.16015625 C-128.06640625 94.515625 -128.06640625 94.515625 -126.06640625 94.515625 C-125.57140625 93.030625 -125.57140625 93.030625 -125.06640625 91.515625 C-123.32421875 89.796875 -123.32421875 89.796875 -121.19140625 88.015625 C-118.21256094 85.51297179 -118.21256094 85.51297179 -115.43359375 82.796875 C-114.06640625 81.515625 -114.06640625 81.515625 -112.06640625 81.515625 C-112.06640625 80.855625 -112.06640625 80.195625 -112.06640625 79.515625 C-110.4921875 77.9296875 -110.4921875 77.9296875 -108.37890625 76.140625 C-107.64671875 75.51671875 -106.91453125 74.8928125 -106.16015625 74.25 C-104.58285339 72.94342823 -102.98552537 71.660975 -101.37890625 70.390625 C-99.01963038 68.5440771 -99.01963038 68.5440771 -96.89453125 66.34375 C-91.44302902 60.89224777 -85.75497688 55.68418888 -80.11572266 50.42822266 C-78.21367648 48.6530702 -76.31738436 46.871969 -74.421875 45.08984375 C-73.34540473 44.08555938 -72.26860379 43.08162927 -71.19140625 42.078125 C-70.24523437 41.19253906 -69.2990625 40.30695313 -68.32421875 39.39453125 C-66.06640625 37.515625 -66.06640625 37.515625 -64.06640625 37.515625 C-64.06640625 36.855625 -64.06640625 36.195625 -64.06640625 35.515625 C-62.84375 34.28125 -62.84375 34.28125 -61.00390625 32.765625 C-56.7330253 29.14184722 -52.64601445 25.35096036 -48.56640625 21.515625 C-44.09304267 17.32061619 -39.62157854 13.14250857 -34.94921875 9.16796875 C-33.49083333 7.88809939 -32.07715897 6.55719034 -30.68359375 5.20703125 C-21.15109442 -3.90277315 -11.64277063 -7.89801984 0 0 Z " fill="#29AF6F" transform="translate(485.06640625,277.484375)"/>
<path d="M0 0 C2.875 1.6875 2.875 1.6875 3.875 3.6875 C3.99659612 5.8728528 4.05260594 8.0619307 4.08032227 10.25048828 C4.0902162 10.934442 4.10011013 11.61839571 4.11030388 12.32307529 C4.14228104 14.63461837 4.16695872 16.9461783 4.19140625 19.2578125 C4.21220738 20.92153776 4.23329746 22.58525943 4.25465393 24.24897766 C4.31135748 28.81221609 4.36059523 33.37550687 4.40763092 37.93885422 C4.43745804 40.80846292 4.46889297 43.67805024 4.50067139 46.54763794 C4.85476142 78.92256922 4.98272412 111.29728436 4.99793625 143.67403412 C4.99999245 147.11238336 5.00375025 150.55072734 5.00784302 153.98907471 C5.01373734 159.44858381 5.01382335 164.90806446 5.00938225 170.36757469 C5.00835541 172.37319102 5.00887863 174.37880889 5.01114082 176.38442421 C5.01963161 185.4734091 4.99041522 194.5606563 4.55419922 203.64086914 C4.49738983 204.86447647 4.44058044 206.0880838 4.38204956 207.34877014 C3.43358557 213.59404732 0.59215687 217.6135918 -4.125 221.6875 C-9.8338601 225.51051193 -14.30846275 226.80739604 -21.11509705 226.83467102 C-22.95520607 226.84540398 -22.95520607 226.84540398 -24.83248901 226.85635376 C-26.18902563 226.85919376 -27.54556251 226.86190552 -28.90209961 226.86450195 C-30.33298405 226.87076945 -31.76386687 226.87741651 -33.19474792 226.88441467 C-37.88893509 226.90541574 -42.58312244 226.91581034 -47.27734375 226.92578125 C-48.89435913 226.92982967 -50.51137433 226.93394662 -52.12838936 226.93813133 C-59.72255417 226.95717085 -67.3167093 226.97140695 -74.91089338 226.9797433 C-83.67634553 226.98952474 -92.44154577 227.01587289 -101.20690912 227.05624419 C-107.98408408 227.08638771 -114.76118671 227.10121032 -121.53842741 227.10452431 C-125.5857341 227.10687596 -129.63277125 227.11585167 -133.68000603 227.14098549 C-137.48614378 227.16424194 -141.29183402 227.16850953 -145.09802437 227.15822411 C-146.49402987 227.15772811 -147.89005724 227.16406751 -149.28599548 227.17778015 C-151.19322161 227.19546598 -153.1006416 227.18601836 -155.00791931 227.17524719 C-156.07476928 227.17763555 -157.14161924 227.1800239 -158.240798 227.18248463 C-161.8605286 226.56126912 -163.52122988 225.23126856 -166.125 222.6875 C-167.3125 219.9375 -167.3125 219.9375 -167.125 216.6875 C-164.16790779 211.23402198 -159.8792911 207.56855396 -155.125 203.6875 C-153.27568622 201.68508399 -151.50327157 199.62882044 -149.73046875 197.55859375 C-147.95238274 195.4863232 -146.16749184 193.5030483 -144.125 191.6875 C-143.465 191.6875 -142.805 191.6875 -142.125 191.6875 C-141.88394531 191.12160156 -141.64289062 190.55570313 -141.39453125 189.97265625 C-139.8700348 187.22856265 -138.03841048 185.33594638 -135.8125 183.125 C-135.05324219 182.36058594 -134.29398438 181.59617187 -133.51171875 180.80859375 C-127.73772656 175.67720626 -123.17143265 174.57195536 -115.59985352 174.52978516 C-114.95381165 174.52470444 -114.30776978 174.51962372 -113.64215088 174.51438904 C-112.2437073 174.50371611 -110.84524696 174.49508395 -109.44677925 174.48826981 C-107.23127054 174.47644165 -105.01595334 174.45698006 -102.80052185 174.43515015 C-96.50306583 174.37365795 -90.20563207 174.31948196 -83.90795898 174.28613281 C-80.05172926 174.26516546 -76.19585368 174.22985056 -72.33982658 174.18537521 C-70.87309885 174.17123633 -69.40630851 174.16249753 -67.93951607 174.15932083 C-65.88581481 174.15440109 -63.83305107 174.13121952 -61.77954102 174.10400391 C-60.61246109 174.09591705 -59.44538116 174.0878302 -58.24293518 174.07949829 C-54.77502456 173.6434998 -52.87794342 172.81828709 -50.125 170.6875 C-49.16222522 167.79917567 -49.0055457 166.01957388 -49.01820374 163.02145386 C-49.01971939 162.06270859 -49.02123505 161.10396332 -49.02279663 160.11616516 C-49.029534 159.06575546 -49.03627136 158.01534576 -49.04321289 156.93310547 C-49.04627945 155.82546341 -49.04934601 154.71782135 -49.05250549 153.57661438 C-49.059668 151.16702431 -49.06906184 148.7574401 -49.08040047 146.34786606 C-49.09776406 142.53098921 -49.10808229 138.7141541 -49.11631775 134.89724731 C-49.1407897 124.04311006 -49.1762036 113.18903253 -49.22094727 102.33496094 C-49.24821923 95.69848735 -49.2647931 89.06203367 -49.27581596 82.42551041 C-49.28201339 79.89862993 -49.29200317 77.37175574 -49.30589485 74.84490585 C-49.32518672 71.30264931 -49.33201815 67.76056386 -49.33618164 64.21826172 C-49.34494324 63.17999741 -49.35370483 62.14173309 -49.36273193 61.07200623 C-49.34386514 46.95753075 -45.4148033 39.93878241 -35.58935547 30.07543945 C-34.55753548 29.05265383 -33.52037666 28.03521592 -32.47705078 27.02416992 C-29.94182113 24.56188752 -27.59293647 22.08565935 -25.3828125 19.32421875 C-24.63773438 18.45410156 -23.89265625 17.58398438 -23.125 16.6875 C-22.465 16.6875 -21.805 16.6875 -21.125 16.6875 C-20.85550537 16.09348389 -20.58601074 15.49946777 -20.30834961 14.88745117 C-19.12849245 12.69399278 -17.94065094 11.24518727 -16.19140625 9.48828125 C-15.62486328 8.91916016 -15.05832031 8.35003906 -14.47460938 7.76367188 C-13.88486328 7.18166016 -13.29511719 6.59964844 -12.6875 6 C-12.10162109 5.40638672 -11.51574219 4.81277344 -10.91210938 4.20117188 C-10.34427734 3.63591797 -9.77644531 3.07066406 -9.19140625 2.48828125 C-8.67521729 1.97434814 -8.15902832 1.46041504 -7.62719727 0.9309082 C-4.70458816 -1.48821226 -3.47024287 -1.45750201 0 0 Z " fill="#0A54A1" transform="translate(681.125,478.3125)"/>
<path d="M0 0 C6.78116464 3.82211098 12.00154412 8.12796427 14.80859375 15.5546875 C16.72153164 22.8024646 15.87878545 28.77780044 12.2734375 35.33203125 C8.66450115 40.45364943 4.2114085 44.89389957 -0.5625 48.9375 C-1.2225 48.9375 -1.8825 48.9375 -2.5625 48.9375 C-2.9028125 49.76507813 -2.9028125 49.76507813 -3.25 50.609375 C-4.94975926 53.62442417 -7.11054816 55.74980369 -9.5625 58.1875 C-10.8928125 59.52554688 -10.8928125 59.52554688 -12.25 60.890625 C-14.5625 62.9375 -14.5625 62.9375 -16.5625 62.9375 C-16.76875 63.47375 -16.975 64.01 -17.1875 64.5625 C-19.09500426 67.85728009 -21.61069384 70.53113628 -24.5625 72.9375 C-25.2225 72.9375 -25.8825 72.9375 -26.5625 72.9375 C-26.76875 73.46859375 -26.975 73.9996875 -27.1875 74.546875 C-29.14211192 77.94523436 -31.78373717 80.44805928 -34.5625 83.1875 C-35.1090625 83.74179687 -35.655625 84.29609375 -36.21875 84.8671875 C-40.3091133 88.9375 -40.3091133 88.9375 -42.5625 88.9375 C-42.76875 89.494375 -42.975 90.05125 -43.1875 90.625 C-44.72308874 93.20758106 -46.59243228 94.68125086 -48.9296875 96.52734375 C-50.64084906 98.00516509 -52.00616679 99.56439633 -53.4375 101.3125 C-55.61537071 103.94527843 -57.89130143 106.16841296 -60.5 108.375 C-63.32528456 110.76521222 -65.75035201 113.22463592 -68.125 116.0625 C-73.02393494 121.79458714 -77.96809536 125.62811989 -85.5625 126.9375 C-101.92459377 126.90884484 -112.67214692 112.0027477 -123.4296875 101.30859375 C-124.0223151 100.72004168 -124.6149427 100.1314896 -125.22552872 99.52510262 C-128.35183012 96.41946788 -131.47498459 93.31070708 -134.59570312 90.19946289 C-137.80150489 87.00479132 -141.01883658 83.82199096 -144.23876762 80.64157009 C-146.73338287 78.1731501 -149.21902278 75.69583681 -151.70236588 73.21608162 C-152.8846573 72.03863461 -154.07030097 70.86454296 -155.25945663 69.69402885 C-169.99479173 55.17578042 -169.99479173 55.17578042 -170.8125 44.75 C-170.32924321 37.38033391 -167.75623822 32.25202283 -162.5625 26.9375 C-156.97486206 22.56456596 -151.72135783 20.63051123 -144.625 21 C-139.33624607 21.67516008 -135.75878681 23.75963785 -131.5625 26.9375 C-130.69625 27.55625 -129.83 28.175 -128.9375 28.8125 C-126.98053163 30.5634717 -125.41725977 32.24303047 -123.75 34.25 C-121.66818796 36.74607691 -119.54515876 38.90376787 -117.0625 41 C-112.875923 44.56513197 -108.96608617 48.38123225 -105.0625 52.25 C-104.42634766 52.87334229 -103.79019531 53.49668457 -103.13476562 54.13891602 C-102.54373047 54.72858154 -101.95269531 55.31824707 -101.34375 55.92578125 C-100.80814453 56.45727783 -100.27253906 56.98877441 -99.72070312 57.53637695 C-98.5625 58.9375 -98.5625 58.9375 -98.5625 60.9375 C-97.985 61.185 -97.4075 61.4325 -96.8125 61.6875 C-94.5625 62.9375 -94.5625 62.9375 -92.75 65.0625 C-90.63281294 67.18732095 -90.63281294 67.18732095 -87.45703125 67.5546875 C-81.61298624 66.62854998 -78.9871878 63.15706595 -75.0625 58.9375 C-74.34191406 58.19371094 -73.62132812 57.44992187 -72.87890625 56.68359375 C-69.58560918 53.25927943 -66.39759365 49.76871008 -63.3125 46.15625 C-57.70937312 39.68864069 -51.47157101 33.79259812 -45.38720703 27.78271484 C-39.72013508 22.17881354 -34.10957952 16.58781789 -28.93164062 10.52001953 C-21.05724229 1.41840576 -11.98078326 -3.57321606 0 0 Z " fill="#0D5FA4" transform="translate(557.5625,456.0625)"/>
<path d="M0 0 C2.875 1.6875 2.875 1.6875 3.875 3.6875 C3.99659612 5.8728528 4.05260594 8.0619307 4.08032227 10.25048828 C4.0902162 10.934442 4.10011013 11.61839571 4.11030388 12.32307529 C4.14228104 14.63461837 4.16695872 16.9461783 4.19140625 19.2578125 C4.21220738 20.92153776 4.23329746 22.58525943 4.25465393 24.24897766 C4.31135748 28.81221609 4.36059523 33.37550687 4.40763092 37.93885422 C4.43745804 40.80846292 4.46889297 43.67805024 4.50067139 46.54763794 C4.85476142 78.92256922 4.98272412 111.29728436 4.99793625 143.67403412 C4.99999245 147.11238336 5.00375025 150.55072734 5.00784302 153.98907471 C5.01373734 159.44858381 5.01382335 164.90806446 5.00938225 170.36757469 C5.00835541 172.37319102 5.00887863 174.37880889 5.01114082 176.38442421 C5.01963161 185.4734091 4.99041522 194.5606563 4.55419922 203.64086914 C4.49738983 204.86447647 4.44058044 206.0880838 4.38204956 207.34877014 C3.43358557 213.59404732 0.59215687 217.6135918 -4.125 221.6875 C-9.8338601 225.51051193 -14.30846275 226.80739604 -21.11509705 226.83467102 C-22.95520607 226.84540398 -22.95520607 226.84540398 -24.83248901 226.85635376 C-26.18902563 226.85919376 -27.54556251 226.86190552 -28.90209961 226.86450195 C-30.33298405 226.87076945 -31.76386687 226.87741651 -33.19474792 226.88441467 C-37.88893509 226.90541574 -42.58312244 226.91581034 -47.27734375 226.92578125 C-48.89435913 226.92982967 -50.51137433 226.93394662 -52.12838936 226.93813133 C-59.72255417 226.95717085 -67.3167093 226.97140695 -74.91089338 226.9797433 C-83.67634553 226.98952474 -92.44154577 227.01587289 -101.20690912 227.05624419 C-107.98408408 227.08638771 -114.76118671 227.10121032 -121.53842741 227.10452431 C-125.5857341 227.10687596 -129.63277125 227.11585167 -133.68000603 227.14098549 C-137.48614378 227.16424194 -141.29183402 227.16850953 -145.09802437 227.15822411 C-146.49402987 227.15772811 -147.89005724 227.16406751 -149.28599548 227.17778015 C-151.19322161 227.19546598 -153.1006416 227.18601836 -155.00791931 227.17524719 C-156.07476928 227.17763555 -157.14161924 227.1800239 -158.240798 227.18248463 C-161.8605286 226.56126912 -163.52122988 225.23126856 -166.125 222.6875 C-167.3125 219.9375 -167.3125 219.9375 -167.125 216.6875 C-164.16790779 211.23402198 -159.8792911 207.56855396 -155.125 203.6875 C-153.27568622 201.68508399 -151.50327157 199.62882044 -149.73046875 197.55859375 C-147.95238274 195.4863232 -146.16749184 193.5030483 -144.125 191.6875 C-143.465 191.6875 -142.805 191.6875 -142.125 191.6875 C-141.88394531 191.12160156 -141.64289062 190.55570313 -141.39453125 189.97265625 C-139.8700348 187.22856265 -138.03841048 185.33594638 -135.8125 183.125 C-135.05324219 182.36058594 -134.29398438 181.59617187 -133.51171875 180.80859375 C-127.73772656 175.67720626 -123.17143265 174.57195536 -115.59985352 174.52978516 C-114.95381165 174.52470444 -114.30776978 174.51962372 -113.64215088 174.51438904 C-112.2437073 174.50371611 -110.84524696 174.49508395 -109.44677925 174.48826981 C-107.23127054 174.47644165 -105.01595334 174.45698006 -102.80052185 174.43515015 C-96.50306583 174.37365795 -90.20563207 174.31948196 -83.90795898 174.28613281 C-80.05172926 174.26516546 -76.19585368 174.22985056 -72.33982658 174.18537521 C-70.87309885 174.17123633 -69.40630851 174.16249753 -67.93951607 174.15932083 C-65.88581481 174.15440109 -63.83305107 174.13121952 -61.77954102 174.10400391 C-60.61246109 174.09591705 -59.44538116 174.0878302 -58.24293518 174.07949829 C-54.77502456 173.6434998 -52.87794342 172.81828709 -50.125 170.6875 C-49.15922288 167.79016863 -49.00559779 165.99685007 -49.01820374 162.98780823 C-49.01971939 162.02183716 -49.02123505 161.05586609 -49.02279663 160.06062317 C-49.029534 159.00235825 -49.03627136 157.94409332 -49.04321289 156.85375977 C-49.04627945 155.73808624 -49.04934601 154.62241272 -49.05250549 153.47293091 C-49.05966688 151.04695994 -49.06906014 148.62099478 -49.08040047 146.19503975 C-49.09774837 142.35853314 -49.10807633 138.52206793 -49.11631775 134.68553162 C-49.14081078 123.77623554 -49.17634826 112.86699563 -49.22094727 101.95776367 C-49.24812578 95.28888711 -49.26476085 88.62004966 -49.27581596 81.95112419 C-49.28203506 79.40615583 -49.29205187 76.86119388 -49.30589485 74.31625557 C-49.32506051 70.76100669 -49.33200015 67.20592826 -49.33618164 63.65063477 C-49.34494324 62.59439407 -49.35370483 61.53815338 -49.36273193 60.4499054 C-49.36142776 59.4811145 -49.3601236 58.51232361 -49.35877991 57.51417542 C-49.36349351 56.25347654 -49.36349351 56.25347654 -49.36830235 54.967309 C-49.10216065 52.47348907 -48.37568447 50.84307406 -47.125 48.6875 C-47.00817536 64.50790186 -46.92001634 80.32818719 -46.86593914 96.14891338 C-46.8401622 103.49484874 -46.80502195 110.84051601 -46.74780273 118.1862793 C-46.69795151 124.58920036 -46.66570526 130.99192726 -46.65455753 137.395037 C-46.64804146 140.78525154 -46.63273908 144.17491068 -46.59634972 147.56494713 C-46.56014034 151.35052016 -46.55505159 155.13493642 -46.55737305 158.9206543 C-46.53939667 160.04346802 -46.52142029 161.16628174 -46.50289917 162.32312012 C-46.55310283 169.87121232 -46.55310283 169.87121232 -49.34797668 173.86042786 C-54.06299112 176.96255217 -58.16300133 176.80987841 -63.70019531 176.79760742 C-65.01215881 176.79818649 -66.32412231 176.79876556 -67.67584229 176.79936218 C-68.37242195 176.79793402 -69.06900162 176.79650585 -69.78668976 176.79503441 C-73.50500048 176.79148906 -77.22316472 176.81734613 -80.94140625 176.83789062 C-85.65947128 176.86217545 -90.37709609 176.87795353 -95.09521484 176.86254883 C-98.92042854 176.85083013 -102.74455827 176.86843177 -106.56960297 176.90499306 C-108.01908795 176.91355767 -109.46867803 176.91160625 -110.91812897 176.898489 C-119.74855546 176.82455808 -126.42365062 177.41654455 -133.125 183.6875 C-134.88608841 185.54438107 -136.54485959 187.43352894 -138.17333984 189.40771484 C-140.50437416 192.13065685 -143.00580625 194.65569861 -145.55078125 197.17578125 C-146.26776688 197.88769119 -146.26776688 197.88769119 -146.99923706 198.61398315 C-148.476624 200.0780628 -149.95662911 201.53944483 -151.4375 203 C-153.41567187 204.95151273 -155.39044457 206.90637692 -157.36328125 208.86328125 C-158.22993408 209.71833252 -159.09658691 210.57338379 -159.98950195 211.4543457 C-162.25465689 213.69331974 -162.25465689 213.69331974 -164.125 216.6875 C-163.8008631 220.00990324 -163.51723697 221.29526303 -161.125 223.6875 C-158.48897898 223.99556414 -158.48897898 223.99556414 -155.3576355 223.94819641 C-154.1295668 223.95528122 -152.90149811 223.96236603 -151.63621521 223.96966553 C-150.26773035 223.96737143 -148.89924583 223.96486169 -147.53076172 223.9621582 C-146.09518671 223.96650366 -144.65961402 223.97168625 -143.2240448 223.97764587 C-139.31669991 223.99107136 -135.40945154 223.99161017 -131.50208807 223.98908257 C-128.23949786 223.98801434 -124.9769273 223.99289291 -121.71434128 223.997688 C-114.01234547 224.0087974 -106.3103984 224.00921385 -98.60839844 224.00317383 C-90.67069426 223.99714433 -82.73316781 224.0094156 -74.79549396 224.0307439 C-67.9783884 224.04838583 -61.16133924 224.05435681 -54.3442117 224.05110615 C-50.27392892 224.04929583 -46.20377265 224.05190353 -42.13351059 224.06582069 C-38.3003429 224.07843511 -34.46745055 224.076421 -30.63428688 224.06340981 C-29.23149458 224.06105156 -27.8286827 224.06375165 -26.42591286 224.07203293 C-18.95322458 224.11294619 -12.9281525 223.9010881 -6.125 220.6875 C-5.34125 220.378125 -4.5575 220.06875 -3.75 219.75 C-1.60119198 218.34501014 -1.07307221 217.05768053 -0.125 214.6875 C0.21808638 213.99186604 0.56117275 213.29623209 0.91465569 212.57951832 C2.17634423 208.78002022 2.14465488 205.1843839 2.11550903 201.22770691 C2.11721788 200.37813945 2.11892673 199.52857198 2.12068737 198.65326005 C2.12398019 195.80806072 2.11298193 192.96309751 2.10205078 190.11791992 C2.10148662 188.07779954 2.10180332 186.03767874 2.10293579 183.99755859 C2.10351012 178.45873961 2.09174272 172.92000706 2.07778788 167.38120818 C2.06529397 161.59295447 2.06411107 155.80469883 2.06173706 150.01643372 C2.05551836 139.05533922 2.03910223 128.09428456 2.01903808 117.13320762 C1.99669125 104.65449547 1.98568871 92.17578144 1.97564721 79.69705427 C1.95473637 54.02718074 1.91955277 28.3573426 1.875 2.6875 C-2.30411133 1.63572565 -2.30411133 1.63572565 -6.21484375 2.83984375 C-6.82457031 3.42894531 -7.43429687 4.01804687 -8.0625 4.625 C-8.97322266 5.47384766 -8.97322266 5.47384766 -9.90234375 6.33984375 C-11.78947768 8.33310824 -13.58630887 10.36418893 -15.37890625 12.44140625 C-19.72548385 17.44660892 -24.43434022 22.04838543 -29.1640625 26.6875 C-35.72674262 33.17416452 -41.83827358 39.45698527 -46.125 47.6875 C-46.79296875 45.9375 -46.79296875 45.9375 -47.125 43.6875 C-43.77024029 37.26294087 -37.6473908 32.03331843 -32.4777832 27.02539062 C-29.94268663 24.56236828 -27.59321195 22.08600356 -25.3828125 19.32421875 C-24.63773438 18.45410156 -23.89265625 17.58398438 -23.125 16.6875 C-22.465 16.6875 -21.805 16.6875 -21.125 16.6875 C-20.85550537 16.09348389 -20.58601074 15.49946777 -20.30834961 14.88745117 C-19.12849245 12.69399278 -17.94065094 11.24518727 -16.19140625 9.48828125 C-15.62486328 8.91916016 -15.05832031 8.35003906 -14.47460938 7.76367188 C-13.88486328 7.18166016 -13.29511719 6.59964844 -12.6875 6 C-12.10162109 5.40638672 -11.51574219 4.81277344 -10.91210938 4.20117188 C-10.34427734 3.63591797 -9.77644531 3.07066406 -9.19140625 2.48828125 C-8.67521729 1.97434814 -8.15902832 1.46041504 -7.62719727 0.9309082 C-4.70458816 -1.48821226 -3.47024287 -1.45750201 0 0 Z " fill="#092D56" transform="translate(681.125,478.3125)"/>
<path d="M0 0 C0 3 0 3 -2.16796875 5.27734375 C-3.16731888 6.17212455 -4.17445393 7.05825542 -5.1875 7.9375 C-6.29727413 8.9266357 -7.40663533 9.91623486 -8.515625 10.90625 C-9.3809082 11.67195313 -9.3809082 11.67195313 -10.26367188 12.453125 C-13.02253175 14.91096192 -15.7286165 17.42487655 -18.4375 19.9375 C-19.52845703 20.94551687 -20.61960408 21.95332814 -21.7109375 22.9609375 C-22.80731635 23.97393162 -23.90367048 24.98695249 -25 26 C-47.07148204 46.39483533 -47.07148204 46.39483533 -54.6875 53.1875 C-60.0802078 58.02443759 -65.33463667 63.00526761 -70.60229492 67.97729492 C-78.27203352 75.21172633 -85.98986475 82.38278848 -93.9375 89.3125 C-100.08082383 94.76456053 -103.71763655 98.55277564 -104.25 106.9375 C-104.1717094 110.77373934 -103.56968203 113.01585312 -101 116 C-96.02545468 119.55667975 -91.45445962 121.08956697 -85.41015625 121.17578125 C-84.54326172 121.19962891 -83.67636719 121.22347656 -82.78320312 121.24804688 C-80.97354526 121.29091745 -79.16357538 121.32222161 -77.35351562 121.34179688 C-73.12751385 121.47670265 -70.61265888 121.62928285 -66.93359375 123.85546875 C-63.55777502 127.59955862 -63.87183232 130.99481459 -63.86196899 135.84344482 C-63.85914771 136.54344014 -63.85632643 137.24343546 -63.85341966 137.96464276 C-63.84507049 140.31595789 -63.84373513 142.66722594 -63.84228516 145.01855469 C-63.83761713 146.70220065 -63.83247358 148.38584535 -63.82688904 150.06948853 C-63.81560464 153.69863517 -63.80717207 157.32777358 -63.80076981 160.95693207 C-63.79009323 166.69716962 -63.76984891 172.43734815 -63.74765015 178.17755127 C-63.68571559 194.50180354 -63.63172323 210.82605254 -63.59863281 227.15039062 C-63.58028228 236.16355856 -63.55134048 245.17662784 -63.5106281 254.18972325 C-63.48956465 258.95913616 -63.47410177 263.72842478 -63.47182083 268.49788666 C-63.46967193 272.98606298 -63.45377777 277.47398059 -63.42743111 281.96207809 C-63.4202458 283.6071594 -63.41813342 285.25227208 -63.42153358 286.89736557 C-63.42544159 289.1480884 -63.4109319 291.3979903 -63.39199829 293.64862061 C-63.38868814 294.90665874 -63.385378 296.16469688 -63.38196754 297.46085739 C-62.79200553 302.92718495 -61.06933338 307.73652103 -56.6875 311.3125 C-56.13449219 311.78300781 -55.58148438 312.25351562 -55.01171875 312.73828125 C-50.28241861 315.70442483 -45.64029593 316.25189659 -40.15092468 316.26742554 C-39.15433145 316.27422221 -39.15433145 316.27422221 -38.13760501 316.28115618 C-35.92459119 316.293756 -33.71182488 316.29218271 -31.4987793 316.29052734 C-29.90660284 316.29651538 -28.31442928 316.30332156 -26.72225952 316.31088257 C-22.40601689 316.32852217 -18.0898536 316.3332371 -13.77357841 316.33451414 C-11.07421596 316.3359375 -8.37487358 316.34021062 -5.67551613 316.34550858 C3.74945731 316.3640024 13.17437425 316.37218004 22.59936523 316.37060547 C31.37218117 316.36940438 40.14475095 316.39050195 48.91750461 316.4220928 C56.45996608 316.44828135 64.00234729 316.45897168 71.54485387 316.45769465 C76.04495255 316.45718576 80.54483241 316.46282859 85.04488564 316.48405075 C89.27951276 316.5034766 93.51371331 316.50352813 97.74835587 316.48901749 C99.29747964 316.48693363 100.84663042 316.49160497 102.39570808 316.5037384 C115.57279845 316.67585774 115.57279845 316.67585774 126.73090076 310.36517906 C127.14970351 309.91466997 127.56850626 309.46416088 128 309 C128.66 309.33 129.32 309.66 130 310 C128.89985294 311.14931564 127.76792483 312.26821509 126.625 313.375 C125.99851562 314.00148438 125.37203125 314.62796875 124.7265625 315.2734375 C116.62297499 320.40493561 105.86430929 319.29215117 96.61132812 319.2746582 C95.07929742 319.27901332 93.54726889 319.28419911 92.01524353 319.29014587 C87.88097374 319.30345895 83.7467958 319.30412334 79.61250877 319.30158257 C76.15087995 319.30050795 72.68926934 319.30540858 69.22764444 319.310188 C61.05751064 319.32125586 52.88742282 319.32173548 44.71728516 319.31567383 C36.30912312 319.30963126 27.9011283 319.32195847 19.49299479 319.3432439 C12.25277092 319.36089383 5.01260013 319.36685605 -2.22764444 319.36360615 C-6.54267336 319.36179909 -10.85758288 319.36437196 -15.17259216 319.37832069 C-19.23075942 319.39095038 -23.28866682 319.38890671 -27.34683037 319.37590981 C-28.82941719 319.3735559 -30.31202261 319.37623585 -31.79458809 319.38453293 C-50.77123297 319.48301572 -50.77123297 319.48301572 -58.375 313.75 C-67.94627467 303.72295034 -66.14265727 291.22726885 -66.08178711 278.1965332 C-66.07822469 276.62023007 -66.07514044 275.04392579 -66.07249451 273.46762085 C-66.06597872 270.09177088 -66.05644282 266.71594811 -66.04459953 263.34011269 C-66.02620913 257.99841019 -66.01668264 252.65671403 -66.00868225 247.31498718 C-65.98460185 232.13175617 -65.94860718 216.94856506 -65.90405273 201.76538086 C-65.87948221 193.36566632 -65.86213549 184.96596712 -65.85249335 176.56622189 C-65.84596508 171.2593433 -65.83043856 165.95259206 -65.80817592 160.64575732 C-65.7964236 157.34365181 -65.79307728 154.04157699 -65.79207802 150.73945236 C-65.78993584 149.21205824 -65.78436244 147.68466435 -65.7750473 146.15729713 C-65.76279476 144.06698215 -65.76302497 141.97701345 -65.76622009 139.88667297 C-65.76307769 138.71884435 -65.75993528 137.55101572 -65.75669765 136.34779835 C-66.02531677 132.65164557 -66.78250357 129.49625981 -68 126 C-70.76099836 123.85820154 -73.27702118 123.75184488 -76.703125 123.7265625 C-77.60160156 123.7059375 -78.50007813 123.6853125 -79.42578125 123.6640625 C-81.29287915 123.63823819 -83.16009682 123.61987991 -85.02734375 123.609375 C-92.45518875 123.41864574 -98.14806979 122.0020318 -103.375 116.5 C-104.179375 115.2625 -104.179375 115.2625 -105 114 C-105.4125 113.38125 -105.825 112.7625 -106.25 112.125 C-107.85429112 107.57950848 -107.46257003 103.48041167 -105.5625 99.125 C-101.46006591 91.63044726 -94.29468919 86.16580061 -87.8984375 80.6796875 C-85.44277086 78.50697834 -83.16839496 76.18123328 -80.87304688 73.84179688 C-79.07300825 72.07179017 -77.21925344 70.41808264 -75.3046875 68.7734375 C-70.96817728 65.00316586 -66.79114532 61.08157588 -62.625 57.125 C-57.26584241 52.05781252 -51.87963458 47.03453895 -46.375 42.125 C-41.53943418 37.79844111 -36.77513933 33.39300877 -32 29 C-31.49098145 28.53223145 -30.98196289 28.06446289 -30.45751953 27.58251953 C-25.1892416 22.73982669 -19.93309104 17.88570789 -14.7265625 12.9765625 C-13.6422998 11.9551416 -13.6422998 11.9551416 -12.53613281 10.91308594 C-11.11955829 9.5771659 -9.70477723 8.23934099 -8.29199219 6.89941406 C-7.64649414 6.2906543 -7.00099609 5.68189453 -6.3359375 5.0546875 C-5.76407715 4.51312012 -5.1922168 3.97155273 -4.60302734 3.41357422 C-3 2 -3 2 0 0 Z " fill="#1B7242" transform="translate(343,386)"/>
<path d="M0 0 C6.78116464 3.82211098 12.00154412 8.12796427 14.80859375 15.5546875 C16.81432558 23.15404413 15.65579607 28.90999856 11.875 35.73046875 C9.97880378 38.64174828 8.13746669 40.74833782 5.4375 42.9375 C4.7775 42.9375 4.1175 42.9375 3.4375 42.9375 C3.4375 42.2775 3.4375 41.6175 3.4375 40.9375 C4.55125 40.133125 4.55125 40.133125 5.6875 39.3125 C10.05093487 35.54407898 12.06043101 31.77123063 12.82421875 26.03125 C13.06017612 19.5871728 12.58011814 14.07571973 8.4375 8.9375 C3.65724293 4.6201532 -0.23565708 1.79532361 -6.75 1.6875 C-8.13251953 1.64882813 -8.13251953 1.64882813 -9.54296875 1.609375 C-16.44382751 2.35927427 -20.83265343 5.61541725 -25.5390625 10.48828125 C-26.33876968 11.29292061 -26.33876968 11.29292061 -27.15463257 12.11381531 C-28.84187427 13.81668333 -30.51444251 15.53320718 -32.1875 17.25 C-33.31683343 18.3908407 -34.447035 19.53082271 -35.578125 20.66992188 C-36.67004782 21.77527466 -37.76121907 22.88137049 -38.8515625 23.98828125 C-39.35064117 24.49474686 -39.84971985 25.00121246 -40.36392212 25.52302551 C-42.80705678 28.03182531 -45.10404334 30.57551696 -47.29443359 33.30932617 C-48.04289551 34.17662354 -48.79135742 35.0439209 -49.5625 35.9375 C-50.2225 35.9375 -50.8825 35.9375 -51.5625 35.9375 C-51.8925 36.9275 -52.2225 37.9175 -52.5625 38.9375 C-54.18802379 40.64431808 -55.86299189 42.30433506 -57.5625 43.9375 C-58.51519421 44.91750337 -59.46280217 45.90247209 -60.40576172 46.8918457 C-63.1417106 49.75203004 -65.89856338 52.59101016 -68.66357422 55.4230957 C-69.84894356 56.64386625 -71.02798186 57.87081539 -72.20068359 59.10375977 C-73.90644237 60.8945445 -75.63394964 62.66163032 -77.3671875 64.42578125 C-77.88409149 64.97881424 -78.40099548 65.53184723 -78.93356323 66.10163879 C-81.59904846 68.76992093 -83.34117959 69.89584856 -87.07421875 70.59838867 C-91.39929981 69.77896017 -93.58941459 67.91826677 -96.5703125 64.875 C-97.12123566 64.33987793 -97.67215881 63.80475586 -98.23977661 63.25341797 C-100.03344625 61.49994569 -101.79917431 59.72145008 -103.5625 57.9375 C-104.77925982 56.72229311 -105.99638544 55.50745237 -107.21386719 54.29296875 C-111.62083535 49.87714222 -115.99994018 45.43392311 -120.35839844 40.97021484 C-122.22951556 39.05663739 -124.11008026 37.15276071 -125.9921875 35.25 C-126.54961639 34.6739502 -127.10704529 34.09790039 -127.68136597 33.50439453 C-132.8155152 28.33728789 -138.68924371 23.84553695 -146.1875 23.625 C-153.14536842 23.71523172 -157.90606817 26.17170503 -162.9375 30.875 C-167.29413406 35.64598784 -168.01512568 40.02396751 -167.8828125 46.375 C-166.75328213 55.41124292 -160.0801567 61.70703707 -153.3671875 67.19140625 C-151.49426458 69.00351998 -150.6641444 70.60576836 -149.5625 72.9375 C-148.23842331 73.62236725 -146.90340759 74.28620203 -145.5625 74.9375 C-141.82816354 78.36905242 -138.57473537 82.19663293 -135.25390625 86.01953125 C-132.15465667 89.53392281 -128.8971144 92.6936744 -125.25 95.625 C-124.363125 96.388125 -123.47625 97.15125 -122.5625 97.9375 C-122.5625 98.5975 -122.5625 99.2575 -122.5625 99.9375 C-121.9025 99.9375 -121.2425 99.9375 -120.5625 99.9375 C-118.82714019 101.56141469 -117.19648632 103.21483972 -115.5625 104.9375 C-112.92642028 107.65544555 -110.27634582 110.35945663 -107.625 113.0625 C-106.93470703 113.77792969 -106.24441406 114.49335937 -105.53320312 115.23046875 C-101.18999136 119.63543234 -97.38463562 123.27252029 -91.0703125 124.37109375 C-89.89082031 124.37302734 -89.89082031 124.37302734 -88.6875 124.375 C-87.51574219 124.40400391 -87.51574219 124.40400391 -86.3203125 124.43359375 C-77.49330456 122.84573255 -72.15112153 116.97533818 -66.1875 110.6875 C-64.6007654 109.03221847 -63.00984054 107.38093994 -61.4140625 105.734375 C-60.72135254 105.00573242 -60.02864258 104.27708984 -59.31494141 103.52636719 C-57.5625 101.9375 -57.5625 101.9375 -55.5625 101.9375 C-55.315 101.31875 -55.0675 100.7 -54.8125 100.0625 C-53.32509631 97.53391373 -52.12571991 97.21910996 -49.5625 95.9375 C-49.27375 95.339375 -48.985 94.74125 -48.6875 94.125 C-47.50218667 91.82022409 -46.49073763 90.91549301 -44.5 89.3125 C-41.55425287 87.26630603 -41.55425287 87.26630603 -40.5625 84.9375 C-39.9025 84.9375 -39.2425 84.9375 -38.5625 84.9375 C-38.19125 84.07125 -38.19125 84.07125 -37.8125 83.1875 C-36.37950012 80.60810021 -34.77825324 78.87628408 -32.5625 76.9375 C-31.9025 76.9375 -31.2425 76.9375 -30.5625 76.9375 C-29.5725 74.9575 -29.5725 74.9575 -28.5625 72.9375 C-27.9025 72.9375 -27.2425 72.9375 -26.5625 72.9375 C-28.22713038 77.22392324 -31.35325837 80.02367217 -34.5625 83.1875 C-35.1090625 83.74179687 -35.655625 84.29609375 -36.21875 84.8671875 C-40.3091133 88.9375 -40.3091133 88.9375 -42.5625 88.9375 C-42.76875 89.494375 -42.975 90.05125 -43.1875 90.625 C-44.72308874 93.20758106 -46.59243228 94.68125086 -48.9296875 96.52734375 C-50.64084906 98.00516509 -52.00616679 99.56439633 -53.4375 101.3125 C-55.61537071 103.94527843 -57.89130143 106.16841296 -60.5 108.375 C-63.32528456 110.76521222 -65.75035201 113.22463592 -68.125 116.0625 C-73.02393494 121.79458714 -77.96809536 125.62811989 -85.5625 126.9375 C-101.92459377 126.90884484 -112.67214692 112.0027477 -123.4296875 101.30859375 C-124.0223151 100.72004168 -124.6149427 100.1314896 -125.22552872 99.52510262 C-128.35183012 96.41946788 -131.47498459 93.31070708 -134.59570312 90.19946289 C-137.80150489 87.00479132 -141.01883658 83.82199096 -144.23876762 80.64157009 C-146.73338287 78.1731501 -149.21902278 75.69583681 -151.70236588 73.21608162 C-152.8846573 72.03863461 -154.07030097 70.86454296 -155.25945663 69.69402885 C-169.99479173 55.17578042 -169.99479173 55.17578042 -170.8125 44.75 C-170.32924321 37.38033391 -167.75623822 32.25202283 -162.5625 26.9375 C-156.97486206 22.56456596 -151.72135783 20.63051123 -144.625 21 C-139.33624607 21.67516008 -135.75878681 23.75963785 -131.5625 26.9375 C-130.69625 27.55625 -129.83 28.175 -128.9375 28.8125 C-126.98053163 30.5634717 -125.41725977 32.24303047 -123.75 34.25 C-121.66818796 36.74607691 -119.54515876 38.90376787 -117.0625 41 C-112.875923 44.56513197 -108.96608617 48.38123225 -105.0625 52.25 C-104.42634766 52.87334229 -103.79019531 53.49668457 -103.13476562 54.13891602 C-102.54373047 54.72858154 -101.95269531 55.31824707 -101.34375 55.92578125 C-100.80814453 56.45727783 -100.27253906 56.98877441 -99.72070312 57.53637695 C-98.5625 58.9375 -98.5625 58.9375 -98.5625 60.9375 C-97.985 61.185 -97.4075 61.4325 -96.8125 61.6875 C-94.5625 62.9375 -94.5625 62.9375 -92.75 65.0625 C-90.63281294 67.18732095 -90.63281294 67.18732095 -87.45703125 67.5546875 C-81.61298624 66.62854998 -78.9871878 63.15706595 -75.0625 58.9375 C-74.34191406 58.19371094 -73.62132812 57.44992187 -72.87890625 56.68359375 C-69.58560918 53.25927943 -66.39759365 49.76871008 -63.3125 46.15625 C-57.70937312 39.68864069 -51.47157101 33.79259812 -45.38720703 27.78271484 C-39.72013508 22.17881354 -34.10957952 16.58781789 -28.93164062 10.52001953 C-21.05724229 1.41840576 -11.98078326 -3.57321606 0 0 Z " fill="#0D4268" transform="translate(557.5625,456.0625)"/>
<path d="M0 0 C-1.11440652 3.34321955 -1.97472343 4.06019619 -4.625 6.25 C-7.36859877 8.57375981 -9.98671796 10.92880824 -12.5 13.5 C-15.5928574 16.64960707 -18.85055565 19.55207563 -22.203125 22.421875 C-22.79609375 22.94265625 -23.3890625 23.4634375 -24 24 C-24.55171875 24.45890625 -25.1034375 24.9178125 -25.671875 25.390625 C-28.76823128 29.14268026 -28.1276282 34.55490689 -28.13371277 39.17333984 C-28.13597833 39.88462225 -28.13824388 40.59590466 -28.14057809 41.32874107 C-28.1468956 43.70615651 -28.14609018 46.08351461 -28.14526367 48.4609375 C-28.1482565 50.16782708 -28.15165932 51.87471599 -28.15544128 53.581604 C-28.16427128 58.21373094 -28.16661893 62.8458394 -28.16725707 67.47797394 C-28.16820702 71.34492627 -28.17188618 75.21187432 -28.17542917 79.078825 C-28.18356936 88.20033867 -28.18601374 97.32184248 -28.18530273 106.44335938 C-28.18470153 115.85519702 -28.1952628 125.26697743 -28.2110464 134.67880058 C-28.22411533 142.7595948 -28.22948693 150.84037029 -28.22884732 158.921175 C-28.22859222 163.74749896 -28.23145075 168.57377201 -28.24202538 173.40008545 C-28.25169586 177.93744815 -28.25179276 182.47471115 -28.24450874 187.01207733 C-28.24346171 188.6773671 -28.24583284 190.34266304 -28.2518692 192.0079422 C-28.25957511 194.28096589 -28.25495381 196.55364402 -28.24723816 198.82666016 C-28.24778293 200.09869293 -28.24832769 201.37072571 -28.24888897 202.68130493 C-28.00478734 205.93616542 -27.57925543 208.15130299 -26 211 C-23.27966007 211.90677998 -21.73804778 212.12219482 -18.94720459 212.11352539 C-18.12235628 212.1134508 -17.29750797 212.11337622 -16.44766426 212.11329937 C-15.54422216 212.10813714 -14.64078007 212.10297491 -13.70996094 212.09765625 C-12.75327955 212.09623281 -11.79659817 212.09480936 -10.81092644 212.09334278 C-7.61871499 212.08760555 -4.42656679 212.07493768 -1.234375 212.0625 C1.01307056 212.05753379 3.2605174 212.05312397 5.50796509 212.04924011 C10.28117608 212.0405634 15.0543735 212.02954122 19.82757568 212.01693726 C32.10117715 211.98649757 44.37480489 211.98752828 56.6484375 211.98828125 C58.45164396 211.98836905 58.45164396 211.98836905 60.29127884 211.98845863 C68.19418885 211.98930523 76.09709309 211.99291171 84 212 C84.92732437 212.00082329 85.85464874 212.00164658 86.81007385 212.00249481 C96.03608404 212.01232871 105.2607455 212.04511914 114.48620605 212.15258789 C116.73165666 212.17572102 118.97721506 212.19015255 121.22277832 212.19555664 C124.23008775 212.20448278 127.23530942 212.24373453 130.2421875 212.29296875 C131.07972565 212.2890361 131.91726379 212.28510345 132.78018188 212.28105164 C136.83292648 212.38587558 138.77683906 212.82649662 142.01611328 215.3449707 C144 218 144 218 144.5 221.1875 C144.335 222.115625 144.17 223.04375 144 224 C143.01 224.66 142.02 225.32 141 226 C141 223.03 141 220.06 141 217 C138.19376976 215.59688488 135.87271916 215.8688358 132.7323761 215.86196899 C132.08223783 215.85914771 131.43209957 215.85632643 130.76226014 215.85341966 C128.57367257 215.84505609 126.38513547 215.8437339 124.1965332 215.84228516 C122.63125973 215.83761812 121.06598762 215.83247474 119.50071716 215.82688904 C116.12419575 215.81559658 112.74768323 215.80716785 109.37114906 215.80076981 C104.03004789 215.79009969 98.68901029 215.76985652 93.34794617 215.74765015 C78.15785643 215.68569581 62.96776988 215.63173815 47.77758789 215.59863281 C39.39251452 215.58027804 31.0075471 215.55132938 22.62255162 215.5106281 C18.18511663 215.4895687 13.74781512 215.47410238 9.31032753 215.47182083 C5.13323024 215.46967075 0.95641064 215.45376473 -3.22060204 215.42743111 C-4.75118986 215.42024977 -6.28181137 215.41813149 -7.81241226 215.42153358 C-9.90775358 215.4254459 -12.00221568 215.41091858 -14.09745789 215.39199829 C-15.26830272 215.38868814 -16.43914755 215.385378 -17.64547253 215.38196754 C-22.15093294 214.86894755 -26.41279905 213.93744227 -29.42120647 210.26518154 C-30.24232094 207.05164641 -30.25549585 204.07529226 -30.26069641 200.75709534 C-30.26452196 200.02624959 -30.26834751 199.29540385 -30.27228898 198.54241127 C-30.28261025 196.09273558 -30.27862853 193.64329467 -30.2746582 191.19360352 C-30.27900516 189.43759952 -30.28418825 187.68159742 -30.29014587 185.92559814 C-30.30354873 181.15496894 -30.30411313 176.3844189 -30.30158257 171.61377454 C-30.30051376 167.63254276 -30.30539391 163.65132706 -30.310188 159.67009872 C-30.32128757 150.27867015 -30.32171801 140.88728157 -30.31567383 131.49584961 C-30.30963224 121.80395776 -30.32194873 112.11221102 -30.3432439 102.42034394 C-30.36085028 94.10177323 -30.36686279 85.78324876 -30.36360615 77.46466011 C-30.36179166 72.49521976 -30.36444606 67.52588293 -30.37832069 62.55645943 C-30.39087879 57.88363736 -30.3889741 53.21104178 -30.37590981 48.53822327 C-30.37354009 46.82294578 -30.37629283 45.10765245 -30.38453293 43.39239311 C-30.39496888 41.05129414 -30.38692565 38.71095961 -30.3742218 36.36988831 C-30.37438954 35.05968499 -30.37455729 33.74948168 -30.37473011 32.39957523 C-29.30137391 22.66201994 -18.99699232 15.75682611 -11.98828125 9.7734375 C-9.06243449 7.16374314 -6.36715528 4.34161521 -3.6640625 1.50390625 C-2 0 -2 0 0 0 Z " fill="#146A3C" transform="translate(361,440)"/>
<path d="M0 0 C0.33 0 0.66 0 1 0 C1.11682464 15.82040186 1.20498366 31.64068719 1.25906086 47.46141338 C1.2848378 54.80734874 1.31997805 62.15301601 1.37719727 69.4987793 C1.42704849 75.90170036 1.45929474 82.30442726 1.47044247 88.707537 C1.47695854 92.09775154 1.49226092 95.48741068 1.52865028 98.87744713 C1.56485966 102.66302016 1.56994841 106.44743642 1.56762695 110.2331543 C1.58560333 111.35596802 1.60357971 112.47878174 1.62210083 113.63562012 C1.57189717 121.18371232 1.57189717 121.18371232 -1.22297668 125.17292786 C-5.93799112 128.27505217 -10.03800133 128.12237841 -15.57519531 128.11010742 C-16.88715881 128.11068649 -18.19912231 128.11126556 -19.55084229 128.11186218 C-20.24742195 128.11043402 -20.94400162 128.10900585 -21.66168976 128.10753441 C-25.38000048 128.10398906 -29.09816472 128.12984613 -32.81640625 128.15039062 C-37.53447128 128.17467545 -42.25209609 128.19045353 -46.97021484 128.17504883 C-50.79542854 128.16333013 -54.61955827 128.18093177 -58.44460297 128.21749306 C-59.89408795 128.22605767 -61.34367803 128.22410625 -62.79312897 128.210989 C-71.62355546 128.13705808 -78.29865062 128.72904455 -85 135 C-86.76108841 136.85688107 -88.41985959 138.74602894 -90.04833984 140.72021484 C-92.37937416 143.44315685 -94.88080625 145.96819861 -97.42578125 148.48828125 C-98.14276688 149.20019119 -98.14276688 149.20019119 -98.87423706 149.92648315 C-100.351624 151.3905628 -101.83162911 152.85194483 -103.3125 154.3125 C-105.29067187 156.26401273 -107.26544457 158.21887692 -109.23828125 160.17578125 C-110.10493408 161.03083252 -110.97158691 161.88588379 -111.86450195 162.7668457 C-114.12965689 165.00581974 -114.12965689 165.00581974 -116 168 C-115.65262237 171.38693192 -114.64599285 174.03721286 -113 177 C-115.41103827 176.03558469 -116.77404758 175.31202953 -118.3125 173.1875 C-119.23275243 170.25942407 -119.03663388 168.90257486 -118 166 C-115.20168325 162.16230845 -112.33279588 159.38327043 -108.609375 156.41796875 C-106.01570657 154.13277059 -103.8502837 151.49252224 -101.60546875 148.87109375 C-99.82738274 146.7988232 -98.04249184 144.8155483 -96 143 C-95.34 143 -94.68 143 -94 143 C-93.75894531 142.43410156 -93.51789062 141.86820313 -93.26953125 141.28515625 C-91.7450348 138.54106265 -89.91341048 136.64844638 -87.6875 134.4375 C-86.92824219 133.67308594 -86.16898438 132.90867187 -85.38671875 132.12109375 C-79.61272656 126.98970626 -75.04643265 125.88445536 -67.47485352 125.84228516 C-66.82881165 125.83720444 -66.18276978 125.83212372 -65.51715088 125.82688904 C-64.1187073 125.81621611 -62.72024696 125.80758395 -61.32177925 125.80076981 C-59.10627054 125.78894165 -56.89095334 125.76948006 -54.67552185 125.74765015 C-48.37806583 125.68615795 -42.08063207 125.63198196 -35.78295898 125.59863281 C-31.92672926 125.57766546 -28.07085368 125.54235056 -24.21482658 125.49787521 C-22.74809885 125.48373633 -21.28130851 125.47499753 -19.81451607 125.47182083 C-17.76081481 125.46690109 -15.70805107 125.44371952 -13.65454102 125.41650391 C-12.48746109 125.40841705 -11.32038116 125.4003302 -10.11793518 125.39199829 C-6.65002456 124.9559998 -4.75294342 124.13078709 -2 122 C-1.03519924 119.10559771 -0.87852801 117.30662062 -0.88647461 114.30030823 C-0.8865451 113.33433716 -0.8866156 112.36836609 -0.88668823 111.37312317 C-0.89185455 110.31485825 -0.89702087 109.25659332 -0.90234375 108.16625977 C-0.90380402 107.05058624 -0.90526428 105.93491272 -0.9067688 104.78543091 C-0.91057848 102.35946271 -0.91669891 99.9334973 -0.92483521 97.50753975 C-0.93756762 93.67103139 -0.94410649 89.83455748 -0.94897461 85.99803162 C-0.9613943 77.16032744 -0.98306895 68.32265439 -1.00520325 59.48497009 C-1.02698641 50.74452265 -1.04485349 42.00409295 -1.05593872 33.26362419 C-1.06243547 29.47899587 -1.07494442 25.69441715 -1.08764648 21.9098053 C-1.09127845 19.5942489 -1.09463025 17.27869204 -1.09765625 14.96313477 C-1.10282257 13.90689407 -1.10798889 12.85065338 -1.11331177 11.7624054 C-1.11338226 10.7936145 -1.11345276 9.82482361 -1.11352539 8.82667542 C-1.115746 7.9862095 -1.11796661 7.14574358 -1.12025452 6.279809 C-1.00302609 4.05736931 -0.61885903 2.13231617 0 0 Z " fill="#09325F" transform="translate(633,527)"/>
<path d="M0 0 C0.99 0.99 0.99 0.99 2 2 C1.154375 1.94199219 0.30875 1.88398438 -0.5625 1.82421875 C-8.3318591 1.51521015 -13.06344927 1.90636722 -19 7 C-19.70769531 7.59683594 -20.41539062 8.19367188 -21.14453125 8.80859375 C-23.81535313 11.15165308 -26.41222914 13.56635969 -29 16 C-30.25770627 17.17719683 -31.5155265 18.35427193 -32.7734375 19.53125 C-34.83985534 21.46669594 -36.90512856 23.40332218 -38.96801758 25.3425293 C-43.96822159 30.04268577 -49.00723238 34.69605123 -54.07421875 39.32421875 C-57.22544658 42.20618279 -60.36395243 45.10154585 -63.5 48 C-81.48184417 64.60647754 -81.48184417 64.60647754 -88.3828125 70.5625 C-89.76889772 71.79457575 -91.0807962 73.1092382 -92.375 74.4375 C-94 76 -94 76 -96 76 C-96 76.66 -96 77.32 -96 78 C-97.29296875 79.3046875 -97.29296875 79.3046875 -99.1875 80.875 C-102.96011493 84.08205537 -106.62166457 87.382293 -110.25 90.75 C-111.36839061 91.78656513 -112.48688127 92.82302232 -113.60546875 93.859375 C-114.16540527 94.37822266 -114.7253418 94.89707031 -115.30224609 95.43164062 C-116.9845324 96.98571126 -118.67253753 98.53326294 -120.36328125 100.078125 C-121.17007324 100.81530762 -121.17007324 100.81530762 -121.99316406 101.56738281 C-123.47539716 102.92048546 -124.95837844 104.27276841 -126.44140625 105.625 C-128.07584363 107.14215714 -129.67232857 108.70197269 -131.21484375 110.3125 C-133 112 -133 112 -135 112 C-135 111.01 -135 110.02 -135 109 C-134.01 108.4121875 -134.01 108.4121875 -133 107.8125 C-129.30783226 105.58181532 -126.71451975 102.76971025 -123.76953125 99.64453125 C-122 98 -122 98 -120 98 C-119.67 97.01 -119.34 96.02 -119 95 C-117.2578125 93.28125 -117.2578125 93.28125 -115.125 91.5 C-112.14615469 88.99734679 -112.14615469 88.99734679 -109.3671875 86.28125 C-108 85 -108 85 -106 85 C-106 84.34 -106 83.68 -106 83 C-104.42578125 81.4140625 -104.42578125 81.4140625 -102.3125 79.625 C-101.5803125 79.00109375 -100.848125 78.3771875 -100.09375 77.734375 C-98.51644714 76.42780323 -96.91911912 75.14535 -95.3125 73.875 C-92.95322413 72.0284521 -92.95322413 72.0284521 -90.828125 69.828125 C-85.37662277 64.37662277 -79.68857063 59.16856388 -74.04931641 53.91259766 C-72.14727023 52.1374452 -70.25097811 50.356344 -68.35546875 48.57421875 C-67.27899848 47.56993438 -66.20219754 46.56600427 -65.125 45.5625 C-64.17882812 44.67691406 -63.23265625 43.79132813 -62.2578125 42.87890625 C-60 41 -60 41 -58 41 C-58 40.34 -58 39.68 -58 39 C-56.77734375 37.765625 -56.77734375 37.765625 -54.9375 36.25 C-50.66661905 32.62622222 -46.5796082 28.83533536 -42.5 25 C-38.02663642 20.80499119 -33.55517229 16.62688357 -28.8828125 12.65234375 C-27.42442708 11.37247439 -26.01075272 10.04156534 -24.6171875 8.69140625 C-16.95361829 1.36765892 -10.67313225 -2.43422315 0 0 Z " fill="#1C7C46" transform="translate(479,274)"/>
<path d="M0 0 C0 3 0 3 -2.16796875 5.27734375 C-3.16731888 6.17212455 -4.17445393 7.05825542 -5.1875 7.9375 C-6.29727413 8.9266357 -7.40663533 9.91623486 -8.515625 10.90625 C-9.3809082 11.67195313 -9.3809082 11.67195313 -10.26367188 12.453125 C-13.02253175 14.91096192 -15.7286165 17.42487655 -18.4375 19.9375 C-19.52845703 20.94551687 -20.61960408 21.95332814 -21.7109375 22.9609375 C-22.80731635 23.97393162 -23.90367048 24.98695249 -25 26 C-47.07148204 46.39483533 -47.07148204 46.39483533 -54.6875 53.1875 C-60.0802078 58.02443759 -65.33463667 63.00526761 -70.60229492 67.97729492 C-78.27203352 75.21172633 -85.98986475 82.38278848 -93.9375 89.3125 C-100.04291419 94.78746381 -103.40137264 98.53316808 -104.54296875 106.92578125 C-104.76919922 107.95251953 -104.76919922 107.95251953 -105 109 C-105.99 109.495 -105.99 109.495 -107 110 C-107.50024089 103.99710932 -106.44433611 99.97720419 -103 95 C-98.40076816 89.76826083 -93.17730121 85.20740855 -87.8984375 80.6796875 C-85.44277086 78.50697834 -83.16839496 76.18123328 -80.87304688 73.84179688 C-79.07300825 72.07179017 -77.21925344 70.41808264 -75.3046875 68.7734375 C-70.96817728 65.00316586 -66.79114532 61.08157588 -62.625 57.125 C-57.26584241 52.05781252 -51.87963458 47.03453895 -46.375 42.125 C-41.53943418 37.79844111 -36.77513933 33.39300877 -32 29 C-31.49098145 28.53223145 -30.98196289 28.06446289 -30.45751953 27.58251953 C-25.1892416 22.73982669 -19.93309104 17.88570789 -14.7265625 12.9765625 C-13.6422998 11.9551416 -13.6422998 11.9551416 -12.53613281 10.91308594 C-11.11955829 9.5771659 -9.70477723 8.23934099 -8.29199219 6.89941406 C-7.64649414 6.2906543 -7.00099609 5.68189453 -6.3359375 5.0546875 C-5.76407715 4.51312012 -5.1922168 3.97155273 -4.60302734 3.41357422 C-3 2 -3 2 0 0 Z " fill="#1B7944" transform="translate(343,386)"/>
<path d="M0 0 C0.33 0 0.66 0 1 0 C1.32173363 8.49207446 0.24316361 16.63703467 -1.02636719 25.00610352 C-1.3766859 27.32365313 -1.71249307 29.6429938 -2.046875 31.96289062 C-2.26737315 33.45064795 -2.48869798 34.93828305 -2.7109375 36.42578125 C-2.80998383 37.11231277 -2.90903015 37.7988443 -3.01107788 38.50617981 C-3.58683087 42.23911855 -4.26520022 45.62796858 -6 49 C-9 51 -9 51 -11.90234375 50.859375 C-15.41245765 49.88557291 -16.94110734 48.74830118 -19.5625 46.25 C-20.82900391 45.05310547 -20.82900391 45.05310547 -22.12109375 43.83203125 C-23.08311724 42.89045459 -24.04255333 41.94623024 -25 41 C-25.5686377 40.43974121 -26.13727539 39.87948242 -26.72314453 39.30224609 C-30.50907031 35.56120868 -34.26292233 31.78979507 -38 28 C-43.07678615 29.29048629 -46.0671773 31.52131839 -49.6171875 35.2265625 C-50.11920685 35.73424164 -50.6212262 36.24192078 -51.13845825 36.76498413 C-52.72701088 38.37578288 -54.30102244 39.99996931 -55.875 41.625 C-56.95479553 42.72487571 -58.03551594 43.82384422 -59.1171875 44.921875 C-61.75560781 47.60420613 -64.38108377 50.29862819 -67 53 C-67.66 52.67 -68.32 52.34 -69 52 C-65.42642069 48.27793402 -61.8334394 44.57615236 -58.22119141 40.89160156 C-56.99562598 39.63589131 -55.77550304 38.37484489 -54.56103516 37.10839844 C-52.81260769 35.28706026 -51.04539684 33.48591586 -49.2734375 31.6875 C-48.73568695 31.11878174 -48.1979364 30.55006348 -47.64389038 29.96411133 C-45.01054009 27.32846642 -43.47775898 26.06274468 -39.73193359 25.57080078 C-36.6197104 26.05974523 -35.50085852 26.71377744 -33.25 28.875 C-32.58484375 29.50535156 -31.9196875 30.13570313 -31.234375 30.78515625 C-30.49703125 31.51605469 -29.7596875 32.24695313 -29 33 C-27.64648438 34.29744141 -27.64648438 34.29744141 -26.265625 35.62109375 C-21.08655278 40.66117957 -21.08655278 40.66117957 -19 43 C-19 43.66 -19 44.32 -19 45 C-15.2080182 47.18768181 -11.37268114 48 -7 48 C-6.823479 46.75911621 -6.64695801 45.51823242 -6.46508789 44.23974609 C-5.80792771 39.62147969 -5.14983057 35.0033472 -4.49145508 30.38525391 C-4.20702093 28.3891964 -3.92283848 26.39310301 -3.63891602 24.39697266 C-3.22999704 21.52236538 -2.82016329 18.64788976 -2.41015625 15.7734375 C-2.22103416 14.44184097 -2.22103416 14.44184097 -2.02809143 13.08334351 C-1.40372061 8.71235495 -0.75017682 4.35164809 0 0 Z " fill="#1C7C47" transform="translate(746,375)"/>
<path d="M0 0 C1.30104675 0.02009628 2.60209351 0.04019257 3.94256592 0.06089783 C5.35787166 0.08809227 6.77317516 0.11540315 8.18847656 0.14282227 C9.640068 0.16713515 11.09166737 0.19097812 12.54327393 0.21437073 C16.35737172 0.27709545 20.1713283 0.34619472 23.98529053 0.41662598 C27.87977691 0.48741454 31.77436312 0.55216846 35.66894531 0.61743164 C43.30577451 0.74629423 50.94246459 0.88189187 58.57910156 1.02172852 C58.57910156 1.35172852 58.57910156 1.68172852 58.57910156 2.02172852 C57.75970596 2.02093292 56.94031036 2.02013733 56.09608459 2.01931763 C48.34310896 2.01710235 40.59100322 2.04369978 32.83826542 2.10200691 C28.85320098 2.13097935 24.8687211 2.14912578 20.88354492 2.1418457 C17.03163036 2.13521882 13.18086746 2.1579248 9.32919121 2.20028305 C7.86576886 2.21135516 6.40222887 2.21216791 4.9387989 2.20215225 C-3.93009067 2.1492741 -10.69449005 2.70984928 -17.42089844 9.02172852 C-19.18164192 10.87881799 -20.84080906 12.76781933 -22.46923828 14.74194336 C-24.80027259 17.46488537 -27.30170469 19.98992712 -29.84667969 22.51000977 C-30.56366531 23.22191971 -30.56366531 23.22191971 -31.2951355 23.94821167 C-32.77252244 25.41229132 -34.25252755 26.87367334 -35.73339844 28.33422852 C-37.71157031 30.28574125 -39.686343 32.24060544 -41.65917969 34.19750977 C-42.52583252 35.05256104 -43.39248535 35.9076123 -44.28540039 36.78857422 C-46.55055533 39.02754825 -46.55055533 39.02754825 -48.42089844 42.02172852 C-48.0735208 45.40866044 -47.06689129 48.05894138 -45.42089844 51.02172852 C-47.8319367 50.05731321 -49.19494602 49.33375804 -50.73339844 47.20922852 C-51.65365087 44.28115259 -51.45753231 42.92430337 -50.42089844 40.02172852 C-47.62258169 36.18403697 -44.75369432 33.40499895 -41.03027344 30.43969727 C-38.436605 28.15449911 -36.27118214 25.51425076 -34.02636719 22.89282227 C-32.24828118 20.82055171 -30.46339027 18.83727681 -28.42089844 17.02172852 C-27.76089844 17.02172852 -27.10089844 17.02172852 -26.42089844 17.02172852 C-26.05931641 16.17288086 -26.05931641 16.17288086 -25.69042969 15.30688477 C-24.16593324 12.56279116 -22.33430892 10.67017489 -20.10839844 8.45922852 C-19.34914063 7.69481445 -18.58988281 6.93040039 -17.80761719 6.14282227 C-12.05101971 1.02689357 -7.55742207 -0.1318155 0 0 Z " fill="#083B6F" transform="translate(565.4208984375,652.978271484375)"/>
<path d="M0 0 C0.33 0 0.66 0 1 0 C0.69207068 6.01588752 -1.12159384 8.97256969 -5.4375 12.9375 C-5.94087891 13.43056641 -6.44425781 13.92363281 -6.96289062 14.43164062 C-10.68962379 18 -10.68962379 18 -13 18 C-13.20625 18.53109375 -13.4125 19.0621875 -13.625 19.609375 C-15.57961192 23.00773436 -18.22123717 25.51055928 -21 28.25 C-21.5465625 28.80429687 -22.093125 29.35859375 -22.65625 29.9296875 C-26.7466133 34 -26.7466133 34 -29 34 C-29.37705078 34.87591797 -29.37705078 34.87591797 -29.76171875 35.76953125 C-31.15577597 38.28059332 -32.66221244 39.79212225 -34.8125 41.6875 C-35.47894531 42.28949219 -36.14539063 42.89148438 -36.83203125 43.51171875 C-39.34682065 45.23808769 -40.95058582 45.86203898 -44 46 C-46.140625 44.8828125 -46.140625 44.8828125 -48.25 43.125 C-49.40435547 42.1659375 -49.40435547 42.1659375 -50.58203125 41.1875 C-53.90008683 38.18570497 -57.05242703 35.0459754 -60.15234375 31.8203125 C-61.87883166 29.93177292 -61.87883166 29.93177292 -64 29 C-64 28.34 -64 27.68 -64 27 C-60.71911777 28.42268345 -58.6870912 30.1517788 -56.25 32.75 C-53.54322129 35.50718427 -50.82057854 38.13442904 -47.8125 40.5625 C-47.20019531 41.05878906 -46.58789062 41.55507813 -45.95703125 42.06640625 C-43.12382642 43.41797502 -41.98279782 43.0165963 -39 42 C-36.5683553 40.1075034 -34.476561 37.91758783 -32.34375 35.69921875 C-31.7189978 35.06643509 -31.09424561 34.43365143 -30.45056152 33.7816925 C-28.45736642 31.75953812 -26.47827554 29.72424318 -24.5 27.6875 C-22.51922948 25.66408823 -20.53561556 23.64354716 -18.54943848 21.6254425 C-17.31581505 20.37029291 -16.08572825 19.11165442 -14.85974121 17.8490448 C-11.727091 14.64427518 -8.53872817 11.76395176 -5 9 C-2.39047907 6.1005323 -0.5788327 3.90712072 0 0 Z " fill="#1E854D" transform="translate(668,362)"/>
<path d="M0 0 C0.33 0 0.66 0 1 0 C1.00586624 1.0994545 1.01173248 2.198909 1.01777649 3.3316803 C1.07504596 13.70452473 1.14782983 24.07716037 1.23571491 34.44979191 C1.28039891 39.78218633 1.31965952 45.11450469 1.34643555 50.44702148 C1.37248797 55.59539276 1.41290445 60.74347104 1.46318626 65.89166069 C1.4798418 67.85355415 1.49136424 69.81549827 1.49761391 71.77745247 C1.50726919 74.53041253 1.53534569 77.28262526 1.56762695 80.03540039 C1.56619186 80.84244919 1.56475677 81.64949799 1.5632782 82.48100281 C1.66108626 88.39780162 2.70007035 93.25456339 6.61328125 97.92578125 C10.26140259 100.90298372 13.32705338 102.86025692 18 104 C17.67 104.66 17.34 105.32 17 106 C10.02027069 104.46445955 5.97892453 101.72770679 1.6875 95.8125 C-2.55838966 87.62348269 -1.14679882 76.5821673 -1.1328125 67.65625 C-1.13348869 66.27876773 -1.13446132 64.90128558 -1.13571167 63.52380371 C-1.1371778 60.64606584 -1.1350719 57.76835921 -1.13037109 54.890625 C-1.12471689 51.25780221 -1.1280174 47.62505342 -1.13382339 43.99223328 C-1.15361554 29.30557125 -1.12377668 14.65261442 0 0 Z " fill="#135A2D" transform="translate(278,598)"/>
<path d="M0 0 C2.875 1.8125 2.875 1.8125 3.75 4 C3.79125 4.598125 3.8325 5.19625 3.875 5.8125 C3.215 6.1425 2.555 6.4725 1.875 6.8125 C1.875 5.4925 1.875 4.1725 1.875 2.8125 C-0.72634984 1.6780905 -0.72634984 1.6780905 -4.125 1.8125 C-8.59591516 4.61246707 -11.96144595 8.60633814 -15.37890625 12.56640625 C-19.72548385 17.57160892 -24.43434022 22.17338543 -29.1640625 26.8125 C-35.72674262 33.29916452 -41.83827358 39.58198527 -46.125 47.8125 C-46.79296875 46.0625 -46.79296875 46.0625 -47.125 43.8125 C-43.77024029 37.38794087 -37.6473908 32.15831843 -32.4777832 27.15039062 C-29.94268663 24.68736828 -27.59321195 22.21100356 -25.3828125 19.44921875 C-24.63773438 18.57910156 -23.89265625 17.70898438 -23.125 16.8125 C-22.465 16.8125 -21.805 16.8125 -21.125 16.8125 C-20.85550537 16.21848389 -20.58601074 15.62446777 -20.30834961 15.01245117 C-19.12849245 12.81899278 -17.94065094 11.37018727 -16.19140625 9.61328125 C-15.62486328 9.04416016 -15.05832031 8.47503906 -14.47460938 7.88867188 C-13.88486328 7.30666016 -13.29511719 6.72464844 -12.6875 6.125 C-12.10162109 5.53138672 -11.51574219 4.93777344 -10.91210938 4.32617188 C-10.06036133 3.47829102 -10.06036133 3.47829102 -9.19140625 2.61328125 C-8.67521729 2.09934814 -8.15902832 1.58541504 -7.62719727 1.0559082 C-4.75219488 -1.32380692 -3.45664924 -1.31352671 0 0 Z " fill="#104569" transform="translate(681.125,478.1875)"/>
<path d="M0 0 C3.006818 1.33999498 4.99762609 2.79845291 7.25 5.1875 C9.6308416 7.70388457 12.12823343 10.00838826 14.7421875 12.27734375 C18.88605305 15.8750333 22.88944511 19.60366441 26.875 23.375 C31.42583872 27.66881285 35.99754769 31.92099788 40.6875 36.0625 C44.16352255 39.15750827 47.1633789 42.31239257 50 46 C47.08676185 44.67590922 44.94753755 43.22191076 42.63671875 41.015625 C42.00459473 40.4170166 41.3724707 39.8184082 40.72119141 39.20166016 C40.05007324 38.5576123 39.37895508 37.91356445 38.6875 37.25 C37.25149262 35.88781994 35.81529003 34.52584565 34.37890625 33.1640625 C33.65074707 32.47086914 32.92258789 31.77767578 32.17236328 31.06347656 C28.84059616 27.89870969 25.48488931 24.75986009 22.125 21.625 C21.50536377 21.04669434 20.88572754 20.46838867 20.24731445 19.87255859 C11.49199186 11.57881653 11.49199186 11.57881653 2.2265625 3.8828125 C1.49179687 3.26148438 0.75703125 2.64015625 0 2 C0 1.34 0 0.68 0 0 Z " fill="#1A7743" transform="translate(514,306)"/>
<path d="M0 0 C3.02977429 1.35231187 5.08472613 2.85480543 7.390625 5.23046875 C8.01356445 5.86509033 8.63650391 6.49971191 9.27832031 7.15356445 C9.92897461 7.82476318 10.57962891 8.49596191 11.25 9.1875 C15.71751021 13.72711851 20.14866379 18.21902453 25.0390625 22.30859375 C26.63987647 23.68937552 28.18453424 25.13503642 29.7109375 26.59765625 C30.19272461 27.05615967 30.67451172 27.51466309 31.17089844 27.98706055 C32.55081427 29.30418975 33.92025343 30.63226946 35.2890625 31.9609375 C38.34603242 34.26027222 40.20410802 34.84011868 44 35 C47.31805142 33.67570727 47.31805142 33.67570727 50 32 C49 35 49 35 46.8125 36.75 C43.26924704 38.32477909 41.71850525 37.988816 38 37 C35.5078125 35.21484375 35.5078125 35.21484375 33.125 32.9375 C32.26390625 32.12410156 31.4028125 31.31070312 30.515625 30.47265625 C27.62920176 27.63553527 24.76479991 24.77906524 21.92578125 21.89453125 C19.41610955 19.42558444 16.7571112 17.15827324 14.0859375 14.8671875 C10.90942429 12.02379178 7.95171742 8.97335897 4.98046875 5.91796875 C2.95064723 3.83682933 2.95064723 3.83682933 0 2 C0 1.34 0 0.68 0 0 Z " fill="#1B7747" transform="translate(584,438)"/>
<path d="M0 0 C3.20570673 1.01008215 4.77164348 2.394861 7.203125 4.70703125 C8.07324219 5.52171875 8.94335938 6.33640625 9.83984375 7.17578125 C10.76410156 8.05234375 11.68835938 8.92890625 12.640625 9.83203125 C14.09793124 11.16937031 15.55530083 12.50665002 17.0168457 13.83935547 C18.5307072 15.22079416 20.03911672 16.60799883 21.546875 17.99609375 C23.63998838 19.92010701 25.7450087 21.82984287 27.859375 23.73046875 C33.14698274 28.49871447 38.17998668 33.25623335 42.640625 38.83203125 C39.61624909 37.47012672 37.44938235 35.91914918 35.05859375 33.62890625 C34.04200684 32.66259277 34.04200684 32.66259277 33.00488281 31.67675781 C32.28655273 30.98549805 31.56822266 30.29423828 30.828125 29.58203125 C29.30624623 28.13384483 27.78410542 26.68593374 26.26171875 25.23828125 C25.49327637 24.50480469 24.72483398 23.77132813 23.93310547 23.015625 C20.43675009 19.6853372 16.91671068 16.38078477 13.390625 13.08203125 C12.78371826 12.5106543 12.17681152 11.93927734 11.55151367 11.35058594 C6.02195632 5.50020535 6.02195632 5.50020535 -0.984375 2.58203125 C-1.768125 2.66453125 -2.551875 2.74703125 -3.359375 2.83203125 C-4.349375 2.83203125 -5.339375 2.83203125 -6.359375 2.83203125 C-3.06511265 -0.21821166 -3.06511265 -0.21821166 0 0 Z " fill="#1A7742" transform="translate(474.359375,336.16796875)"/>
<path d="M0 0 C0.66 0.33 1.32 0.66 2 1 C1.28457031 1.71414063 0.56914062 2.42828125 -0.16796875 3.1640625 C-1.99009056 4.98554339 -3.80363867 6.81444996 -5.61328125 8.6484375 C-6.50402344 9.54820312 -7.39476562 10.44796875 -8.3125 11.375 C-9.19550781 12.26960938 -10.07851563 13.16421875 -10.98828125 14.0859375 C-13.83449785 16.89874326 -16.84598229 19.49836845 -19.86987305 22.1171875 C-24.373165 26.09763306 -28.6703647 30.30700821 -32.99609375 34.47851562 C-33.71410156 35.16236328 -34.43210937 35.84621094 -35.171875 36.55078125 C-35.8122168 37.16606689 -36.45255859 37.78135254 -37.11230469 38.4152832 C-38.99017443 39.99175145 -40.76791312 41.00558858 -43 42 C-38.66110401 36.75406491 -34.05509222 32.05914514 -29.0625 27.4375 C-28.32612305 26.75002686 -27.58974609 26.06255371 -26.83105469 25.35424805 C-24.55729233 23.23263789 -22.2789716 21.11601208 -20 19 C-17.89814949 17.04331666 -15.79720449 15.08567024 -13.69702148 13.12719727 C-12.43602755 11.95190348 -11.17389243 10.77783241 -9.91040039 9.60522461 C-6.53708468 6.46781835 -3.23622632 3.27880825 0 0 Z " fill="#1A7743" transform="translate(434,370)"/>
<path d="M0 0 C3.18559952 1.39633107 5.23943845 3.04557493 7.625 5.5625 C10.04521959 8.14015389 10.04521959 8.14015389 13 10 C13 10.66 13 11.32 13 12 C13.58265625 12.25394531 14.1653125 12.50789063 14.765625 12.76953125 C17.24188033 14.13320333 18.80520626 15.64225203 20.75 17.6875 C23.4302304 20.44231937 26.14581567 23.05924859 29.0625 25.5625 C32.90032831 28.86075245 36.47299715 32.3738002 40 36 C37 36 37 36 35.45703125 34.71484375 C34.91433594 34.12832031 34.37164063 33.54179687 33.8125 32.9375 C30.78069335 29.68439359 27.51128021 26.80726319 24.15600586 23.89770508 C19.94124588 20.18789539 15.89737444 16.29336661 11.82421875 12.4296875 C8.79097239 9.56658455 5.76494453 6.77167846 2.5078125 4.1640625 C1.68023438 3.44992187 0.85265625 2.73578125 0 2 C0 1.34 0 0.68 0 0 Z " fill="#1A7943" transform="translate(564,352)"/>
<path d="M0 0 C0.66 0 1.32 0 2 0 C0.33536962 4.28642324 -2.79075837 7.08617217 -6 10.25 C-6.5465625 10.80429687 -7.093125 11.35859375 -7.65625 11.9296875 C-11.7466133 16 -11.7466133 16 -14 16 C-14.309375 16.8353125 -14.309375 16.8353125 -14.625 17.6875 C-16.15368359 20.25846786 -18.00688362 21.72679251 -20.3359375 23.5625 C-23.23199136 26.06425545 -25.59201472 29.03698265 -28 32 C-28.66 31.34 -29.32 30.68 -30 30 C-29.01 29.67 -28.02 29.34 -27 29 C-26.690625 28.360625 -26.38125 27.72125 -26.0625 27.0625 C-24.74215782 24.49948282 -23.5185326 24.2592663 -21 23 C-20.566875 22.1028125 -20.566875 22.1028125 -20.125 21.1875 C-18.93968667 18.88272409 -17.92823763 17.97799301 -15.9375 16.375 C-12.99175287 14.32880603 -12.99175287 14.32880603 -12 12 C-11.34 12 -10.68 12 -10 12 C-9.7525 11.4225 -9.505 10.845 -9.25 10.25 C-7.81700012 7.67060021 -6.21575324 5.93878408 -4 4 C-3.34 4 -2.68 4 -2 4 C-1.34 2.68 -0.68 1.36 0 0 Z " fill="#0D446E" transform="translate(529,529)"/>
<path d="M0 0 C2 0 2 0 4.19921875 2.08203125 C4.6379834 2.53916504 5.07674805 2.99629883 5.52880859 3.46728516 C7.09722478 5.1012906 8.70886489 6.68215846 10.33203125 8.26171875 C11.49224929 9.40358306 12.65240471 10.54551099 13.8125 11.6875 C14.7087207 12.55858398 14.7087207 12.55858398 15.62304688 13.44726562 C17.12014673 14.92725576 18.56488731 16.45982782 20 18 C20 18.66 20 19.32 20 20 C20.5775 20.2475 21.155 20.495 21.75 20.75 C24 22 24 22 25.875 24.0625 C28.52539454 26.4790362 30.48662462 26.68060224 34 27 C34 27.33 34 27.66 34 28 C31.37109375 28.8125 31.37109375 28.8125 28 29 C25.6786765 27.40038004 24.00367314 25.9837387 22.0625 24 C21.51762939 23.46906738 20.97275879 22.93813477 20.41137695 22.39111328 C19.22963166 21.23385926 18.05602627 20.06824886 16.88964844 18.89550781 C14.88628617 16.88593357 12.85564866 14.90684439 10.8203125 12.9296875 C9.4414611 11.57939744 8.06383394 10.22785598 6.6875 8.875 C6.02306885 8.22402344 5.3586377 7.57304687 4.67407227 6.90234375 C4.06362061 6.29261719 3.45316895 5.68289063 2.82421875 5.0546875 C2.27854248 4.51312012 1.73286621 3.97155273 1.1706543 3.41357422 C0 2 0 2 0 0 Z " fill="#0F4B79" transform="translate(439,497)"/>
<path d="M0 0 C0.66 0.99 1.32 1.98 2 3 C1.42636719 2.83886719 0.85273437 2.67773438 0.26171875 2.51171875 C-6.39279483 1.00612069 -13.26200063 2.11356613 -19.9375 3 C-29.30077627 4.23603749 -38.57186871 4.1862858 -48 4 C-48 3.67 -48 3.34 -48 3 C-47.11328613 2.91435791 -46.22657227 2.82871582 -45.31298828 2.74047852 C-41.97687511 2.41818343 -38.64077663 2.09573717 -35.3046875 1.77319336 C-33.86947187 1.63446228 -32.43425066 1.49578891 -30.99902344 1.35717773 C-29.60486871 1.22252611 -28.21072392 1.08777159 -26.81658936 0.95291138 C-25.44785038 0.82060657 -24.07907606 0.68866687 -22.71026611 0.55709839 C-18.1403286 0.11635542 -13.57441228 -0.35474068 -9.01123047 -0.8605957 C-5.78864857 -1.08396233 -3.14118791 -0.78529698 0 0 Z " fill="#1B7341" transform="translate(749,324)"/>
<path d="M0 0 C3.54184054 1.498471 5.72776562 3.54915885 8.375 6.3125 C11.00640255 9.01784279 13.6055296 11.59158999 16.5625 13.9375 C17.366875 14.618125 18.17125 15.29875 19 16 C19 16.66 19 17.32 19 18 C19.5775 18.24878906 20.155 18.49757813 20.75 18.75390625 C23.31784817 20.17603049 24.97749044 21.81623509 27 23.9375 C29.5251518 26.57608636 32.02233271 28.87974137 35 31 C34.67 31.66 34.34 32.32 34 33 C33.35933594 32.41992188 32.71867188 31.83984375 32.05859375 31.2421875 C26.18034224 25.93081114 26.18034224 25.93081114 20.1875 20.75 C17.30679688 18.30273601 14.67382073 15.67382073 12 13 C9.34761781 10.65051331 6.68680466 8.31189602 4.01171875 5.98828125 C3.34785156 5.33214844 2.68398438 4.67601562 2 4 C2 3.34 2 2.68 2 2 C1.34 2 0.68 2 0 2 C0 1.34 0 0.68 0 0 Z " fill="#1B7A44" transform="translate(517,375)"/>
<path d="M0 0 C0.76183594 -0.00257813 1.52367187 -0.00515625 2.30859375 -0.0078125 C4.51565859 0.12223985 6.44219276 0.51643801 8.5625 1.125 C8.5625 1.785 8.5625 2.445 8.5625 3.125 C7.70527344 3.09019531 6.84804688 3.05539062 5.96484375 3.01953125 C4.82144531 2.99246094 3.67804687 2.96539062 2.5 2.9375 C0.81197266 2.88529297 0.81197266 2.88529297 -0.91015625 2.83203125 C-8.20035717 3.43752966 -12.59034267 6.68371794 -17.375 11.8125 C-18.11459961 12.57916992 -18.11459961 12.57916992 -18.86914062 13.36132812 C-20.0680773 14.60682545 -21.25418483 15.86465166 -22.4375 17.125 C-23.4275 16.795 -24.4175 16.465 -25.4375 16.125 C-10.12552857 -0.03415018 -10.12552857 -0.03415018 0 0 Z " fill="#0F486D" transform="translate(549.4375,454.875)"/>
<path d="M0 0 C-1.11440652 3.34321955 -1.97472343 4.06019619 -4.625 6.25 C-7.36859877 8.57375981 -9.98671796 10.92880824 -12.5 13.5 C-15.5928574 16.64960707 -18.85055565 19.55207563 -22.203125 22.421875 C-25.77990845 25.56322394 -27.34319657 27.13965463 -28 32 C-28.66 32 -29.32 32 -30 32 C-29.62131216 26.51305486 -27.88002287 24.29894877 -23.9375 20.5625 C-23.19149536 19.84646606 -23.19149536 19.84646606 -22.43041992 19.1159668 C-19.02120552 15.86922663 -15.5053611 12.75055933 -11.91796875 9.703125 C-9.0115149 7.12224134 -6.34387087 4.31717121 -3.6640625 1.50390625 C-2 0 -2 0 0 0 Z " fill="#1A7644" transform="translate(361,440)"/>
<path d="M0 0 C0 3 0 3 -1.46875 4.796875 C-2.1390625 5.44140625 -2.809375 6.0859375 -3.5 6.75 C-4.23476563 7.45769531 -4.96953125 8.16539062 -5.7265625 8.89453125 C-8.38635543 11.35781027 -11.08821648 13.76042733 -13.8359375 16.125 C-17.9466979 19.68666966 -21.96469576 23.35334186 -26 27 C-26.66 26.67 -27.32 26.34 -28 26 C-22.48035375 20.38903607 -16.9795134 14.82092224 -10.9921875 9.703125 C-8.63363248 7.68679169 -6.31677136 5.62666389 -4 3.5625 C-3.236875 2.88316406 -2.47375 2.20382812 -1.6875 1.50390625 C-1.130625 1.00761719 -0.57375 0.51132812 0 0 Z " fill="#2EBA76" transform="translate(343,388)"/>
<path d="M0 0 C0.66 0.33 1.32 0.66 2 1 C1.03900391 1.94359375 1.03900391 1.94359375 0.05859375 2.90625 C-10.72967485 13.4842899 -10.72967485 13.4842899 -19 26 C-19.6640625 24.24609375 -19.6640625 24.24609375 -20 22 C-15.65555308 13.53701739 -6.75944916 6.57648662 0 0 Z " fill="#0A3862" transform="translate(654,500)"/>
<path d="M0 0 C0.66 0 1.32 0 2 0 C2.09474609 1.051875 2.09474609 1.051875 2.19140625 2.125 C3.14184333 9.48838619 5.07833415 14.32680915 11 19 C13.67963587 20.38424471 16.07331709 21.17847497 19 22 C18.67 22.66 18.34 23.32 18 24 C11.02027069 22.46445955 6.97892453 19.72770679 2.6875 13.8125 C0.37172367 9.46921825 0.1948377 4.84171693 0 0 Z " fill="#1A6D3D" transform="translate(277,680)"/>
<path d="M0 0 C3.32286741 1.06370792 5.01646105 2.63704807 7.53515625 5.0390625 C8.39625 5.84601563 9.25734375 6.65296875 10.14453125 7.484375 C10.9746875 8.26554687 11.80484375 9.04671875 12.66015625 9.8515625 C14.97289659 11.8772606 17.31502356 13.86329782 19.66015625 15.8515625 C19.00015625 16.1815625 18.34015625 16.5115625 17.66015625 16.8515625 C16.49348958 15.83072917 15.32682292 14.80989583 14.16015625 13.7890625 C13.43183594 13.15742188 12.70351563 12.52578125 11.953125 11.875 C10.45353783 10.55168457 8.97560834 9.2033069 7.5234375 7.828125 C6.84667969 7.19648438 6.16992188 6.56484375 5.47265625 5.9140625 C4.86035156 5.32753906 4.24804688 4.74101562 3.6171875 4.13671875 C1.12332034 2.49902954 -0.40565102 2.62225557 -3.33984375 2.8515625 C-4.32984375 2.8515625 -5.31984375 2.8515625 -6.33984375 2.8515625 C-3.0511118 -0.19355968 -3.0511118 -0.19355968 0 0 Z " fill="#1D7F49" transform="translate(474.33984375,336.1484375)"/>
<path d="M0 0 C0.33 0.66 0.66 1.32 1 2 C-0.11799986 3.33920838 -1.24461897 4.67122556 -2.375 6 C-3.31472656 7.11375 -3.31472656 7.11375 -4.2734375 8.25 C-4.84320312 8.8275 -5.41296875 9.405 -6 10 C-6.66 10 -7.32 10 -8 10 C-8.25523437 10.58265625 -8.51046875 11.1653125 -8.7734375 11.765625 C-10.11741087 14.21388223 -11.61810296 15.81743248 -13.625 17.75 C-14.57246094 18.67039062 -14.57246094 18.67039062 -15.5390625 19.609375 C-16.02117188 20.06828125 -16.50328125 20.5271875 -17 21 C-17 17.21453144 -16.10599981 16.69566732 -13.53515625 14.0234375 C-12.81779297 13.270625 -12.10042969 12.5178125 -11.36132812 11.7421875 C-10.60271484 10.96101563 -9.84410156 10.17984375 -9.0625 9.375 C-8.30775391 8.58609375 -7.55300781 7.7971875 -6.77539062 6.984375 C-2.01992985 2.01992985 -2.01992985 2.01992985 0 0 Z " fill="#0D5FAA" transform="translate(655,501)"/>
<path d="M0 0 C0.85271484 1.0828125 0.85271484 1.0828125 1.72265625 2.1875 C6.15506869 7.66149135 10.84931142 12.99881927 15.9375 17.875 C17.89233252 19.88906987 18.83074106 21.49369609 20 24 C12.89363925 18.15699227 5.12498496 11.68747744 0 4 C0 2.68 0 1.36 0 0 Z " fill="#1D7C47" transform="translate(648,337)"/>
<path d="M0 0 C0.66 0.33 1.32 0.66 2 1 C1.51789062 1.47050781 1.03578125 1.94101562 0.5390625 2.42578125 C-0.09257813 3.04839844 -0.72421875 3.67101562 -1.375 4.3125 C-2.00148438 4.92738281 -2.62796875 5.54226563 -3.2734375 6.17578125 C-5.18086607 8.08812528 -5.18086607 8.08812528 -7 11 C-6.65262237 14.38693192 -5.64599285 17.03721286 -4 20 C-6.41103827 19.03558469 -7.77404758 18.31202953 -9.3125 16.1875 C-10.23275243 13.25942407 -10.03663388 11.90257486 -9 9 C-6.34976109 5.41859606 -3.71399552 2.47599701 0 0 Z " fill="#0C3B63" transform="translate(524,684)"/>
<path d="M0 0 C0 3 0 3 -1.57421875 4.90234375 C-2.27160156 5.57394531 -2.96898437 6.24554688 -3.6875 6.9375 C-4.41324219 7.63746094 -5.13898438 8.33742188 -5.88671875 9.05859375 C-8.17326633 11.15917443 -10.51565467 13.136741 -13 15 C-13.66 14.67 -14.32 14.34 -15 14 C-14.0479279 12.99403703 -13.08812654 11.99538437 -12.125 11 C-11.32449219 10.1646875 -11.32449219 10.1646875 -10.5078125 9.3125 C-9 8 -9 8 -7 8 C-7 7.34 -7 6.68 -7 6 C-5.46875 4.4921875 -5.46875 4.4921875 -3.5 2.875 C-2.8503125 2.33617187 -2.200625 1.79734375 -1.53125 1.2421875 C-0.77328125 0.62730469 -0.77328125 0.62730469 0 0 Z " fill="#2DBC76" transform="translate(390,344)"/>
<path d="M0 0 C0.66 0.33 1.32 0.66 2 1 C-0.26328524 3.0091515 -2.53480776 5.0072998 -4.8125 7 C-5.77639648 7.85851562 -5.77639648 7.85851562 -6.75976562 8.734375 C-7.69272461 9.54648437 -7.69272461 9.54648437 -8.64453125 10.375 C-9.21534424 10.87773437 -9.78615723 11.38046875 -10.37426758 11.8984375 C-12 13 -12 13 -15 13 C-10.30165217 8.08198915 -5.66492467 3.77661644 0 0 Z " fill="#2FBC78" transform="translate(464,277)"/>
<path d="M0 0 C0.66 0 1.32 0 2 0 C0.40907948 4.13639336 -2.60474918 7.23213248 -6 10 C-6.66 10 -7.32 10 -8 10 C-8 10.66 -8 11.32 -8 12 C-8.66 12 -9.32 12 -10 12 C-8.55922954 8.63820226 -6.75249979 6.40843732 -4 4 C-3.34 4 -2.68 4 -2 4 C-1.34 2.68 -0.68 1.36 0 0 Z " fill="#0E4470" transform="translate(549,509)"/>
<path d="M0 0 C0.74507812 0.00451172 1.49015625 0.00902344 2.2578125 0.01367188 C4.0885764 0.02540754 5.91929873 0.0433415 7.75 0.0625 C7.75 0.3925 7.75 0.7225 7.75 1.0625 C5.87054687 1.24425781 5.87054687 1.24425781 3.953125 1.4296875 C2.30204135 1.59854833 0.65100191 1.76784183 -1 1.9375 C-1.825 2.01613281 -2.65 2.09476562 -3.5 2.17578125 C-4.69882812 2.30146484 -4.69882812 2.30146484 -5.921875 2.4296875 C-6.6550293 2.50300293 -7.38818359 2.57631836 -8.14355469 2.65185547 C-10.44952905 3.10139753 -12.20391841 3.9262373 -14.25 5.0625 C-13.5 3.125 -13.5 3.125 -12.25 1.0625 C-8.25095386 -0.29481329 -4.1722822 -0.0479149 0 0 Z " fill="#2FBE78" transform="translate(664.25,331.9375)"/>
<path d="M0 0 C3.84612364 1.56693926 6.12412231 4.05564903 9 7 C10.96699166 8.71123624 12.97750749 10.35378517 15 12 C14.34 12.66 13.68 13.32 13 14 C10.83031809 11.85714108 8.66416525 9.71091768 6.5 7.5625 C5.87996094 6.95083984 5.25992187 6.33917969 4.62109375 5.70898438 C4.03457031 5.12568359 3.44804687 4.54238281 2.84375 3.94140625 C2.02680664 3.13231812 2.02680664 3.13231812 1.19335938 2.30688477 C0 1 0 1 0 0 Z " fill="#093A5F" transform="translate(425,484)"/>
<path d="M0 0 C0.33 0.99 0.66 1.98 1 3 C-1.31 5.31 -3.62 7.62 -6 10 C-6.99 9.67 -7.98 9.34 -9 9 C-6.03 6.03 -3.06 3.06 0 0 Z " fill="#114D78" transform="translate(533,462)"/>
<path d="M0 0 C0.33 0 0.66 0 1 0 C1 4.03713262 0.76144624 6.07435182 -1.84765625 9.24609375 C-3.85006782 11.22731578 -5.88235915 13.14284345 -8 15 C-8 11.24196347 -7.09394816 10.71619113 -4.5625 8.0625 C-2.03939769 5.41706546 -0.57999653 3.65152743 0 0 Z " fill="#177742" transform="translate(668,362)"/>
<path d="M0 0 C2 0 2 0 4.4375 2.25 C6.47004286 4.4312655 8.28819148 6.56743 10 9 C7 9 7 9 5.17578125 7.5390625 C4.56089844 6.90742188 3.94601562 6.27578125 3.3125 5.625 C2.68988281 4.99851562 2.06726563 4.37203125 1.42578125 3.7265625 C0 2 0 2 0 0 Z " fill="#0C4571" transform="translate(439,497)"/>
<path d="M0 0 C3.21524305 1.40844718 5.32183868 3.10344786 7.75 5.625 C8.67039062 6.57246094 8.67039062 6.57246094 9.609375 7.5390625 C10.29773438 8.26222656 10.29773438 8.26222656 11 9 C6.68381834 9 5.07210341 6.86729652 2 4 C2 3.34 2 2.68 2 2 C1.34 2 0.68 2 0 2 C0 1.34 0 0.68 0 0 Z " fill="#197540" transform="translate(517,375)"/>
<path d="M0 0 C0.66 0.66 1.32 1.32 2 2 C0.02 3.98 -1.96 5.96 -4 8 C-4.99 7.67 -5.98 7.34 -7 7 C-5.71034824 5.62437146 -4.37310707 4.29233607 -3 3 C-2.34 3 -1.68 3 -1 3 C-0.67 2.01 -0.34 1.02 0 0 Z " fill="#0F4775" transform="translate(661,492)"/>
<path d="M0 0 C0.66 0.33 1.32 0.66 2 1 C0.52307692 5.67692308 0.52307692 5.67692308 -2.125 7.3125 C-3.053125 7.6528125 -3.053125 7.6528125 -4 8 C-4.66 7.34 -5.32 6.68 -6 6 C-5.195625 5.566875 -4.39125 5.13375 -3.5625 4.6875 C-0.72153646 3.19525998 -0.72153646 3.19525998 0 0 Z " fill="#0A3D73" transform="translate(632,646)"/>
<path d="M0 0 C-1.38081223 4.1424367 -3.59825558 5.32203099 -7 8 C-7.66 7.67 -8.32 7.34 -9 7 C-7.88121617 5.82737096 -6.75476949 4.66204862 -5.625 3.5 C-4.68527344 2.52546875 -4.68527344 2.52546875 -3.7265625 1.53125 C-2 0 -2 0 0 0 Z " fill="#17703F" transform="translate(361,440)"/>
<path d="M0 0 C0.66 0.66 1.32 1.32 2 2 C-0.97 4.475 -0.97 4.475 -4 7 C-4.66 6.67 -5.32 6.34 -6 6 C-4.02 4.02 -2.04 2.04 0 0 Z " fill="#22874F" transform="translate(278,445)"/>
<path d="M0 0 C2 1 2 1 2 1 Z " fill="#22749D" transform="translate(537,456)"/>
<path d="" fill="#33AB78" transform="translate(0,0)"/>
<path d="" fill="#33AD6F" transform="translate(0,0)"/>
<path d="" fill="#34B273" transform="translate(0,0)"/>
<path d="" fill="#414643" transform="translate(0,0)"/>
<path d="" fill="#34A36E" transform="translate(0,0)"/>
<path d="" fill="#1A5489" transform="translate(0,0)"/>
<path d="" fill="#236787" transform="translate(0,0)"/>
<path d="" fill="#195490" transform="translate(0,0)"/>
<path d="" fill="#216692" transform="translate(0,0)"/>
<path d="" fill="#1E6493" transform="translate(0,0)"/>
<path d="" fill="#216093" transform="translate(0,0)"/>
<path d="" fill="#33A279" transform="translate(0,0)"/>
<path d="" fill="#38AD72" transform="translate(0,0)"/>
<path d="" fill="#1E6897" transform="translate(0,0)"/>
<path d="" fill="#1D6196" transform="translate(0,0)"/>
<path d="" fill="#39B074" transform="translate(0,0)"/>
<path d="" fill="#227298" transform="translate(0,0)"/>
<path d="" fill="#206D95" transform="translate(0,0)"/>
<path d="" fill="#21709D" transform="translate(0,0)"/>
<path d="" fill="#1F6F9E" transform="translate(0,0)"/>
<path d="" fill="#22769B" transform="translate(0,0)"/>
<path d="" fill="#1B6AA4" transform="translate(0,0)"/>
<path d="" fill="#1B6AA1" transform="translate(0,0)"/>
<path d="" fill="#1A68A0" transform="translate(0,0)"/>
<path d="" fill="#1C6BA3" transform="translate(0,0)"/>
<path d="" fill="#1E6CA0" transform="translate(0,0)"/>
<path d="" fill="#217197" transform="translate(0,0)"/>
<path d="" fill="#22719F" transform="translate(0,0)"/>
<path d="" fill="#277B92" transform="translate(0,0)"/>
<path d="" fill="#37A36C" transform="translate(0,0)"/>
<path d="" fill="#297A9A" transform="translate(0,0)"/>
<path d="" fill="#227099" transform="translate(0,0)"/>
<path d="" fill="#257D9A" transform="translate(0,0)"/>
<path d="" fill="#34AD7D" transform="translate(0,0)"/>
<path d="" fill="#36A87C" transform="translate(0,0)"/>
<path d="" fill="#36AB79" transform="translate(0,0)"/>
<path d="" fill="#36A879" transform="translate(0,0)"/>
<path d="" fill="#35AC71" transform="translate(0,0)"/>
<path d="" fill="#33B478" transform="translate(0,0)"/>
<path d="" fill="#38AC79" transform="translate(0,0)"/>
<path d="" fill="#33AA78" transform="translate(0,0)"/>
<path d="" fill="#34AA79" transform="translate(0,0)"/>
<path d="" fill="#35AB78" transform="translate(0,0)"/>
<path d="" fill="#35AC6F" transform="translate(0,0)"/>
<path d="" fill="#33AB78" transform="translate(0,0)"/>
<path d="" fill="#34AF7C" transform="translate(0,0)"/>
<path d="" fill="#34AC79" transform="translate(0,0)"/>
<path d="" fill="#38A36E" transform="translate(0,0)"/>
<path d="" fill="#35B077" transform="translate(0,0)"/>
<path d="" fill="#33A774" transform="translate(0,0)"/>
<path d="" fill="#34AD77" transform="translate(0,0)"/>
<path d="" fill="#32A56F" transform="translate(0,0)"/>
<path d="" fill="#36AB79" transform="translate(0,0)"/>
<path d="" fill="#34B079" transform="translate(0,0)"/>
<path d="" fill="#34B476" transform="translate(0,0)"/>
<path d="" fill="#35B677" transform="translate(0,0)"/>
<path d="" fill="#36B174" transform="translate(0,0)"/>
<path d="" fill="#32AB6F" transform="translate(0,0)"/>
<path d="" fill="#34AB71" transform="translate(0,0)"/>
<path d="" fill="#33B771" transform="translate(0,0)"/>
<path d="" fill="#37AE6F" transform="translate(0,0)"/>
<path d="" fill="#35AE6F" transform="translate(0,0)"/>
<path d="" fill="#36AE6F" transform="translate(0,0)"/>
<path d="" fill="#34AD70" transform="translate(0,0)"/>
<path d="" fill="#36B172" transform="translate(0,0)"/>
<path d="" fill="#35AD71" transform="translate(0,0)"/>
<path d="" fill="#36AC73" transform="translate(0,0)"/>
<path d="" fill="#35AB70" transform="translate(0,0)"/>
<path d="" fill="#32AF74" transform="translate(0,0)"/>
<path d="" fill="#36AF72" transform="translate(0,0)"/>
<path d="" fill="#33AD74" transform="translate(0,0)"/>
<path d="" fill="#35B473" transform="translate(0,0)"/>
<path d="" fill="#35AD74" transform="translate(0,0)"/>
<path d="" fill="#34B375" transform="translate(0,0)"/>
<path d="" fill="#35AF73" transform="translate(0,0)"/>
<path d="" fill="#37AA6E" transform="translate(0,0)"/>
<path d="" fill="#35B073" transform="translate(0,0)"/>
<path d="" fill="#37B071" transform="translate(0,0)"/>
<path d="" fill="#34B574" transform="translate(0,0)"/>
<path d="" fill="#33A970" transform="translate(0,0)"/>
<path d="" fill="#38AC70" transform="translate(0,0)"/>
<path d="" fill="#34AB70" transform="translate(0,0)"/>
<path d="" fill="#33AC71" transform="translate(0,0)"/>
<path d="" fill="#2FAC6E" transform="translate(0,0)"/>
<path d="" fill="#37AC6F" transform="translate(0,0)"/>
<path d="" fill="#35A86C" transform="translate(0,0)"/>
<path d="" fill="#33AA6E" transform="translate(0,0)"/>
<path d="" fill="#34A86E" transform="translate(0,0)"/>
<path d="" fill="#35A86D" transform="translate(0,0)"/>
<path d="" fill="#38A56D" transform="translate(0,0)"/>
<path d="" fill="#34A66C" transform="translate(0,0)"/>
</svg>
